<?xml version="1.0" standalone="no"?>
<!DOCTYPE svg PUBLIC "-//W3C//DTD SVG 1.1//EN" "http://www.w3.org/Graphics/SVG/1.1/DTD/svg11.dtd" >
<svg xmlns="http://www.w3.org/2000/svg">
<metadata>
Created by FontPrep 20130207 at Sun Jun  8 15:27:30 2014
 By Sappawish Siripon
Copyright (c) 2006E^by Department of Intellectual Property (DIP), Ministry of Commerce and Software Industry Promotion Agency (Public Organization) (SIPA). All rights reserved.
</metadata>
<defs>
<font id="e26160a10d8de42068a5e7111b0de664" horiz-adv-x='1024' >
  <font-face 
    font-family="THChakraPetch-Bold"
    font-weight="700"
    font-stretch="normal"
    units-per-em="2048"
    panose-1="2 0 5 6 0 0 0 2 0 4"
    ascent="1638"
    descent="-410"
    x-height="625"
    cap-height="883"
    bbox="-928 -846 2791 1645"
    underline-thickness="61"
    underline-position="-41"
    unicode-range="U+0020-FB02"
  />
<missing-glyph horiz-adv-x="825" 
d="M606 111v958h-442v-958h442zM715 0h-662v1180h662v-1180z" />
    <glyph glyph-name="Agrave" unicode="A&#x300;" horiz-adv-x="786" 
d="M166 350h403v115l-190 307h-23l-190 -307v-115zM680 0h-111v240h-403v-240h-111v496l240 387h145l240 -387v-496zM459 967l-221 143l77 78l183 -182z" />
    <glyph glyph-name="Aacute" unicode="A&#x301;" horiz-adv-x="786" 
d="M166 350h403v115l-190 307h-23l-190 -307v-115zM680 0h-111v240h-403v-240h-111v496l240 387h145l240 -387v-496zM279 967l-39 39l182 182l78 -78z" />
    <glyph glyph-name="Atilde" unicode="A&#x303;" horiz-adv-x="788" 
d="M166 350h403v115l-190 307h-23l-190 -307v-115zM680 0h-111v240h-403v-240h-111v496l240 387h145l240 -387v-496zM526 1165l35 -39l-141 -118l-111 63l-100 -49l-35 39l137 117l109 -64z" />
    <glyph glyph-name="Egrave" unicode="E&#x300;" horiz-adv-x="753" 
d="M164 498h442v-111h-442v-231l45 -45h434v-111h-479l-111 111v661l111 111h479v-111h-434l-45 -45v-229zM440 967l-221 143l78 78l182 -182z" />
    <glyph glyph-name="Eacute" unicode="E&#x301;" horiz-adv-x="753" 
d="M164 498h442v-111h-442v-231l45 -45h434v-111h-479l-111 111v661l111 111h479v-111h-434l-45 -45v-229zM258 967l-39 39l182 182l78 -78z" />
    <glyph glyph-name="Igrave" unicode="I&#x300;" horiz-adv-x="274" 
d="M53 0v883h111v-883h-111zM203 967l-221 143l77 78l183 -182z" />
    <glyph glyph-name="Iacute" unicode="I&#x301;" horiz-adv-x="274" 
d="M53 0v883h111v-883h-111zM20 967l-38 39l182 182l78 -78z" />
    <glyph glyph-name="Ograve" unicode="O&#x300;" horiz-adv-x="827" 
d="M606 156v571l-45 45h-352l-45 -45v-571l45 -45h352zM606 883l111 -111v-663l-111 -109h-442l-111 111v663l111 109h442zM477 967l-221 143l78 78l182 -182z" />
    <glyph glyph-name="Oacute" unicode="O&#x301;" horiz-adv-x="827" 
d="M606 156v571l-45 45h-352l-45 -45v-571l45 -45h352zM606 883l111 -111v-663l-111 -109h-442l-111 111v663l111 109h442zM295 967l-39 39l182 182l78 -78z" />
    <glyph glyph-name="Otilde" unicode="O&#x303;" horiz-adv-x="827" 
d="M606 156v571l-45 45h-352l-45 -45v-571l45 -45h352zM606 883l111 -111v-663l-111 -109h-442l-111 111v663l111 109h442zM545 1165l35 -39l-142 -118l-110 63l-101 -49l-34 39l137 117l108 -64z" />
    <glyph glyph-name="Ugrave" unicode="U&#x300;" horiz-adv-x="792" 
d="M55 883h111v-727l45 -45h315l45 45v727h111v-774l-111 -109h-405l-111 111v772zM461 967l-221 143l77 78l183 -182z" />
    <glyph glyph-name="Uacute" unicode="U&#x301;" horiz-adv-x="792" 
d="M55 883h111v-727l45 -45h315l45 45v727h111v-774l-111 -109h-405l-111 111v772zM279 967l-39 39l182 182l78 -78z" />
    <glyph glyph-name="Yacute" unicode="Y&#x301;" horiz-adv-x="792" 
d="M569 883h111v-277l-258 -203v-403h-111v406l-258 202v275h111v-221l203 -160l202 160v221zM276 1008l-38 39l182 182l78 -78z" />
    <glyph glyph-name="agrave" unicode="a&#x300;" horiz-adv-x="794" 
d="M573 276h-358l-47 -47v-73l47 -45h215l143 143v22zM684 0h-111v111l-110 -111h-295l-111 111v165l111 111h405v82l-45 45h-313l-47 -45v-47h-111v94l111 109h405l111 -109v-516zM463 705l-221 143l77 78l183 -183z" />
    <glyph glyph-name="aacute" unicode="a&#x301;" horiz-adv-x="794" 
d="M573 276h-358l-47 -47v-73l47 -45h215l143 143v22zM684 0h-111v111l-110 -111h-295l-111 111v165l111 111h405v82l-45 45h-313l-47 -45v-47h-111v94l111 109h405l111 -109v-516zM281 705l-39 38l182 183l78 -78z" />
    <glyph glyph-name="atilde" unicode="a&#x303;" horiz-adv-x="794" 
d="M573 276h-358l-47 -47v-73l47 -45h215l143 143v22zM684 0h-111v111l-110 -111h-295l-111 111v165l111 111h405v82l-45 45h-313l-47 -45v-47h-111v94l111 109h405l111 -109v-516zM530 903l35 -39l-141 -119l-111 64l-100 -49l-35 39l137 116l109 -63z" />
    <glyph glyph-name="egrave" unicode="e&#x300;" horiz-adv-x="792" 
d="M166 387h405v82l-45 45h-315l-45 -45v-82zM682 276h-516v-120l45 -45h315l45 45v47h111v-94l-111 -109h-405l-111 111v405l111 109h405l111 -109v-240zM461 705l-221 143l77 78l183 -183z" />
    <glyph glyph-name="eacute" unicode="e&#x301;" horiz-adv-x="792" 
d="M166 387h405v82l-45 45h-315l-45 -45v-82zM682 276h-516v-120l45 -45h315l45 45v47h111v-94l-111 -109h-405l-111 111v405l111 109h405l111 -109v-240zM279 705l-39 38l182 183l78 -78z" />
    <glyph glyph-name="igrave" unicode="i&#x300;" horiz-adv-x="280" 
d="M61 0v627h109v-627h-109zM209 705l-221 143l78 78l182 -183z" />
    <glyph glyph-name="iacute" unicode="i&#x301;" horiz-adv-x="280" 
d="M61 0v627h109v-627h-109zM27 705l-39 38l182 183l78 -78z" />
    <glyph glyph-name="ograve" unicode="o&#x300;" horiz-adv-x="821" 
d="M586 156v315l-47 45h-314l-45 -45v-313l45 -47h316zM586 627l110 -111v-405l-110 -111h-406l-110 111v405l110 111h406zM475 705l-221 143l78 78l182 -183z" />
    <glyph glyph-name="oacute" unicode="o&#x301;" horiz-adv-x="821" 
d="M586 156v315l-47 45h-314l-45 -45v-313l45 -47h316zM586 627l110 -111v-405l-110 -111h-406l-110 111v405l110 111h406zM293 705l-39 38l182 183l78 -78z" />
    <glyph glyph-name="otilde" unicode="o&#x303;" horiz-adv-x="821" 
d="M586 156v315l-47 45h-314l-45 -45v-313l45 -47h316zM586 627l110 -111v-405l-110 -111h-406l-110 111v405l110 111h406zM543 903l35 -39l-142 -119l-110 64l-101 -49l-35 39l138 116l108 -63z" />
    <glyph glyph-name="ugrave" unicode="u&#x300;" horiz-adv-x="755" 
d="M535 625h110v-625h-110v111l-111 -111h-258l-111 111v514h111v-469l45 -45h178l146 143v371zM442 705l-221 143l78 78l182 -183z" />
    <glyph glyph-name="uacute" unicode="u&#x301;" horiz-adv-x="755" 
d="M535 625h110v-625h-110v111l-111 -111h-258l-111 111v514h111v-469l45 -45h178l146 143v371zM260 705l-39 38l182 183l78 -78z" />
    <glyph glyph-name="yacute" unicode="y&#x301;" horiz-adv-x="790" 
d="M680 625v-775l-111 -108h-221v111h176l45 45v213l-110 -111h-295l-111 111v514h111v-469l45 -45h217l143 143v371h111zM276 705l-38 38l182 183l78 -78z" />
    <glyph glyph-name="Itilde" unicode="I&#x303;" horiz-adv-x="274" 
d="M53 0v883h111v-883h-111zM270 1165l35 -39l-141 -118l-111 63l-100 -49l-35 39l137 117l109 -64z" />
    <glyph glyph-name="itilde" unicode="i&#x303;" horiz-adv-x="280" 
d="M61 0v627h109v-627h-109zM276 903l35 -39l-141 -119l-111 64l-100 -49l-35 39l137 116l109 -63z" />
    <glyph glyph-name="Utilde" unicode="U&#x303;" horiz-adv-x="794" 
d="M55 883h111v-727l45 -45h315l45 45v727h111v-774l-111 -109h-405l-111 111v772zM528 1165l35 -39l-141 -118l-111 63l-100 -49l-35 39l137 117l109 -64z" />
    <glyph glyph-name="utilde" unicode="u&#x303;" horiz-adv-x="753" 
d="M535 625h110v-625h-110v111l-111 -111h-258l-111 111v514h111v-469l45 -45h178l146 143v371zM510 903l35 -39l-142 -119l-110 64l-100 -49l-35 39l137 116l108 -63z" />
    <glyph glyph-name="uni1EA0" unicode="A&#x323;" horiz-adv-x="788" 
d="M166 350h403v115l-190 307h-23l-190 -307v-115zM680 0h-111v240h-403v-240h-111v496l240 387h145l240 -387v-496zM451 -121v-69l-50 -48h-67l-49 48v69l49 47h67z" />
    <glyph glyph-name="uni1EA1" unicode="a&#x323;" horiz-adv-x="794" 
d="M573 276h-358l-47 -47v-73l47 -45h215l143 143v22zM684 0h-111v111l-110 -111h-295l-111 111v165l111 111h405v82l-45 45h-313l-47 -45v-47h-111v94l111 109h405l111 -109v-516zM455 -106v-70l-49 -47h-68l-49 47v70l49 47h68z" />
    <glyph glyph-name="uni1EA2" unicode="A&#x309;" horiz-adv-x="788" 
d="M166 350h403v115l-190 307h-23l-190 -307v-115zM680 0h-111v240h-403v-240h-111v496l240 387h145l240 -387v-496zM420 1188l49 -58v-77l-104 -86l-43 22l73 94v25l-6 6h-29l-71 -49l-47 27l84 96h94z" />
    <glyph glyph-name="uni1EA3" unicode="a&#x309;" horiz-adv-x="794" 
d="M573 276h-358l-47 -47v-73l47 -45h215l143 143v22zM684 0h-111v111l-110 -111h-295l-111 111v165l111 111h405v82l-45 45h-313l-47 -45v-47h-111v94l111 109h405l111 -109v-516zM426 926l49 -58v-77l-104 -86l-43 22l73 94v25l-6 6h-28l-72 -49l-47 26l84 97h94z" />
    <glyph glyph-name="uni1EA4" unicode="&#xc2;&#x301;" horiz-adv-x="788" 
d="M166 350h403v115l-190 307h-23l-190 -307v-115zM680 0h-111v240h-403v-240h-111v496l240 387h145l240 -387v-496zM410 1188l182 -182l-39 -39l-186 125l-179 -125l-38 39l182 182h78zM535 1114l-39 39l182 182l78 -78z" />
    <glyph glyph-name="uni1EA5" unicode="&#xe2;&#x301;" horiz-adv-x="794" 
d="M573 276h-358l-47 -47v-73l47 -45h215l143 143v22zM684 0h-111v111l-110 -111h-295l-111 111v165l111 111h405v82l-45 45h-313l-47 -45v-47h-111v94l111 109h405l111 -109v-516zM414 926l182 -183l-39 -38l-186 124l-178 -124l-39 38l182 183h78zM541 850l-39 39l182 182
l78 -78z" />
    <glyph glyph-name="uni1EA6" unicode="&#xc2;&#x300;" horiz-adv-x="788" 
d="M166 350h403v115l-190 307h-23l-190 -307v-115zM680 0h-111v240h-403v-240h-111v496l240 387h145l240 -387v-496zM410 1188l182 -182l-39 -39l-186 125l-179 -125l-38 39l182 182h78zM623 1114l-222 143l78 78l183 -182z" />
    <glyph glyph-name="uni1EA7" unicode="&#xe2;&#x300;" horiz-adv-x="794" 
d="M573 276h-358l-47 -47v-73l47 -45h215l143 143v22zM684 0h-111v111l-110 -111h-295l-111 111v165l111 111h405v82l-45 45h-313l-47 -45v-47h-111v94l111 109h405l111 -109v-516zM412 926l182 -183l-39 -38l-186 124l-179 -124l-38 38l182 183h78zM627 850l-221 143l77 78
l183 -182z" />
    <glyph glyph-name="uni1EA8" unicode="&#xc2;&#x309;" horiz-adv-x="788" 
d="M166 350h403v115l-190 307h-23l-190 -307v-115zM680 0h-111v240h-403v-240h-111v496l240 387h145l240 -387v-496zM410 1188l182 -182l-39 -39l-186 125l-179 -125l-38 39l182 182h78zM610 1335l49 -57v-78l-104 -86l-43 23l74 94v24l-6 7h-29l-72 -50l-47 27l84 96h94z
" />
    <glyph glyph-name="uni1EA9" unicode="&#xe2;&#x309;" horiz-adv-x="794" 
d="M573 276h-358l-47 -47v-73l47 -45h215l143 143v22zM684 0h-111v111l-110 -111h-295l-111 111v165l111 111h405v82l-45 45h-313l-47 -45v-47h-111v94l111 109h405l111 -109v-516zM414 926l182 -183l-39 -38l-186 124l-178 -124l-39 38l182 183h78zM614 1073l50 -57v-78
l-105 -86l-43 22l74 95v24l-6 6h-29l-72 -49l-47 27l84 96h94z" />
    <glyph glyph-name="uni1EAA" unicode="&#xc2;&#x303;" horiz-adv-x="788" 
d="M166 350h403v115l-190 307h-23l-190 -307v-115zM680 0h-111v240h-403v-240h-111v496l240 387h145l240 -387v-496zM410 1188l182 -182l-39 -39l-186 125l-179 -125l-38 39l182 182h78zM528 1382l35 -39l-141 -118l-111 63l-100 -49l-35 39l137 117l109 -64z" />
    <glyph glyph-name="uni1EAB" unicode="&#xe2;&#x303;" horiz-adv-x="794" 
d="M573 276h-358l-47 -47v-73l47 -45h215l143 143v22zM684 0h-111v111l-110 -111h-295l-111 111v165l111 111h405v82l-45 45h-313l-47 -45v-47h-111v94l111 109h405l111 -109v-516zM414 926l182 -183l-39 -38l-186 124l-178 -124l-39 38l182 183h78zM535 1118l34 -39
l-141 -118l-111 63l-100 -49l-35 39l137 116l109 -63z" />
    <glyph glyph-name="uni1EAC" unicode="&#xc2;&#x323;" horiz-adv-x="788" 
d="M166 350h403v115l-190 307h-23l-190 -307v-115zM680 0h-111v240h-403v-240h-111v496l240 387h145l240 -387v-496zM451 -121v-69l-50 -48h-67l-49 48v69l49 47h67zM410 1188l182 -182l-39 -39l-186 125l-179 -125l-38 39l182 182h78z" />
    <glyph glyph-name="uni1EAD" unicode="&#xe2;&#x323;" horiz-adv-x="759" 
d="M573 276h-358l-47 -47v-73l47 -45h215l143 143v22zM684 0h-111v111l-110 -111h-295l-111 111v165l111 111h405v82l-45 45h-313l-47 -45v-47h-111v94l111 109h405l111 -109v-516zM444 -106v-70l-49 -47h-67l-49 47v70l49 47h67zM403 926l183 -183l-39 -38l-187 124
l-178 -124l-39 38l183 183h77z" />
    <glyph glyph-name="uni1EAE" unicode="&#x102;&#x301;" horiz-adv-x="788" 
d="M168 350h403v115l-190 307h-23l-190 -307v-115zM682 0h-111v240h-403v-240h-111v496l240 387h145l240 -387v-496zM528 1188l52 -29l-111 -192h-203l-110 192l49 29l117 -129h92zM330 1096l-39 39l182 182l78 -78z" />
    <glyph glyph-name="uni1EAF" unicode="&#x103;&#x301;" horiz-adv-x="794" 
d="M573 276h-358l-47 -47v-73l47 -45h215l143 143v22zM684 0h-111v111l-110 -111h-295l-111 111v165l111 111h405v82l-45 45h-313l-47 -45v-47h-111v94l111 109h405l111 -109v-516zM532 926l52 -29l-111 -192h-203l-110 192l49 29l117 -129h92zM334 831l-39 39l182 183
l78 -78z" />
    <glyph glyph-name="uni1EB0" unicode="&#x102;&#x300;" horiz-adv-x="788" 
d="M168 350h403v115l-190 307h-23l-190 -307v-115zM682 0h-111v240h-403v-240h-111v496l240 387h145l240 -387v-496zM530 1188l52 -29l-111 -192h-203l-110 192l49 29l117 -129h92zM410 1096l-222 143l78 78l183 -182z" />
    <glyph glyph-name="uni1EB1" unicode="&#x103;&#x300;" horiz-adv-x="794" 
d="M573 276h-358l-47 -47v-73l47 -45h215l143 143v22zM684 0h-111v111l-110 -111h-295l-111 111v165l111 111h405v82l-45 45h-313l-47 -45v-47h-111v94l111 109h405l111 -109v-516zM530 926l52 -29l-111 -192h-203l-110 192l49 29l117 -129h92zM408 831l-222 144l78 78
l182 -183z" />
    <glyph glyph-name="uni1EB2" unicode="&#x102;&#x309;" horiz-adv-x="788" 
d="M166 350h403v115l-190 307h-23l-190 -307v-115zM680 0h-111v240h-403v-240h-111v496l240 387h145l240 -387v-496zM526 1188l52 -29l-111 -192h-203l-110 192l49 29l116 -129h93zM422 1317l49 -57v-78l-104 -86l-43 22l73 94v25l-6 6h-29l-71 -49l-47 27l84 96h94z" />
    <glyph glyph-name="uni1EB3" unicode="&#x103;&#x309;" horiz-adv-x="794" 
d="M573 276h-358l-47 -47v-73l47 -45h215l143 143v22zM684 0h-111v111l-110 -111h-295l-111 111v165l111 111h405v82l-45 45h-313l-47 -45v-47h-111v94l111 109h405l111 -109v-516zM530 926l52 -29l-111 -192h-203l-110 192l49 29l117 -129h92zM426 1053l49 -58v-77
l-104 -87l-43 23l73 94v25l-6 6h-28l-72 -49l-47 26l84 97h94z" />
    <glyph glyph-name="uni1EB4" unicode="&#x102;&#x303;" horiz-adv-x="788" 
d="M166 350h403v115l-190 307h-23l-190 -307v-115zM680 0h-111v240h-403v-240h-111v496l240 387h145l240 -387v-496zM528 1188l52 -29l-111 -192h-203l-110 192l49 29l117 -129h92zM526 1382l35 -39l-141 -118l-111 63l-100 -49l-35 39l137 117l109 -64z" />
    <glyph glyph-name="uni1EB5" unicode="&#x103;&#x303;" horiz-adv-x="794" 
d="M573 276h-358l-47 -47v-73l47 -45h215l143 143v22zM684 0h-111v111l-110 -111h-295l-111 111v165l111 111h405v82l-45 45h-313l-47 -45v-47h-111v94l111 109h405l111 -109v-516zM532 926l52 -29l-111 -192h-203l-110 192l49 29l117 -129h92zM530 1118l35 -39l-141 -118
l-111 63l-100 -49l-35 39l137 116l109 -63z" />
    <glyph glyph-name="uni1EB6" unicode="&#x102;&#x323;" horiz-adv-x="788" 
d="M166 350h403v115l-190 307h-23l-190 -307v-115zM680 0h-111v240h-403v-240h-111v496l240 387h145l240 -387v-496zM451 -121v-69l-50 -48h-67l-49 48v69l49 47h67zM528 1188l52 -29l-111 -192h-203l-110 192l49 29l117 -129h92z" />
    <glyph glyph-name="uni1EB7" unicode="&#x103;&#x323;" horiz-adv-x="759" 
d="M573 276h-358l-47 -47v-73l47 -45h215l143 143v22zM684 0h-111v111l-110 -111h-295l-111 111v165l111 111h405v82l-45 45h-313l-47 -45v-47h-111v94l111 109h405l111 -109v-516zM444 -106v-70l-49 -47h-67l-49 47v70l49 47h67zM522 926l51 -29l-110 -192h-203l-110 192
l49 29l116 -129h93z" />
    <glyph glyph-name="uni1EB8" unicode="E&#x323;" horiz-adv-x="753" 
d="M164 498h442v-111h-442v-231l45 -45h434v-111h-479l-111 111v661l111 111h479v-111h-434l-45 -45v-229zM432 -121v-69l-49 -48h-68l-49 48v69l49 47h68z" />
    <glyph glyph-name="uni1EB9" unicode="e&#x323;" horiz-adv-x="792" 
d="M166 387h405v82l-45 45h-315l-45 -45v-82zM682 276h-516v-120l45 -45h315l45 45v47h111v-94l-111 -109h-405l-111 111v405l111 109h405l111 -109v-240zM453 -106v-70l-50 -47h-67l-49 47v70l49 47h67z" />
    <glyph glyph-name="uni1EBA" unicode="E&#x309;" horiz-adv-x="753" 
d="M164 498h442v-111h-442v-231l45 -45h434v-111h-479l-111 111v661l111 111h479v-111h-434l-45 -45v-229zM403 1188l50 -58v-77l-105 -86l-43 22l74 94v25l-6 6h-29l-72 -49l-47 27l84 96h94z" />
    <glyph glyph-name="uni1EBB" unicode="e&#x309;" horiz-adv-x="792" 
d="M166 387h405v82l-45 45h-315l-45 -45v-82zM682 276h-516v-120l45 -45h315l45 45v47h111v-94l-111 -109h-405l-111 111v405l111 109h405l111 -109v-240zM426 926l49 -55v-75l-105 -82l-43 21l74 91v24l-6 6h-29l-72 -48l-48 26l85 92h95z" />
    <glyph glyph-name="uni1EBC" unicode="E&#x303;" horiz-adv-x="753" 
d="M164 498h442v-111h-442v-231l45 -45h434v-111h-479l-111 111v661l111 111h479v-111h-434l-45 -45v-229zM508 1165l35 -39l-142 -118l-110 63l-101 -49l-34 39l137 117l108 -64z" />
    <glyph glyph-name="uni1EBD" unicode="e&#x303;" horiz-adv-x="792" 
d="M166 387h405v82l-45 45h-315l-45 -45v-82zM682 276h-516v-120l45 -45h315l45 45v47h111v-94l-111 -109h-405l-111 111v405l111 109h405l111 -109v-240zM528 903l35 -39l-141 -119l-111 64l-100 -49l-35 39l137 116l109 -63z" />
    <glyph glyph-name="uni1EBE" unicode="&#xca;&#x301;" horiz-adv-x="753" 
d="M164 498h442v-111h-442v-231l45 -45h434v-111h-479l-111 111v661l111 111h479v-111h-434l-45 -45v-229zM391 1188l182 -182l-38 -39l-187 125l-178 -125l-39 39l182 182h78zM516 1114l-39 39l182 182l78 -78z" />
    <glyph glyph-name="uni1EBF" unicode="&#xea;&#x301;" horiz-adv-x="792" 
d="M166 387h405v82l-45 45h-315l-45 -45v-82zM682 276h-516v-120l45 -45h315l45 45v47h111v-94l-111 -109h-405l-111 111v405l111 109h405l111 -109v-240zM412 926l182 -183l-39 -38l-186 124l-179 -124l-38 38l182 183h78zM539 850l-39 39l182 182l78 -78z" />
    <glyph glyph-name="uni1EC0" unicode="&#xca;&#x300;" horiz-adv-x="753" 
d="M164 498h442v-111h-442v-231l45 -45h434v-111h-479l-111 111v661l111 111h479v-111h-434l-45 -45v-229zM391 1188l182 -182l-38 -39l-187 125l-178 -125l-39 39l182 182h78zM604 1114l-221 143l78 78l182 -182z" />
    <glyph glyph-name="uni1EC1" unicode="&#xea;&#x300;" horiz-adv-x="792" 
d="M166 387h405v82l-45 45h-315l-45 -45v-82zM682 276h-516v-120l45 -45h315l45 45v47h111v-94l-111 -109h-405l-111 111v405l111 109h405l111 -109v-240zM412 926l182 -183l-39 -38l-186 124l-179 -124l-38 38l182 183h78zM625 850l-222 143l78 78l183 -182z" />
    <glyph glyph-name="uni1EC2" unicode="&#xca;&#x309;" horiz-adv-x="753" 
d="M164 498h442v-111h-442v-231l45 -45h434v-111h-479l-111 111v661l111 111h479v-111h-434l-45 -45v-229zM391 1188l182 -182l-38 -39l-187 125l-178 -125l-39 39l182 182h78zM592 1335l49 -57v-78l-104 -86l-43 23l73 94v24l-6 7h-29l-71 -50l-47 27l84 96h94z" />
    <glyph glyph-name="uni1EC3" unicode="&#xea;&#x309;" horiz-adv-x="792" 
d="M166 387h405v82l-45 45h-315l-45 -45v-82zM682 276h-516v-120l45 -45h315l45 45v47h111v-94l-111 -109h-405l-111 111v405l111 109h405l111 -109v-240zM412 926l182 -183l-39 -38l-186 124l-179 -124l-38 38l182 183h78zM612 1073l50 -57v-78l-105 -86l-43 22l74 95v24
l-6 6h-29l-72 -49l-47 27l84 96h94z" />
    <glyph glyph-name="uni1EC4" unicode="&#xca;&#x303;" horiz-adv-x="753" 
d="M164 498h442v-111h-442v-231l45 -45h434v-111h-479l-111 111v661l111 111h479v-111h-434l-45 -45v-229zM391 1188l182 -182l-38 -39l-187 125l-178 -125l-39 39l182 182h78zM510 1382l35 -39l-142 -118l-110 63l-100 -49l-35 39l137 117l108 -64z" />
    <glyph glyph-name="uni1EC5" unicode="&#xea;&#x303;" horiz-adv-x="792" 
d="M166 387h405v82l-45 45h-315l-45 -45v-82zM682 276h-516v-120l45 -45h315l45 45v47h111v-94l-111 -109h-405l-111 111v405l111 109h405l111 -109v-240zM412 926l182 -183l-39 -38l-186 124l-179 -124l-38 38l182 183h78zM532 1118l35 -39l-141 -118l-111 63l-100 -49
l-35 39l137 116l109 -63z" />
    <glyph glyph-name="uni1EC6" unicode="&#xca;&#x323;" horiz-adv-x="753" 
d="M164 498h442v-111h-442v-231l45 -45h434v-111h-479l-111 111v661l111 111h479v-111h-434l-45 -45v-229zM432 -121v-69l-49 -48h-68l-49 48v69l49 47h68zM391 1188l182 -182l-38 -39l-187 125l-178 -125l-39 39l182 182h78z" />
    <glyph glyph-name="uni1EC7" unicode="&#xea;&#x323;" horiz-adv-x="792" 
d="M166 387h405v82l-45 45h-315l-45 -45v-82zM682 276h-516v-120l45 -45h315l45 45v47h111v-94l-111 -109h-405l-111 111v405l111 109h405l111 -109v-240zM453 -106v-70l-50 -47h-67l-49 47v70l49 47h67zM412 926l182 -183l-39 -38l-186 124l-179 -124l-38 38l182 183h78z
" />
    <glyph glyph-name="uni1EC8" unicode="I&#x309;" horiz-adv-x="274" 
d="M53 0v883h111v-883h-111zM166 1188l49 -58v-77l-104 -86l-43 22l73 94v25l-6 6h-29l-71 -49l-47 27l84 96h94z" />
    <glyph glyph-name="uni1EC9" unicode="i&#x309;" horiz-adv-x="280" 
d="M61 0v627h109v-627h-109zM172 926l49 -58v-77l-104 -86l-43 22l73 94v25l-6 6h-28l-72 -49l-47 26l84 97h94z" />
    <glyph glyph-name="uni1ECA" unicode="I&#x323;" horiz-adv-x="274" 
d="M53 0v883h111v-883h-111zM195 -121v-69l-50 -48h-67l-49 48v69l49 47h67z" />
    <glyph glyph-name="uni1ECB" unicode="i&#x323;" horiz-adv-x="280" 
d="M141 803l39 -37v-53l-39 -39h-53l-37 39v53l37 37h53zM59 0v625h111v-625h-111zM201 -106v-70l-49 -47h-68l-49 47v70l49 47h68z" />
    <glyph glyph-name="uni1ECC" unicode="O&#x323;" horiz-adv-x="827" 
d="M606 156v571l-45 45h-352l-45 -45v-571l45 -45h352zM606 883l111 -111v-663l-111 -109h-442l-111 111v663l111 109h442zM469 -121v-69l-49 -48h-68l-49 48v69l49 47h68z" />
    <glyph glyph-name="uni1ECD" unicode="o&#x323;" horiz-adv-x="821" 
d="M586 156v315l-47 45h-314l-45 -45v-313l45 -47h316zM586 627l110 -111v-405l-110 -111h-406l-110 111v405l110 111h406zM467 -109v-69l-49 -47h-68l-49 47v69l49 48h68z" />
    <glyph glyph-name="uni1ECE" unicode="O&#x309;" horiz-adv-x="827" 
d="M606 156v571l-45 45h-352l-45 -45v-571l45 -45h352zM606 883l111 -111v-663l-111 -109h-442l-111 111v663l111 109h442zM440 1188l49 -58v-77l-104 -86l-43 22l74 94v25l-6 6h-29l-72 -49l-47 27l84 96h94z" />
    <glyph glyph-name="uni1ECF" unicode="o&#x309;" horiz-adv-x="821" 
d="M586 156v315l-47 45h-314l-45 -45v-313l45 -47h316zM586 627l110 -111v-405l-110 -111h-406l-110 111v405l110 111h406zM438 926l49 -58v-77l-104 -86l-43 22l74 94v25l-6 6h-29l-72 -49l-47 26l84 97h94z" />
    <glyph glyph-name="uni1ED0" unicode="&#xd4;&#x301;" horiz-adv-x="827" 
d="M606 156v571l-45 45h-352l-45 -45v-571l45 -45h352zM606 883l111 -111v-663l-111 -109h-442l-111 111v663l111 109h442zM428 1188l182 -182l-39 -39l-186 125l-178 -125l-39 39l182 182h78zM553 1114l-39 39l182 182l78 -78z" />
    <glyph glyph-name="uni1ED1" unicode="&#xf4;&#x301;" horiz-adv-x="821" 
d="M586 156v315l-47 45h-314l-45 -45v-313l45 -47h316zM586 627l110 -111v-405l-110 -111h-406l-110 111v405l110 111h406zM424 926l182 -183l-39 -38l-186 124l-178 -124l-39 38l182 183h78zM553 850l-39 39l182 182l78 -78z" />
    <glyph glyph-name="uni1ED2" unicode="&#xd4;&#x300;" horiz-adv-x="827" 
d="M606 156v571l-45 45h-352l-45 -45v-571l45 -45h352zM606 883l111 -111v-663l-111 -109h-442l-111 111v663l111 109h442zM428 1188l182 -182l-39 -39l-186 125l-178 -125l-39 39l182 182h78zM641 1114l-221 143l78 78l182 -182z" />
    <glyph glyph-name="uni1ED3" unicode="&#xf4;&#x300;" horiz-adv-x="821" 
d="M586 156v315l-47 45h-314l-45 -45v-313l45 -47h316zM586 627l110 -111v-405l-110 -111h-406l-110 111v405l110 111h406zM426 926l182 -183l-39 -38l-186 124l-178 -124l-39 38l182 183h78zM639 850l-221 143l78 78l182 -182z" />
    <glyph glyph-name="uni1ED4" unicode="&#xd4;&#x309;" horiz-adv-x="827" 
d="M606 156v571l-45 45h-352l-45 -45v-571l45 -45h352zM606 883l111 -111v-663l-111 -109h-442l-111 111v663l111 109h442zM428 1188l182 -182l-39 -39l-186 125l-178 -125l-39 39l182 182h78zM629 1335l49 -57v-78l-105 -86l-43 23l74 94v24l-6 7h-29l-71 -50l-47 27l84 96
h94z" />
    <glyph glyph-name="uni1ED5" unicode="&#xf4;&#x309;" horiz-adv-x="821" 
d="M586 156v315l-47 45h-314l-45 -45v-313l45 -47h316zM586 627l110 -111v-405l-110 -111h-406l-110 111v405l110 111h406zM426 926l182 -183l-39 -38l-186 124l-178 -124l-39 38l182 183h78zM627 1073l49 -57v-78l-105 -86l-43 22l74 95v24l-6 6h-29l-71 -49l-47 27l83 96
h95z" />
    <glyph glyph-name="uni1ED6" unicode="&#xd4;&#x303;" horiz-adv-x="827" 
d="M606 156v571l-45 45h-352l-45 -45v-571l45 -45h352zM606 883l111 -111v-663l-111 -109h-442l-111 111v663l111 109h442zM428 1188l182 -182l-39 -39l-186 125l-178 -125l-39 39l182 182h78zM547 1382l35 -39l-142 -118l-110 63l-101 -49l-34 39l137 117l108 -64z" />
    <glyph glyph-name="uni1ED7" unicode="&#xf4;&#x303;" horiz-adv-x="821" 
d="M586 156v315l-47 45h-314l-45 -45v-313l45 -47h316zM586 627l110 -111v-405l-110 -111h-406l-110 111v405l110 111h406zM426 926l182 -183l-39 -38l-186 124l-178 -124l-39 38l182 183h78zM547 1118l35 -39l-142 -118l-110 63l-101 -49l-34 39l137 116l108 -63z" />
    <glyph glyph-name="uni1ED8" unicode="&#xd4;&#x323;" horiz-adv-x="827" 
d="M606 156v571l-45 45h-352l-45 -45v-571l45 -45h352zM606 883l111 -111v-663l-111 -109h-442l-111 111v663l111 109h442zM469 -121v-69l-49 -48h-68l-49 48v69l49 47h68zM428 1188l182 -182l-39 -39l-186 125l-178 -125l-39 39l182 182h78z" />
    <glyph glyph-name="uni1ED9" unicode="&#xf4;&#x323;" horiz-adv-x="821" 
d="M586 156v315l-47 45h-314l-45 -45v-313l45 -47h316zM586 627l110 -111v-405l-110 -111h-406l-110 111v405l110 111h406zM467 -106v-70l-49 -47h-68l-49 47v70l49 47h68zM426 926l182 -183l-39 -38l-186 124l-178 -124l-39 38l182 183h78z" />
    <glyph glyph-name="uni1EDA" unicode="&#x1a0;&#x301;" horiz-adv-x="827" 
d="M289 967l-39 39l182 182l78 -78zM608 156v573l-47 45h-350l-45 -45v-571l45 -47h352zM750 958v-120l-48 -47l17 -17v-663l-111 -111h-442l-111 111v663l111 111h442l17 -17l14 15v75h111z" />
    <glyph glyph-name="uni1EDB" unicode="&#x1a1;&#x301;" horiz-adv-x="825" 
d="M743 700v-120l-45 -45l19 -19v-405l-111 -111h-442l-111 111v407l111 109h442l15 -15l14 13v75h108zM606 158v315l-45 45h-352l-45 -45v-313l45 -47h352zM285 705l-39 38l182 183l78 -78z" />
    <glyph glyph-name="uni1EDC" unicode="&#x1a0;&#x300;" horiz-adv-x="827" 
d="M471 967l-221 143l78 78l182 -182zM608 156v573l-47 45h-350l-45 -45v-571l45 -47h352zM750 958v-120l-48 -47l17 -17v-663l-111 -111h-442l-111 111v663l111 111h442l17 -17l14 15v75h111z" />
    <glyph glyph-name="uni1EDD" unicode="&#x1a1;&#x300;" horiz-adv-x="825" 
d="M743 700v-120l-45 -45l19 -19v-405l-111 -111h-442l-111 111v407l111 109h442l15 -15l14 13v75h108zM606 158v315l-45 45h-352l-45 -45v-313l45 -47h352zM467 705l-221 143l78 78l182 -183z" />
    <glyph glyph-name="uni1EDE" unicode="&#x1a0;&#x309;" horiz-adv-x="827" 
d="M434 1188l49 -58v-77l-104 -86l-43 22l74 94v25l-7 6h-28l-72 -49l-47 27l84 96h94zM608 156v573l-47 45h-350l-45 -45v-571l45 -47h352zM750 958v-120l-48 -47l17 -17v-663l-111 -111h-442l-111 111v663l111 111h442l17 -17l14 15v75h111z" />
    <glyph glyph-name="uni1EDF" unicode="&#x1a1;&#x309;" horiz-adv-x="825" 
d="M743 700v-120l-45 -45l19 -19v-405l-111 -111h-442l-111 111v407l111 109h442l15 -15l14 13v75h108zM606 158v315l-45 45h-352l-45 -45v-313l45 -47h352zM430 926l49 -58v-77l-104 -86l-43 22l74 94v25l-7 6h-28l-72 -49l-47 26l84 97h94z" />
    <glyph glyph-name="uni1EE0" unicode="&#x1a0;&#x303;" horiz-adv-x="827" 
d="M750 958v-120l-48 -47l17 -17v-663l-111 -111h-442l-111 111v663l111 111h442l17 -17l14 15v75h111zM606 156v573l-47 45h-350l-45 -45v-571l45 -47h352zM545 1165l35 -39l-142 -118l-110 63l-101 -49l-34 39l137 117l108 -64z" />
    <glyph glyph-name="uni1EE1" unicode="&#x1a1;&#x303;" horiz-adv-x="825" 
d="M743 700v-120l-45 -45l19 -19v-405l-111 -111h-442l-111 111v407l111 109h442l15 -15l14 13v75h108zM606 158v315l-45 45h-352l-45 -45v-313l45 -47h352zM535 903l34 -39l-141 -119l-111 64l-100 -49l-35 39l137 116l109 -63z" />
    <glyph glyph-name="uni1EE2" unicode="&#x1a0;&#x323;" horiz-adv-x="827" 
d="M463 -121v-69l-49 -48h-68l-49 48v69l49 47h68zM608 156v573l-47 45h-350l-45 -45v-571l45 -47h352zM750 958v-120l-48 -47l17 -17v-663l-111 -111h-442l-111 111v663l111 111h442l17 -17l14 15v75h111z" />
    <glyph glyph-name="uni1EE3" unicode="&#x1a1;&#x323;" horiz-adv-x="825" 
d="M743 700v-120l-45 -45l19 -19v-405l-111 -111h-442l-111 111v407l111 109h442l15 -15l14 13v75h108zM606 158v315l-45 45h-352l-45 -45v-313l45 -47h352zM459 -106v-70l-49 -47h-68l-49 47v70l49 47h68z" />
    <glyph glyph-name="uni1EE4" unicode="U&#x323;" horiz-adv-x="792" 
d="M55 883h111v-727l45 -45h315l45 45v727h111v-774l-111 -109h-405l-111 111v772zM451 -121v-69l-50 -48h-67l-49 48v69l49 47h67z" />
    <glyph glyph-name="uni1EE5" unicode="u&#x323;" horiz-adv-x="757" 
d="M535 625h110v-625h-110v111l-111 -111h-258l-111 111v514h111v-469l45 -45h178l146 143v371zM434 -106v-70l-49 -47h-68l-49 47v70l49 47h68z" />
    <glyph glyph-name="uni1EE6" unicode="U&#x309;" horiz-adv-x="790" 
d="M55 883h111v-727l45 -45h315l45 45v727h111v-774l-111 -109h-405l-111 111v772zM424 1188l49 -58v-77l-104 -86l-43 22l73 94v25l-6 6h-28l-72 -49l-47 27l84 96h94z" />
    <glyph glyph-name="uni1EE7" unicode="u&#x309;" horiz-adv-x="755" 
d="M535 625h110v-625h-110v111l-111 -111h-258l-111 111v514h111v-469l45 -45h178l146 143v371zM406 926l49 -58v-77l-105 -86l-43 22l74 94v25l-6 6h-29l-72 -49l-47 26l84 97h95z" />
    <glyph glyph-name="uni1EE8" unicode="&#x1af;&#x301;" horiz-adv-x="942" 
d="M760 958h104v-163l-114 -113h-72v-571l-111 -111h-405l-111 111v774h111v-727l47 -47h313l45 45v729h111v-99h29l53 52v120zM270 967l-39 39l183 182l78 -78z" />
    <glyph glyph-name="uni1EE9" unicode="&#x1b0;&#x301;" horiz-adv-x="897" 
d="M721 698h104v-161l-114 -115h-68v-422h-111v111l-110 -111h-258l-111 111v516h111v-471l45 -45h178l145 143v373h111v-101h25l53 54v118zM258 705l-39 38l182 183l78 -78z" />
    <glyph glyph-name="uni1EEA" unicode="&#x1af;&#x300;" horiz-adv-x="942" 
d="M760 958h104v-163l-114 -113h-72v-571l-111 -111h-405l-111 111v774h111v-727l47 -47h313l45 45v729h111v-99h29l53 52v120zM453 967l-222 143l78 78l183 -182z" />
    <glyph glyph-name="uni1EEB" unicode="&#x1b0;&#x300;" horiz-adv-x="897" 
d="M721 698h104v-161l-114 -115h-68v-422h-111v111l-110 -111h-258l-111 111v516h111v-471l45 -45h178l145 143v373h111v-101h25l53 54v118zM440 705l-221 143l78 78l182 -183z" />
    <glyph glyph-name="uni1EEC" unicode="&#x1af;&#x309;" horiz-adv-x="942" 
d="M760 958h104v-163l-114 -113h-72v-571l-111 -111h-405l-111 111v774h111v-727l47 -47h313l45 45v729h111v-99h29l53 52v120zM418 1188l49 -58v-77l-105 -86l-43 22l74 94v25l-6 6h-29l-71 -49l-47 27l84 96h94z" />
    <glyph glyph-name="uni1EED" unicode="&#x1b0;&#x309;" horiz-adv-x="897" 
d="M721 698h104v-161l-114 -115h-68v-422h-111v111l-110 -111h-258l-111 111v516h111v-471l45 -45h178l145 143v373h111v-101h25l53 54v118zM403 926l50 -58v-77l-105 -86l-43 22l74 94v25l-6 6h-29l-72 -49l-47 26l84 97h94z" />
    <glyph glyph-name="uni1EEE" unicode="&#x1af;&#x303;" horiz-adv-x="942" 
d="M760 958h104v-163l-114 -113h-72v-571l-111 -111h-405l-111 111v774h111v-727l47 -47h313l45 45v729h111v-99h29l53 52v120zM520 1165l35 -39l-141 -118l-111 63l-100 -49l-35 39l137 117l109 -64z" />
    <glyph glyph-name="uni1EEF" unicode="&#x1b0;&#x303;" horiz-adv-x="897" 
d="M721 698h104v-161l-114 -115h-68v-422h-111v111l-110 -111h-258l-111 111v516h111v-471l45 -45h178l145 143v373h111v-101h25l53 54v118zM508 903l35 -39l-142 -119l-110 64l-101 -49l-34 39l137 116l108 -63z" />
    <glyph glyph-name="uni1EF0" unicode="&#x1af;&#x323;" horiz-adv-x="942" 
d="M760 958h104v-163l-114 -113h-72v-571l-111 -111h-405l-111 111v774h111v-727l47 -47h313l45 45v729h111v-99h29l53 52v120zM444 -121v-69l-49 -48h-67l-49 48v69l49 47h67z" />
    <glyph glyph-name="uni1EF1" unicode="&#x1b0;&#x323;" horiz-adv-x="897" 
d="M721 698h104v-161l-114 -115h-68v-422h-111v111l-110 -111h-258l-111 111v516h111v-471l45 -45h178l145 143v373h111v-101h25l53 54v118zM432 -106v-70l-49 -47h-68l-49 47v70l49 47h68z" />
    <glyph glyph-name="Ygrave" unicode="Y&#x300;" horiz-adv-x="792" 
d="M569 883h111v-277l-258 -203v-403h-111v406l-258 202v275h111v-221l203 -160l202 160v221zM459 967l-221 143l77 78l183 -182z" />
    <glyph glyph-name="ygrave" unicode="y&#x300;" horiz-adv-x="790" 
d="M680 625v-775l-111 -108h-221v111h176l45 45v213l-110 -111h-295l-111 111v514h111v-469l45 -45h217l143 143v371h111zM459 705l-221 143l77 78l183 -183z" />
    <glyph glyph-name="uni1EF4" unicode="Y&#x323;" horiz-adv-x="792" 
d="M569 883h111v-277l-258 -203v-403h-111v406l-258 202v275h111v-221l203 -160l202 160v221zM451 -121v-69l-50 -48h-67l-49 48v69l49 47h67z" />
    <glyph glyph-name="uni1EF5" unicode="y&#x323;" horiz-adv-x="1060" 
d="M680 625v-775l-111 -108h-221v111h176l45 45v213l-110 -111h-295l-111 111v514h111v-469l45 -45h217l143 143v371h111zM956 -106v-70l-49 -47h-67l-49 47v70l49 47h67z" />
    <glyph glyph-name="uni1EF6" unicode="Y&#x309;" horiz-adv-x="792" 
d="M569 883h111v-277l-258 -203v-403h-111v406l-258 202v275h111v-221l203 -160l202 160v221zM422 1188l49 -58v-77l-104 -86l-43 22l73 94v25l-6 6h-29l-71 -49l-47 27l84 96h94z" />
    <glyph glyph-name="uni1EF7" unicode="y&#x309;" horiz-adv-x="790" 
d="M680 625v-775l-111 -108h-221v111h176l45 45v213l-110 -111h-295l-111 111v514h111v-469l45 -45h217l143 143v371h111zM422 926l49 -58v-77l-104 -86l-43 22l73 94v25l-6 6h-29l-71 -49l-47 26l84 97h94z" />
    <glyph glyph-name="uni1EF8" unicode="Y&#x303;" horiz-adv-x="792" 
d="M569 883h111v-277l-258 -203v-403h-111v406l-258 202v275h111v-221l203 -160l202 160v221zM526 1165l35 -39l-141 -118l-111 63l-100 -49l-35 39l137 117l109 -64z" />
    <glyph glyph-name="uni1EF9" unicode="y&#x303;" horiz-adv-x="790" 
d="M680 625v-775l-111 -108h-221v111h176l45 45v213l-110 -111h-295l-111 111v514h111v-469l45 -45h217l143 143v371h111zM526 903l35 -39l-141 -119l-111 64l-100 -49l-35 39l137 116l109 -63z" />
    <glyph glyph-name="uni0E4F.liga" unicode="&#xe4f;&#x22;" horiz-adv-x="794" 
d="M578 211v168l-119 119h-168l-119 -119v-168l119 -119h168zM496 590l174 -174v-244l-174 -172h-244l-172 172v244l172 174h244zM430 272v45l-33 33h-45l-33 -33v-45l33 -32h45zM313 442h123l86 -86v-123l-86 -86h-123l-86 86v123zM403 819h111l-18 -184h-74zM256 635
l-18 184h110l-18 -184h-74z" />
    <glyph glyph-name="uni0E24.liga" unicode="&#xe24;&#xe32;" horiz-adv-x="1308" 
d="M262 201h-45l-33 -31v-47l33 -31h45l33 31v47zM1198 -369h-111v1022l-45 45h-278l-45 -45v-1022h-111v1022l-45 45h-350l119 -118l-129 -127v-160h98l86 -86v-121l-86 -86h-123l-86 86v412l84 82l-121 120l111 109h442l56 -55l55 55h368l111 -109v-1069z" />
    <glyph glyph-name="uni0E26.liga" unicode="&#xe26;&#xe32;" horiz-adv-x="1419" 
d="M221 123v47l-33 31h-45l-32 -31v-47l32 -31h45zM1309 -369h-111v1022l-45 45h-279l-45 -45v-1022h-110v1022l-45 45h-350l118 -118l-129 -127v-367l-86 -86h-123l-86 86v121l86 86h99v205l82 82l-119 120l110 109h443l55 -55l55 55h369l111 -109v-1069z" />
    <glyph glyph-name="fi" unicode="fi" horiz-adv-x="532" 
d="M164 571h258v-571h-111v461h-147v-461h-111v774l111 109h184v-111h-139l-45 -45v-156z" />
    <glyph glyph-name="fl" unicode="fl" horiz-adv-x="532" 
d="M422 883v-883h-111v772h-102l-45 -45v-156h92v-110h-92v-461h-111v774l111 109h258z" />
    <glyph glyph-name="CHAKRA" unicode="CHAKRADeign&#x28;c&#x29;" horiz-adv-x="2902" 
d="M2038 276v-276h-72v256h-45v-256h-72v256h-20v20h209zM1491 311v27h209v-27h-209zM1792 322v-322h-164l-20 256h-15l-20 -256h-164v256h-27v20h93v-256h26l21 256h153l21 -256h24v302h72zM1348 276v-276h-68v256h-45v20h113zM1198 0h-96v20h24v189h-45v67h117v-20h-45
v-27h45v-229zM1044 276v-276h-71v256h-45v-256h-72v256h-20v20h208zM2791 373h-20v-15h-102v15h-175v385h-36v35h139v-383h72v383h102v-383h20v-37zM2402 793v-420h-102v385h-72v35h174zM2191 373h-14v-15h-109v15h-174v385h-34v35h143v-383h65v383h109v-383h14v-37z
M1808 864v-491h-245l-31 317h-41v-280h35v-37h-137v354h245l31 -317h35v348h-311v35h311v71h108zM1331 373h-137v37h35v280h-72v103h174v-35h-65v-31h65v-354zM1106 670v-297h-281v385h-37v35h144v-383h67v260h-36v37h36v86h107v-86h37v-37h-37zM737 793v-420h-106v385h-68
v-385h-106v385h-37v35h317zM471 881v-31h-209v65h107v-34h102zM369 373h-281v354h143v-37h-36v-280h67v348h-174v35h281v-420z" />
    <glyph glyph-name=".notdef" horiz-adv-x="825" 
d="M606 111v958h-442v-958h442zM715 0h-662v1180h662v-1180z" />
    <glyph glyph-name=".null" 
 />
    <glyph glyph-name="nonmarkingreturn" horiz-adv-x="452" 
 />
    <glyph glyph-name="space" unicode=" " horiz-adv-x="497" 
 />
    <glyph glyph-name="exclam" unicode="!" horiz-adv-x="301" 
d="M172 182h-92l-19 701h129zM98 127h54l38 -37v-53l-38 -37h-54l-37 37v53z" />
    <glyph glyph-name="quotedbl" unicode="&#x22;" horiz-adv-x="442" 
d="M221 885h111l-19 -185h-73zM74 700l-19 185h111l-19 -185h-73z" />
    <glyph glyph-name="numbersign" unicode="#" horiz-adv-x="761" 
d="M401 274l19 185h-111l-18 -185h110zM641 459h-111l-20 -185h111l-11 -110h-110l-19 -164h-110l18 164h-110l-19 -164h-110l18 164h-111l13 110h110l19 185h-111l12 110h111l16 166h111l-16 -166h110l17 166h110l-16 -166h110z" />
    <glyph glyph-name="dollar" unicode="$" horiz-adv-x="788" 
d="M422 0v-74h-111v74h-129l-110 109v92h110v-45l45 -45h297l45 45v147l-45 45h-360l-111 111v241l111 109h147v74h111v-74h129l111 -111v-92h-111v47l-45 45h-297l-45 -45v-147l45 -47h360l111 -109v-241l-111 -109h-147z" />
    <glyph glyph-name="percent" unicode="%" horiz-adv-x="944" 
d="M637 883h127l-502 -883h-127zM743 197v84l-32 30h-82l-33 -30v-84l33 -31h82zM750 403l86 -86v-157l-86 -86h-160l-86 86v157l86 86h160zM154 686v-84l32 -31h82l33 31v84l-33 31h-82zM307 477h-160l-86 86v160l86 86h160l86 -86v-160z" />
    <glyph glyph-name="ampersand" unicode="&#x26;" horiz-adv-x="862" 
d="M567 385h-360l-45 -45v-184l45 -47h315l45 47v229zM752 496v-111h-74v-276l-111 -109h-405l-111 109v276l74 74l-37 37v278l111 109h331l111 -111v-92h-111v47l-45 45h-241l-45 -45v-184l45 -47h323v55h111v-55h74z" />
    <glyph glyph-name="quotesingle" unicode="'" horiz-adv-x="278" 
d="M74 700l-19 185h111l-19 -185h-73z" />
    <glyph glyph-name="parenleft" unicode="(" horiz-adv-x="382" 
d="M274 -35v-110h-110l-111 108v959l111 110h110v-110h-65l-45 -45v-867l45 -45h65z" />
    <glyph glyph-name="parenright" unicode=")" horiz-adv-x="329" 
d="M0 -145v110h66l45 45v867l-45 45h-66v110h111l110 -110v-959l-110 -108h-111z" />
    <glyph glyph-name="asterisk" unicode="*" horiz-adv-x="505" 
d="M395 684l-55 -96l-70 51l9 -86h-111l8 86l-67 -51l-56 96l78 35l-78 35l56 96l67 -49l-8 84h111l-9 -84l70 49l55 -96l-78 -35z" />
    <glyph glyph-name="plus" unicode="+" horiz-adv-x="899" 
d="M772 498v-111h-295v-295h-110v295h-295v111h295v293h110v-293h295z" />
    <glyph glyph-name="comma" unicode="," horiz-adv-x="352" 
d="M244 129v-76l-111 -164h-74l62 111h-8l-54 53v76l54 53h75z" />
    <glyph glyph-name="hyphen" unicode="-" horiz-adv-x="569" 
d="M461 276h-406v111h406v-111z" />
    <glyph glyph-name="period" unicode="." horiz-adv-x="352" 
d="M242 129v-76l-56 -53h-75l-54 53v76l54 53h75z" />
    <glyph glyph-name="slash" unicode="/" horiz-adv-x="737" 
d="M502 885h127l-502 -885h-127z" />
    <glyph glyph-name="zero" unicode="0" horiz-adv-x="751" 
d="M532 156v573l-47 45h-276l-45 -45v-571l45 -47h278zM532 885l111 -111v-663l-111 -111h-368l-111 111v663l111 111h368z" />
    <glyph glyph-name="one" unicode="1" horiz-adv-x="415" 
d="M305 885v-885h-110v729l-52 -51l-77 78l129 129h110z" />
    <glyph glyph-name="two" unicode="2" horiz-adv-x="751" 
d="M639 111v-111h-590v203l461 405v121l-45 45h-260l-45 -45v-45h-111v90l111 111h350l111 -111v-203l-461 -405v-55h479z" />
    <glyph glyph-name="three" unicode="3" horiz-adv-x="751" 
d="M53 203h111v-47l45 -45h278l45 45v223l-45 45h-249v111h249l45 45v147l-45 45h-260l-45 -45v-45h-110v90l110 111h350l111 -111v-240l-55 -53l55 -55v-313l-111 -111h-368l-111 111v92z" />
    <glyph glyph-name="four" unicode="4" horiz-adv-x="733" 
d="M164 240h295v534h-21l-274 -489v-45zM625 240v-111h-56v-129h-110v129h-406v166l332 590h184v-645h56z" />
    <glyph glyph-name="five" unicode="5" horiz-adv-x="753" 
d="M53 205h111v-47l45 -47h276l45 45v260l-45 45h-432v424h551v-111h-440v-203h368l109 -108v-352l-109 -111h-368l-111 111v94z" />
    <glyph glyph-name="six" unicode="6" horiz-adv-x="753" 
d="M530 156v260l-45 47h-278l-45 -45v-260l47 -47h276zM623 684h-111v45l-45 45h-260l-45 -45v-156h368l111 -110v-352l-109 -111h-370l-111 111v663l111 111h350l111 -111v-90z" />
    <glyph glyph-name="seven" unicode="7" horiz-adv-x="757" 
d="M55 885h590v-277l-239 -188v-420h-111v461l240 190v123h-369v-90h-111v201z" />
    <glyph glyph-name="eight" unicode="8" horiz-adv-x="753" 
d="M530 156v223l-45 45h-278l-45 -45v-221l45 -47h278zM199 729v-149l45 -45h205l45 45v149l-45 45h-205zM567 498l74 -74v-313l-111 -111h-368l-111 111v315l74 72l-37 37v239l111 111h295l110 -111v-239z" />
    <glyph glyph-name="nine" unicode="9" horiz-adv-x="753" 
d="M530 471v258l-45 45h-278l-45 -45v-258l47 -45h276zM51 205h111v-47l47 -47h276l45 45v159h-368l-111 111v348l111 111h368l111 -111v-663l-109 -111h-370l-111 111v94z" />
    <glyph glyph-name="colon" unicode=":" horiz-adv-x="352" 
d="M188 553l56 -55v-76l-56 -53h-75l-54 53v76l54 55h75zM113 184h75l56 -55v-76l-56 -53h-75l-54 53v76z" />
    <glyph glyph-name="semicolon" unicode=";" horiz-adv-x="352" 
d="M113 184h75l56 -55v-76l-111 -164h-74l62 111h-8l-54 53v76zM188 553l56 -55v-76l-56 -53h-75l-54 53v76l54 55h75z" />
    <glyph glyph-name="less" unicode="&#x3c;" horiz-adv-x="862" 
d="M735 737v-121l-520 -245l520 -248v-121l-663 313v111z" />
    <glyph glyph-name="equal" unicode="=" horiz-adv-x="899" 
d="M74 258v111h698v-111h-698zM74 627h698v-111h-698v111z" />
    <glyph glyph-name="greater" unicode="&#x3e;" horiz-adv-x="862" 
d="M72 737l663 -311v-111l-663 -313v121l522 248l-522 245v121z" />
    <glyph glyph-name="question" unicode="?" horiz-adv-x="753" 
d="M322 129h53l39 -37v-53l-39 -39h-53l-37 39v53zM403 184h-110v240l239 199v106l-47 45h-276l-45 -45v-47h-111v92l111 111h368l111 -111v-203l-240 -198v-189z" />
    <glyph glyph-name="at" unicode="@" horiz-adv-x="972" 
d="M467 203l100 100v37l-45 47h-131l-45 -45v-94l47 -45h74zM567 92v55l-55 -55h-166l-110 111v184l110 111h221l111 -111v-184h29l45 45v184l-156 158h-277l-157 -158v-276l157 -156h469v-111h-516l-221 222v366l223 221h367l221 -221v-274l-110 -111h-185z" />
    <glyph glyph-name="A" unicode="A" horiz-adv-x="788" 
d="M166 350h403v115l-190 307h-23l-190 -307v-115zM680 0h-111v240h-403v-240h-111v496l240 387h145l240 -387v-496z" />
    <glyph glyph-name="B" unicode="B" horiz-adv-x="753" 
d="M166 387v-276h323l46 45v184l-46 47h-323zM166 772v-274h287l45 45v184l-45 45h-287zM55 0v883h443l110 -111v-276l-37 -37l74 -72v-278l-110 -109h-480z" />
    <glyph glyph-name="C" unicode="C" horiz-adv-x="788" 
d="M680 680h-111v47l-45 45h-315l-45 -45v-571l45 -45h315l45 45v47h111v-94l-111 -109h-405l-111 111v663l111 109h405l111 -111v-92z" />
    <glyph glyph-name="D" unicode="D" horiz-adv-x="788" 
d="M162 772v-661h360l45 45v571l-45 45h-360zM51 0v883h516l111 -111v-661l-111 -111h-516z" />
    <glyph glyph-name="E" unicode="E" horiz-adv-x="753" 
d="M164 498h442v-111h-442v-231l45 -45h434v-111h-479l-111 111v661l111 111h479v-111h-434l-45 -45v-229z" />
    <glyph glyph-name="F" unicode="F" horiz-adv-x="753" 
d="M166 498h440v-111h-440v-387h-111v772l111 111h477v-111h-432l-45 -45v-229z" />
    <glyph glyph-name="G" unicode="G" horiz-adv-x="790" 
d="M680 680h-111v47l-45 45h-313l-47 -45v-571l47 -45h313l45 45v231h-221v111h332v-389l-109 -109h-407l-109 111v663l109 109h405l111 -111v-92z" />
    <glyph glyph-name="H" unicode="H" horiz-adv-x="788" 
d="M567 883h111v-883h-111v387h-403v-387h-111v883h111v-385h403v385z" />
    <glyph glyph-name="I" unicode="I" horiz-adv-x="274" 
d="M53 0v883h111v-883h-111z" />
    <glyph glyph-name="J" unicode="J" horiz-adv-x="716" 
d="M164 258v-102l47 -45h240l45 45v727h110v-774l-110 -109h-332l-111 111v147h111z" />
    <glyph glyph-name="K" unicode="K" horiz-adv-x="788" 
d="M567 883h111v-256l-186 -185l186 -186v-256h-111v223l-164 164h-241v-387h-111v883h111v-385h241l164 161v224z" />
    <glyph glyph-name="L" unicode="L" horiz-adv-x="716" 
d="M164 111h442v-111h-553v883h111v-772z" />
    <glyph glyph-name="M" unicode="M" horiz-adv-x="1013" 
d="M901 883v-883h-108v602l-258 -602h-111l-258 602v-602h-111v883h111l313 -731l314 731h108z" />
    <glyph glyph-name="N" unicode="N" horiz-adv-x="790" 
d="M569 883h111v-883h-113l-403 670v-670h-111v883h111l405 -672v672z" />
    <glyph glyph-name="O" unicode="O" horiz-adv-x="827" 
d="M606 156v571l-45 45h-352l-45 -45v-571l45 -45h352zM606 883l111 -111v-663l-111 -109h-442l-111 111v663l111 109h442z" />
    <glyph glyph-name="P" unicode="P" horiz-adv-x="753" 
d="M164 772v-274h321l45 45v184l-45 45h-321zM164 387v-387h-111v883h479l109 -111v-276l-109 -109h-368z" />
    <glyph glyph-name="Q" unicode="Q" horiz-adv-x="829" 
d="M166 156l45 -45h352l45 45v571l-45 45h-352l-45 -45v-571zM756 -39l-72 -72l-111 111h-407l-111 111v663l111 109h442l111 -111v-663l-55 -56z" />
    <glyph glyph-name="R" unicode="R" horiz-adv-x="751" 
d="M164 772v-274h323l45 45v184l-45 45h-323zM643 0h-111v340l-45 47h-323v-387h-111v883h479l111 -111v-276l-55 -56l55 -53v-387z" />
    <glyph glyph-name="S" unicode="S" horiz-adv-x="790" 
d="M72 203h110v-47l45 -45h297l45 45v221l-45 47h-360l-111 108v242l111 109h387l111 -111v-92h-111v47l-45 45h-297l-45 -45v-147l45 -45h360l111 -111v-315l-111 -109h-387l-110 111v92z" />
    <glyph glyph-name="T" unicode="T" horiz-adv-x="792" 
d="M682 883v-111h-256v-772h-111v772h-258v111h625z" />
    <glyph glyph-name="U" unicode="U" horiz-adv-x="794" 
d="M55 883h111v-727l45 -45h315l45 45v727h111v-774l-111 -109h-405l-111 111v772z" />
    <glyph glyph-name="V" unicode="V" horiz-adv-x="790" 
d="M569 883h111v-496l-240 -387h-147l-240 387v496h111v-463l190 -309h23l192 309v463z" />
    <glyph glyph-name="W" unicode="W" horiz-adv-x="1083" 
d="M864 883h111v-498l-184 -385h-148l-129 270l-129 -270h-147l-185 387v496h111v-471l147 -310l148 308v473h110v-471l148 -310l147 308v473z" />
    <glyph glyph-name="X" unicode="X" horiz-adv-x="790" 
d="M569 883h111v-254l-186 -187l186 -186v-256h-111v223l-163 164h-78l-164 -164v-223h-111v256l187 186l-187 187v254h111v-221l164 -164h78l163 164v221z" />
    <glyph glyph-name="Y" unicode="Y" horiz-adv-x="790" 
d="M569 883h111v-277l-258 -203v-403h-111v406l-258 202v275h111v-221l203 -160l202 160v221z" />
    <glyph glyph-name="Z" unicode="Z" horiz-adv-x="790" 
d="M55 883h625v-201l-514 -526v-45h514v-111h-625v203l514 524v45h-514v111z" />
    <glyph glyph-name="bracketleft" unicode="[" horiz-adv-x="387" 
d="M276 922h-110v-957h110v-110h-221v1177h221v-110z" />
    <glyph glyph-name="backslash" unicode="\" horiz-adv-x="737" 
d="M0 883h127l502 -883h-127z" />
    <glyph glyph-name="bracketright" unicode="]" horiz-adv-x="329" 
d="M0 1032h221v-1177h-221v110h111v957h-111v110z" />
    <glyph glyph-name="asciicircum" unicode="^" horiz-adv-x="909" 
d="M504 885l293 -588h-123l-240 477h-12l-240 -477h-123l295 588h150z" />
    <glyph glyph-name="underscore" unicode="_" horiz-adv-x="794" 
d="M684 -201h-627v111h627v-111z" />
    <glyph glyph-name="grave" unicode="`" horiz-adv-x="337" 
d="M154 702l-111 183h129l55 -183h-73z" />
    <glyph glyph-name="a" unicode="a" horiz-adv-x="794" 
d="M573 276h-358l-47 -47v-73l47 -45h215l143 143v22zM684 0h-111v111l-110 -111h-295l-111 111v165l111 111h405v82l-45 45h-313l-47 -45v-47h-111v94l111 109h405l111 -109v-516z" />
    <glyph glyph-name="b" unicode="b" horiz-adv-x="794" 
d="M528 111l45 45v313l-45 45h-215l-143 -143v-215l45 -45h313zM59 883h111v-369l109 111h294l111 -109v-407l-109 -109h-405l-111 111v772z" />
    <glyph glyph-name="c" unicode="c" horiz-adv-x="792" 
d="M682 422h-111v47l-45 45h-315l-45 -45v-313l47 -45h313l45 45v47h111v-94l-109 -109h-407l-111 111v405l111 109h405l111 -109v-94z" />
    <glyph glyph-name="d" unicode="d" horiz-adv-x="792" 
d="M526 111l45 45v215l-143 143h-215l-47 -45v-313l45 -45h315zM571 883h111v-772l-111 -111h-405l-111 109v407l111 109h295l110 -111v369z" />
    <glyph glyph-name="e" unicode="e" horiz-adv-x="790" 
d="M166 387h405v82l-45 45h-315l-45 -45v-82zM682 276h-516v-120l45 -45h315l45 45v47h111v-94l-111 -109h-405l-111 111v405l111 109h405l111 -109v-240z" />
    <glyph glyph-name="f" unicode="f" horiz-adv-x="458" 
d="M166 569h184v-110h-184v-459h-111v774l109 109h186v-111h-139l-45 -45v-158z" />
    <glyph glyph-name="g" unicode="g" horiz-adv-x="798" 
d="M436 111l144 143v215l-45 45h-316l-45 -45v-313l47 -45h215zM358 -258v111h177l45 45v213l-111 -111h-295l-108 111l-3 405l111 109h406l110 -109v-666l-110 -108h-222z" />
    <glyph glyph-name="h" unicode="h" horiz-adv-x="759" 
d="M649 0h-110v469l-45 45h-179l-145 -143v-371h-111v883h111v-369l111 111h258l110 -109v-516z" />
    <glyph glyph-name="i" unicode="i" horiz-adv-x="280" 
d="M141 803l39 -37v-53l-39 -39h-53l-37 39v53l37 37h53zM59 0v625h111v-625h-111z" />
    <glyph glyph-name="j" unicode="j" horiz-adv-x="348" 
d="M209 803l39 -37v-53l-39 -39h-53l-37 39v53l37 37h53zM127 625h111v-775l-111 -108h-221v111h176l45 45v727z" />
    <glyph glyph-name="k" unicode="k" horiz-adv-x="759" 
d="M541 625h110v-127l-186 -185l186 -186v-127h-110v94l-164 164h-205v-258h-111v883h111v-514h205l164 161v95z" />
    <glyph glyph-name="l" unicode="l" horiz-adv-x="280" 
d="M61 0v883h111v-883h-111z" />
    <glyph glyph-name="m" unicode="m" horiz-adv-x="1015" 
d="M903 0h-110v469l-45 45h-166l-45 -45v-469h-111v469l-47 45h-68l-143 -143v-371h-111v625h111v-111l111 111h147l53 -54l56 54h260l108 -109v-516z" />
    <glyph glyph-name="n" unicode="n" horiz-adv-x="755" 
d="M645 0h-110v469l-46 45h-178l-145 -143v-371h-111v625h111v-111l110 111h259l110 -109v-516z" />
    <glyph glyph-name="o" unicode="o" horiz-adv-x="821" 
d="M586 156v315l-47 45h-314l-45 -45v-313l45 -47h316zM586 627l110 -111v-405l-110 -111h-406l-110 111v405l110 111h406z" />
    <glyph glyph-name="p" unicode="p" horiz-adv-x="788" 
d="M164 111h360l45 45v313l-45 45h-315l-45 -45v-358zM164 0v-258h-111v774l111 109h405l111 -109v-407l-111 -109h-405z" />
    <glyph glyph-name="q" unicode="q" horiz-adv-x="790" 
d="M569 111v358l-45 45h-313l-47 -45v-313l47 -45h358zM680 -258h-111v258h-405l-109 109v407l109 109h407l109 -109v-774z" />
    <glyph glyph-name="r" unicode="r" horiz-adv-x="604" 
d="M496 514h-189l-143 -143v-371h-111v625h111v-111l110 111h222v-111z" />
    <glyph glyph-name="s" unicode="s" horiz-adv-x="790" 
d="M74 203h110v-47l45 -45h295l45 45v55l-45 47h-358l-111 109v149l109 109h389l109 -109v-94h-111v47l-45 45h-295l-45 -45v-55l45 -45h360l109 -111v-149l-109 -109h-387l-110 111v92z" />
    <glyph glyph-name="t" unicode="t" horiz-adv-x="454" 
d="M346 532h-180v-376l45 -45h135v-111h-182l-109 109v774h111v-240h180v-111z" />
    <glyph glyph-name="u" unicode="u" horiz-adv-x="753" 
d="M535 625h110v-625h-110v111l-111 -111h-258l-111 111v514h111v-469l45 -45h178l146 143v371z" />
    <glyph glyph-name="v" unicode="v" horiz-adv-x="720" 
d="M500 625h108v-367l-200 -258h-148l-203 258v367h111v-359l137 -174h55l140 174v359z" />
    <glyph glyph-name="w" unicode="w" horiz-adv-x="1013" 
d="M793 625h110v-367l-168 -258h-145l-111 170l-110 -170h-148l-166 258v367h111v-369l94 -145h70l94 145v369h111v-371l92 -143h71l95 145v369z" />
    <glyph glyph-name="x" unicode="x" horiz-adv-x="790" 
d="M571 625h111v-127l-186 -185l186 -186v-127h-111v94l-163 164h-78l-164 -164v-94h-111v127l187 186l-187 185v127h111v-95l164 -161h78l163 161v95z" />
    <glyph glyph-name="y" unicode="y" horiz-adv-x="790" 
d="M680 625v-775l-111 -108h-221v111h176l45 45v213l-110 -111h-295l-111 111v514h111v-469l45 -45h217l143 143v371h111z" />
    <glyph glyph-name="z" unicode="z" horiz-adv-x="780" 
d="M45 625h627v-166l-498 -322v-26h498v-111h-627v166l498 319v29h-498v111z" />
    <glyph glyph-name="braceleft" unicode="{" horiz-adv-x="501" 
d="M391 -33v-110h-110l-111 110v369l-111 110l111 111v369l111 110h110v-110h-65l-45 -45v-369l-66 -66l66 -63v-369l45 -47h65z" />
    <glyph glyph-name="bar" unicode="|" horiz-adv-x="274" 
d="M55 -254v1327h111v-1327h-111z" />
    <glyph glyph-name="braceright" unicode="}" horiz-adv-x="440" 
d="M0 -143v110h63l48 47v367l63 65l-63 66v369l-48 45h-63v110h111l110 -110v-369l109 -111l-109 -110v-369l-110 -110h-111z" />
    <glyph glyph-name="asciitilde" unicode="~" horiz-adv-x="794" 
d="M575 649h111v-110l-111 -111h-110l-213 111h-37l-45 -45v-66h-111v111l111 110h111l211 -110h38l45 45v65z" />
    <glyph glyph-name="nonbreakingspace" unicode="&#xa0;" horiz-adv-x="450" 
 />
    <glyph glyph-name="exclamdown" unicode="&#xa1;" horiz-adv-x="296" 
d="M76 442h92l18 -700h-129zM150 627l36 -39v-53l-36 -37h-54l-39 37v53l39 39h54z" />
    <glyph glyph-name="cent" unicode="&#xa2;" horiz-adv-x="716" 
d="M606 608h-110v47l-45 45h-242l-45 -45v-499l45 -45h242l45 45v47h110v-92l-110 -111h-111v-74h-111v74h-110l-111 111v589l111 111h110v74h111v-74h111l110 -111v-92z" />
    <glyph glyph-name="sterling" unicode="&#xa3;" horiz-adv-x="825" 
d="M717 111v-111h-664v111l148 147v129h-148v111h148v276l110 111h258l111 -111v-92h-111v47l-45 45h-168l-45 -45v-231h148v-111h-148v-174l-100 -102h506z" />
    <glyph glyph-name="currency" unicode="&#xa4;" horiz-adv-x="792" 
d="M211 258h313l45 45v279l-45 45h-313l-47 -45v-279zM680 258l-29 -29l66 -65l-72 -72l-65 66l-9 -11h-407l-10 11l-64 -66l-72 72l64 65l-27 29v369l27 28l-64 66l72 72l64 -66l10 10h405l11 -10l65 66l72 -72l-66 -66l29 -28v-369z" />
    <glyph glyph-name="yen" unicode="&#xa5;" horiz-adv-x="790" 
d="M569 885h111v-277l-164 -129h90v-110h-184v-74h184v-111h-184v-184h-111v184h-184v111h184v74h-184v110h90l-164 129v277h111v-223l203 -160l202 160v223z" />
    <glyph glyph-name="brokenbar" unicode="&#xa6;" horiz-adv-x="274" 
d="M51 -256v627h111v-627h-111zM51 1032h111v-590h-111v590z" />
    <glyph glyph-name="section" unicode="&#xa7;" horiz-adv-x="718" 
d="M211 313h240l45 45v93l-45 47h-242l-45 -47v-93zM90 129h111v-47l45 -45h205l45 45v74l-45 47h-287l-111 110v185l56 55l-56 53v168l111 109h295l110 -109v-94h-110v47l-45 45h-205l-45 -45v-74l45 -45h287l110 -110v-187l-55 -53l55 -55v-168l-110 -109h-295l-111 111
v92z" />
    <glyph glyph-name="dieresis" unicode="&#xa8;" horiz-adv-x="606" 
d="M123 1128h67l50 -49v-69l-50 -47h-67l-49 47v69zM430 1128l49 -49v-69l-49 -47h-68l-49 47v69l49 49h68z" />
    <glyph glyph-name="copyright" unicode="&#xa9;" horiz-adv-x="911" 
d="M709 221v293l-131 129h-293l-129 -129v-293l131 -129h291zM616 735l185 -182v-369l-185 -184h-368l-185 184v369l185 182h368zM653 406h-92v45l-45 45h-168l-45 -45v-166l45 -45h168l45 45v47h92v-76l-110 -109h-221l-111 109v223l111 109h221l110 -109v-73z" />
    <glyph glyph-name="ordfeminine" unicode="&#xaa;" horiz-adv-x="636" 
d="M442 551h-274l-35 -35v-55l35 -35h166l108 109v16zM526 342h-84v84l-84 -84h-225l-84 84v127l84 84h309v63l-34 35h-240l-35 -35v-36h-84v71l84 84h309l84 -84v-393z" />
    <glyph glyph-name="guillemotleft" unicode="&#xab;" horiz-adv-x="649" 
d="M539 618v-151l-119 -109l119 -106v-152l-222 205v109zM59 305v109l222 204v-151l-117 -109l117 -106v-152z" />
    <glyph glyph-name="logicalnot" unicode="&#xac;" horiz-adv-x="831" 
d="M59 498h664v-314h-111v203h-553v111z" />
    <glyph glyph-name="registered" unicode="&#xae;" horiz-adv-x="714" 
d="M303 698v-59h66l30 31l-13 13q-13 13 -17 15h-66zM457 504h-58v47l-30 31h-66v-76h-57v250h147l64 -64v-45q-6 -8 -15 -16l-20 -21l35 -35v-71zM530 555v160l-112 112h-160l-115 -112v-160l115 -115h160zM604 745v-221l-155 -155h-222l-157 155v221l157 156h222z" />
    <glyph glyph-name="macron" unicode="&#xaf;" horiz-adv-x="456" 
d="M365 932h-293v110h293v-110z" />
    <glyph glyph-name="degree" unicode="&#xb0;" horiz-adv-x="532" 
d="M311 670v57l-45 45h-57l-45 -45v-55l47 -47h55zM311 883l111 -111v-147l-109 -111h-149l-111 111v149l111 109h147z" />
    <glyph glyph-name="plusminus" unicode="&#xb1;" horiz-adv-x="899" 
d="M772 350h-295v-239h295v-111h-698v111h293v239h-293v111h293v276h110v-276h295v-111z" />
    <glyph glyph-name="twosuperior" unicode="&#xb2;" horiz-adv-x="514" 
d="M139 451h267v-86h-353v131q93 78 256 227v55q-17 17 -18 19h-133l-19 -19v-33h-86v70l68 68h207l67 -68v-125l-256 -227v-12z" />
    <glyph glyph-name="threesuperior" unicode="&#xb3;" horiz-adv-x="514" 
d="M150 745h-89v70l70 68h207l68 -68v-145l-25 -25l25 -24v-187l-68 -69h-217l-70 69v70h88v-33q17 -17 19 -18h143l18 16v115l-18 18h-145v86h145q13 6 18 19v71l-18 19h-133l-18 -19v-33z" />
    <glyph glyph-name="acute" unicode="&#xb4;" horiz-adv-x="290" 
d="M-4 932l55 184h129l-110 -184h-74z" />
    <glyph glyph-name="mu" unicode="&#xb5;" horiz-adv-x="753" 
d="M532 625h111v-625h-111v111l-110 -111h-258v-258h-111v883h111v-469l45 -45h180l143 143v371z" />
    <glyph glyph-name="paragraph" unicode="&#xb6;" horiz-adv-x="628" 
d="M352 883v-1141h-110v717h-62l-123 125v176l123 123h172zM406 883h110v-1141h-110v1141z" />
    <glyph glyph-name="periodcentered" unicode="&#xb7;" horiz-adv-x="352" 
d="M242 481v-75l-54 -54h-75l-56 54v75l56 54h75z" />
    <glyph glyph-name="cedilla" unicode="&#xb8;" horiz-adv-x="419" 
d="M72 -348v90h102l29 27v38l-29 27h-102v57l133 146l47 -33l-39 -78l80 -80v-114l-80 -80h-141z" />
    <glyph glyph-name="onesuperior" unicode="&#xb9;" horiz-adv-x="321" 
d="M213 883v-518h-86v389l-16 -17l-62 62l86 84h78z" />
    <glyph glyph-name="ordmasculine" unicode="&#xba;" horiz-adv-x="532" 
d="M311 653l-45 45h-57l-45 -45v-55l47 -47h55l45 45v57zM422 698v-147l-109 -111h-149l-111 111v149l111 109h147z" />
    <glyph glyph-name="guillemotright" unicode="&#xbb;" horiz-adv-x="647" 
d="M59 100v152l117 106l-117 109v151l222 -204v-109zM537 414v-109l-220 -205v152l117 106l-117 109v151z" />
    <glyph glyph-name="onequarter" unicode="&#xbc;" horiz-adv-x="974" 
d="M756 885l-500 -885h-129l502 885h127zM592 160h139v256q-12 -24 -120 -213l-19 -35v-8zM848 160v-88h-31v-72h-86v72h-227v108l190 338h123v-358h31zM236 887v-518h-86v389l-17 -17l-61 62l86 84h78z" />
    <glyph glyph-name="onehalf" unicode="&#xbd;" horiz-adv-x="1138" 
d="M793 885l-500 -885h-127l500 885h127zM745 86h267v-86h-355l2 127v4q72 61 127 113q25 20 47.5 40.5t41 37t40.5 36.5v56l-18 18h-133l-19 -18v-33h-88v70l70 67h207l67 -67v-125q-160 -140 -256 -228v-12zM238 887v-518h-88v389q-2 -4 -3.5 -4.5t-11.5 -12.5l-61 62
l86 84h78z" />
    <glyph glyph-name="threequarters" unicode="&#xbe;" horiz-adv-x="1161" 
d="M944 885l-502 -885h-127l502 885h127zM776 160h139v256q-10 -20 -55 -99t-64 -114l-20 -35v-8zM1034 160v-88h-30v-72h-89v72h-225v108l191 338h123v-358h30zM61 506h89v-33l18 -18h143l19 18v115l-19 16h-145v88h145q4 2 19 17v73l-19 17h-133q-2 -1 -18 -17v-32h-88v67
l69 70h207l68 -70v-143l-25 -25q1 -2 25 -26v-185l-68 -69h-217l-70 69v68z" />
    <glyph glyph-name="questiondown" unicode="&#xbf;" horiz-adv-x="753" 
d="M373 496h-54l-36 39v53l36 37h54l39 -37v-53zM530 -55h111v-95l-109 -108h-368l-111 111v202l240 199v186h108v-237l-237 -201v-104l45 -45h276l45 45v47z" />
    <glyph glyph-name="Acircumflex" unicode="&#xc2;" horiz-adv-x="788" 
d="M166 350h403v115l-190 307h-23l-190 -307v-115zM680 0h-111v240h-403v-240h-111v496l240 387h145l240 -387v-496zM410 1188l182 -182l-39 -39l-186 125l-179 -125l-38 39l182 182h78z" />
    <glyph glyph-name="Adieresis" unicode="&#xc4;" horiz-adv-x="788" 
d="M166 350h403v115l-190 307h-23l-190 -307v-115zM680 0h-111v240h-403v-240h-111v496l240 387h145l240 -387v-496zM213 1174h68l49 -50v-69l-49 -47h-68l-49 47v69zM520 1174l49 -50v-69l-49 -47h-67l-50 47v69l50 50h67z" />
    <glyph glyph-name="Aring" unicode="&#xc5;" horiz-adv-x="788" 
d="M166 350h403v115l-190 307h-23l-190 -307v-115zM680 0h-111v240h-403v-240h-111v496l240 387h145l240 -387v-496zM350 1059h31l22 22v29l-22 23h-31l-20 -23v-29zM496 1149v-107l-76 -75h-109l-73 75v107l73 76h109z" />
    <glyph glyph-name="AE" unicode="&#xc6;" horiz-adv-x="1302" 
d="M180 350h406v424h-23l-383 -328v-96zM696 498h443v-111h-443v-231l45 -45h435v-111h-480l-110 111v129h-406v-240h-110v496l460 389h646v-111h-435l-45 -45v-231z" />
    <glyph glyph-name="Ccedilla" unicode="&#xc7;" horiz-adv-x="788" 
d="M256 -348v90h102l29 27v38l-29 27h-102v57l98 109h-190l-111 111v663l111 109h405l111 -111v-92h-111v47l-45 45h-315l-45 -45v-571l45 -45h315l45 45v47h111v-94l-111 -109h-135l-37 -74l80 -80v-114l-80 -80h-141z" />
    <glyph glyph-name="Ecircumflex" unicode="&#xca;" horiz-adv-x="753" 
d="M164 498h442v-111h-442v-231l45 -45h434v-111h-479l-111 111v661l111 111h479v-111h-434l-45 -45v-229zM391 1188l182 -182l-38 -39l-187 125l-178 -125l-39 39l182 182h78z" />
    <glyph glyph-name="Edieresis" unicode="&#xcb;" horiz-adv-x="753" 
d="M164 498h442v-111h-442v-231l45 -45h434v-111h-479l-111 111v661l111 111h479v-111h-434l-45 -45v-229zM195 1174h67l49 -50v-69l-49 -47h-67l-50 47v69zM502 1174l49 -50v-69l-49 -47h-68l-49 47v69l49 50h68z" />
    <glyph glyph-name="Icircumflex" unicode="&#xce;" horiz-adv-x="274" 
d="M53 0v883h111v-883h-111zM154 1188l182 -182l-39 -39l-186 125l-179 -125l-38 39l182 182h78z" />
    <glyph glyph-name="Idieresis" unicode="&#xcf;" horiz-adv-x="274" 
d="M53 0v883h111v-883h-111zM-43 1174h68l49 -50v-69l-49 -47h-68l-49 47v69zM264 1174l49 -50v-69l-49 -47h-67l-50 47v69l50 50h67z" />
    <glyph glyph-name="Eth" unicode="&#xd0;" horiz-adv-x="864" 
d="M240 772v-276h221v-109h-221v-276h358l47 45v571l-47 45h-358zM129 0v387h-74v109h74v387h516l111 -111v-661l-111 -111h-516z" />
    <glyph glyph-name="Ntilde" unicode="&#xd1;" horiz-adv-x="790" 
d="M569 883h111v-883h-113l-403 670v-670h-111v883h111l405 -672v672zM526 1165l35 -39l-141 -118l-111 63l-100 -49l-35 39l137 117l109 -64z" />
    <glyph glyph-name="Ocircumflex" unicode="&#xd4;" horiz-adv-x="827" 
d="M606 156v571l-45 45h-352l-45 -45v-571l45 -45h352zM606 883l111 -111v-663l-111 -109h-442l-111 111v663l111 109h442zM428 1188l182 -182l-39 -39l-186 125l-178 -125l-39 39l182 182h78z" />
    <glyph glyph-name="Odieresis" unicode="&#xd6;" horiz-adv-x="827" 
d="M606 156v571l-45 45h-352l-45 -45v-571l45 -45h352zM606 883l111 -111v-663l-111 -109h-442l-111 111v663l111 109h442zM231 1174h68l49 -50v-69l-49 -47h-68l-49 47v69zM539 1174l49 -50v-69l-49 -47h-68l-49 47v69l49 50h68z" />
    <glyph glyph-name="multiply" unicode="&#xd7;" horiz-adv-x="792" 
d="M668 666l-226 -226l224 -221l-78 -78l-223 221l-213 -212l-78 79l213 211l-213 215l78 78l213 -215l223 225z" />
    <glyph glyph-name="Oslash" unicode="&#xd8;" horiz-adv-x="827" 
d="M606 156v516l-348 -561h303zM164 727v-557l375 602h-330zM729 870l-41 -67l29 -31v-663l-111 -109h-418l-32 -53l-95 59l37 57l-45 48v663l111 109h442l29 45z" />
    <glyph glyph-name="Ucircumflex" unicode="&#xdb;" horiz-adv-x="792" 
d="M55 883h111v-727l45 -45h315l45 45v727h111v-774l-111 -109h-405l-111 111v772zM412 1188l182 -182l-39 -39l-186 125l-179 -125l-38 39l182 182h78z" />
    <glyph glyph-name="Udieresis" unicode="&#xdc;" horiz-adv-x="792" 
d="M55 883h111v-727l45 -45h315l45 45v727h111v-774l-111 -109h-405l-111 111v772zM215 1174h68l49 -50v-69l-49 -47h-68l-49 47v69zM522 1174l49 -50v-69l-49 -47h-67l-49 47v69l49 50h67z" />
    <glyph glyph-name="Thorn" unicode="&#xde;" horiz-adv-x="753" 
d="M164 588v-293h323l45 45v203l-45 45h-323zM164 184v-184h-111v883h111v-185h371l108 -108v-297l-111 -109h-368z" />
    <glyph glyph-name="uni00DF" unicode="&#xdf;" horiz-adv-x="716" 
d="M219 -18v110h232l45 45v111l-185 184l148 146v149l-45 47h-203l-47 -45v-987h-111v1032l111 111h295l110 -111v-244l-100 -98l137 -137v-203l-110 -110h-277z" />
    <glyph glyph-name="acircumflex" unicode="&#xe2;" horiz-adv-x="794" 
d="M573 276h-358l-47 -47v-73l47 -45h215l143 143v22zM684 0h-111v111l-110 -111h-295l-111 111v165l111 111h405v82l-45 45h-313l-47 -45v-47h-111v94l111 109h405l111 -109v-516zM414 926l182 -183l-39 -38l-186 124l-178 -124l-39 38l182 183h78z" />
    <glyph glyph-name="adieresis" unicode="&#xe4;" horiz-adv-x="794" 
d="M573 276h-358l-47 -47v-73l47 -45h215l143 143v22zM684 0h-111v111l-110 -111h-295l-111 111v165l111 111h405v82l-45 45h-313l-47 -45v-47h-111v94l111 109h405l111 -109v-516zM217 911h68l49 -49v-69l-49 -48h-68l-49 48v69zM524 911l49 -49v-69l-49 -48h-67l-49 48v69
l49 49h67z" />
    <glyph glyph-name="aring" unicode="&#xe5;" horiz-adv-x="794" 
d="M573 276h-358l-47 -47v-73l47 -45h215l143 143v22zM684 0h-111v111l-110 -111h-295l-111 111v165l111 111h405v82l-45 45h-313l-47 -45v-47h-111v94l111 109h405l111 -109v-516zM354 797h31l23 22v29l-23 22h-31l-20 -22v-29zM500 887v-107l-76 -75h-109l-73 75v107
l73 76h109z" />
    <glyph glyph-name="ae" unicode="&#xe6;" horiz-adv-x="1306" 
d="M680 387h405v84l-47 45h-313l-45 -45v-84zM569 276h-360l-45 -45v-75l45 -45h217l143 145v20zM1196 276h-516v-120l45 -45h324v-111h-369l-111 113l-110 -113h-295l-111 111v165l111 111h405v84l-45 45h-315l-45 -45v-47h-111v92l111 111h405l56 -56l55 56h405l111 -111
v-240z" />
    <glyph glyph-name="ccedilla" unicode="&#xe7;" horiz-adv-x="794" 
d="M258 -334v90h102l29 27v39l-29 26h-102v58l86 94h-178l-111 111v405l111 109h405l111 -109v-94h-111v47l-45 45h-315l-45 -45v-313l47 -45h313l45 45v47h111v-94l-109 -109h-145l-29 -59l80 -80v-115l-80 -80h-141z" />
    <glyph glyph-name="ecircumflex" unicode="&#xea;" horiz-adv-x="792" 
d="M166 387h405v82l-45 45h-315l-45 -45v-82zM682 276h-516v-120l45 -45h315l45 45v47h111v-94l-111 -109h-405l-111 111v405l111 109h405l111 -109v-240zM412 926l182 -183l-39 -38l-186 124l-179 -124l-38 38l182 183h78z" />
    <glyph glyph-name="edieresis" unicode="&#xeb;" horiz-adv-x="792" 
d="M166 387h405v82l-45 45h-315l-45 -45v-82zM682 276h-516v-120l45 -45h315l45 45v47h111v-94l-111 -109h-405l-111 111v405l111 109h405l111 -109v-240zM215 911h68l49 -49v-69l-49 -48h-68l-49 48v69zM522 911l49 -49v-69l-49 -48h-67l-49 48v69l49 49h67z" />
    <glyph glyph-name="icircumflex" unicode="&#xee;" horiz-adv-x="280" 
d="M61 0v627h109v-627h-109zM160 926l182 -183l-39 -38l-186 124l-178 -124l-39 38l182 183h78z" />
    <glyph glyph-name="idieresis" unicode="&#xef;" horiz-adv-x="280" 
d="M61 0v627h109v-627h-109zM-37 911h68l49 -49v-69l-49 -48h-68l-49 48v69zM270 911l49 -49v-69l-49 -48h-67l-49 48v69l49 49h67z" />
    <glyph glyph-name="eth" unicode="&#xf0;" horiz-adv-x="790" 
d="M569 156v215l-143 145h-215l-47 -47v-313l45 -45h315zM459 627v-2l110 -111v150l-63 -37l-47 78l110 65v113h111v-49l72 40l43 -75l-115 -72v-616l-111 -111h-405l-111 109l2 407l109 111h295z" />
    <glyph glyph-name="ntilde" unicode="&#xf1;" horiz-adv-x="753" 
d="M645 0h-110v469l-46 45h-178l-145 -143v-371h-111v625h111v-111l110 111h259l110 -109v-516zM510 903l35 -39l-142 -119l-110 64l-100 -49l-35 39l137 116l108 -63z" />
    <glyph glyph-name="ocircumflex" unicode="&#xf4;" horiz-adv-x="821" 
d="M586 156v315l-47 45h-314l-45 -45v-313l45 -47h316zM586 627l110 -111v-405l-110 -111h-406l-110 111v405l110 111h406zM426 926l182 -183l-39 -38l-186 124l-178 -124l-39 38l182 183h78z" />
    <glyph glyph-name="odieresis" unicode="&#xf6;" horiz-adv-x="819" 
d="M586 156v315l-47 45h-314l-45 -45v-313l45 -47h316zM586 627l110 -111v-405l-110 -111h-406l-110 111v405l110 111h406zM229 911h68l49 -49v-69l-49 -48h-68l-49 48v69zM537 911l49 -49v-69l-49 -48h-68l-49 48v69l49 49h68z" />
    <glyph glyph-name="divide" unicode="&#xf7;" horiz-adv-x="899" 
d="M72 498h702v-111h-702v111zM391 332h62l43 -43v-62l-43 -43h-62l-43 43v62zM453 553h-62l-43 43v61l43 43h62l43 -43v-61z" />
    <glyph glyph-name="oslash" unicode="&#xf8;" horiz-adv-x="792" 
d="M571 156v303l-307 -348h262zM168 471v-303l307 348h-262zM705 610l-54 -61l31 -33v-405l-109 -111h-405l-51 -55l-84 73l55 60l-31 33v405l109 111h405l52 55z" />
    <glyph glyph-name="ucircumflex" unicode="&#xfb;" horiz-adv-x="755" 
d="M535 625h110v-625h-110v111l-111 -111h-258l-111 111v514h111v-469l45 -45h178l146 143v371zM393 926l182 -183l-38 -38l-187 124l-178 -124l-39 38l182 183h78z" />
    <glyph glyph-name="udieresis" unicode="&#xfc;" horiz-adv-x="755" 
d="M535 625h110v-625h-110v111l-111 -111h-258l-111 111v514h111v-469l45 -45h178l146 143v371zM197 911h67l49 -49v-69l-49 -48h-67l-50 48v69zM504 911l49 -49v-69l-49 -48h-68l-49 48v69l49 49h68z" />
    <glyph glyph-name="thorn" unicode="&#xfe;" horiz-adv-x="792" 
d="M571 156v315l-45 45h-315l-45 -45v-315l47 -45h313zM166 0v-221h-111v1069h111v-221h405l111 -111v-405l-111 -111h-405z" />
    <glyph glyph-name="ydieresis" unicode="&#xff;" horiz-adv-x="790" 
d="M680 625v-775l-111 -108h-221v111h176l45 45v213l-110 -111h-295l-111 111v514h111v-469l45 -45h217l143 143v371h111zM213 911h68l49 -49v-69l-49 -48h-68l-49 48v69zM520 911l49 -49v-69l-49 -48h-67l-50 48v69l50 49h67z" />
    <glyph glyph-name="Abreve" unicode="&#x102;" horiz-adv-x="788" 
d="M166 350h403v115l-190 307h-23l-190 -307v-115zM680 0h-111v240h-403v-240h-111v496l240 387h145l240 -387v-496zM528 1188l52 -29l-111 -192h-203l-110 192l49 29l117 -129h92z" />
    <glyph glyph-name="abreve" unicode="&#x103;" horiz-adv-x="796" 
d="M573 276h-358l-47 -47v-73l47 -45h215l143 143v22zM684 0h-111v111l-110 -111h-295l-111 111v165l111 111h405v82l-45 45h-313l-47 -45v-47h-111v94l111 109h405l111 -109v-516zM532 926l52 -29l-111 -192h-203l-110 192l49 29l117 -129h92z" />
    <glyph glyph-name="Cacute" unicode="&#x106;" horiz-adv-x="788" 
d="M676 680h-111v47l-45 45h-315l-45 -45v-571l45 -45h315l45 45v47h111v-94l-111 -109h-405l-111 111v663l111 109h405l111 -111v-92zM270 967l-39 39l183 182l78 -78z" />
    <glyph glyph-name="cacute" unicode="&#x107;" horiz-adv-x="794" 
d="M682 422h-111v47l-45 45h-315l-45 -45v-313l47 -45h313l45 45v47h111v-94l-109 -109h-407l-111 111v405l111 109h405l111 -109v-94zM279 705l-39 38l182 183l78 -78z" />
    <glyph glyph-name="Ccaron" unicode="&#x10c;" horiz-adv-x="788" 
d="M680 680h-111v47l-45 45h-315l-45 -45v-571l45 -45h315l45 45v47h111v-94l-111 -109h-405l-111 111v663l111 109h405l111 -111v-92zM547 1188l39 -39l-183 -182h-77l-183 182l39 39l187 -125z" />
    <glyph glyph-name="ccaron" unicode="&#x10d;" horiz-adv-x="794" 
d="M682 422h-111v47l-45 45h-315l-45 -45v-313l47 -45h313l45 45v47h111v-94l-109 -109h-407l-111 111v405l111 109h405l111 -109v-94zM547 926l39 -39l-183 -182h-77l-183 182l39 39l187 -125z" />
    <glyph glyph-name="Dcroat" unicode="&#x110;" horiz-adv-x="845" 
d="M221 772v-274h240v-111h-240v-276h359l47 45v571l-47 45h-359zM111 0v387h-56v111h56v385h516l110 -109v-663l-110 -111h-516z" />
    <glyph glyph-name="dcroat" unicode="&#x111;" horiz-adv-x="790" 
d="M567 156v215l-143 145h-215l-45 -47l-2 -313l47 -45h313zM678 809h55v-111h-55v-587l-111 -111h-405l-111 109l2 407l111 111h293v-2l110 -111v184h-92v111h92v74h111v-74z" />
    <glyph glyph-name="Gbreve" unicode="&#x11e;" horiz-adv-x="788" 
d="M680 680h-111v47l-45 45h-313l-47 -45v-571l47 -45h313l45 45v231h-221v111h332v-389l-109 -109h-407l-109 111v663l109 109h405l111 -111v-92zM528 1188l52 -29l-111 -192h-203l-110 192l49 29l117 -129h92z" />
    <glyph glyph-name="gbreve" unicode="&#x11f;" horiz-adv-x="798" 
d="M436 111l144 143v215l-45 45h-316l-45 -45v-313l47 -45h215zM358 -258v111h177l45 45v213l-111 -111h-295l-108 111l-3 405l111 109h406l110 -109v-666l-110 -108h-222zM539 926l51 -29l-111 -192h-203l-110 192l49 29l117 -129h92z" />
    <glyph glyph-name="Idotaccent" unicode="&#x130;" horiz-adv-x="274" 
d="M193 1083v-69l-48 -47h-69l-49 47v69l49 50h69zM164 0h-111v885h111v-885z" />
    <glyph glyph-name="dotlessi" unicode="&#x131;" horiz-adv-x="280" 
d="M61 0v627h109v-627h-109z" />
    <glyph glyph-name="Lslash" unicode="&#x141;" horiz-adv-x="718" 
d="M184 111h424v-111h-534v293l-74 -74v156l74 74v436h110v-326l111 111v-156l-111 -111v-292z" />
    <glyph glyph-name="lslash" unicode="&#x142;" horiz-adv-x="368" 
d="M184 0h-110v307l-74 -74v158l74 74v420h110v-312l74 74v-155l-74 -74v-418z" />
    <glyph glyph-name="OE" unicode="&#x152;" horiz-adv-x="1302" 
d="M588 111v663h-361l-45 -45v-573l45 -45h361zM698 498h443v-111h-443v-231l45 -45h435v-111h-996l-110 111v663l110 111h996v-111h-435l-45 -45v-231z" />
    <glyph glyph-name="oe" unicode="&#x153;" horiz-adv-x="1304" 
d="M680 387h403v84l-45 45h-313l-45 -45v-84zM209 111h315l45 45v315l-47 45h-313l-45 -45v-315zM1194 276h-514v-120l45 -45h322v-111h-367l-55 55l-56 -55h-405l-111 111v405l111 111h405l56 -56l53 56h407l109 -111v-240z" />
    <glyph glyph-name="Scedilla" unicode="&#x15e;" horiz-adv-x="790" 
d="M256 -348v90h102l29 27v38l-29 27h-102v57l98 109h-172l-110 111v92h110v-47l45 -45h297l45 45v221l-45 47h-360l-111 108v242l111 109h387l111 -111v-92h-111v47l-45 45h-297l-45 -45v-147l45 -45h360l111 -111v-315l-111 -109h-135l-37 -74l80 -80v-114l-80 -80h-141z
" />
    <glyph glyph-name="scedilla" unicode="&#x15f;" horiz-adv-x="788" 
d="M256 -334v90h102l29 27v39l-29 26h-102v58l86 94h-158l-110 111v92h110v-47l45 -45h295l45 45v55l-45 47h-358l-111 109v149l109 109h389l109 -109v-94h-111v47l-45 45h-295l-45 -45v-55l45 -45h360l109 -111v-149l-109 -109h-145l-29 -59l80 -80v-115l-80 -80h-141z" />
    <glyph glyph-name="Scaron" unicode="&#x160;" horiz-adv-x="761" 
d="M72 203h110v-47l45 -45h297l45 45v221l-45 47h-360l-111 108v242l111 109h387l111 -111v-92h-111v47l-45 45h-297l-45 -45v-147l45 -45h360l111 -111v-315l-111 -109h-387l-110 111v92zM545 1188l39 -39l-183 -182h-77l-183 182l39 39l187 -125z" />
    <glyph glyph-name="scaron" unicode="&#x161;" horiz-adv-x="790" 
d="M74 203h110v-47l45 -45h295l45 45v55l-45 47h-358l-111 109v149l109 109h389l109 -109v-94h-111v47l-45 45h-295l-45 -45v-55l45 -45h360l109 -111v-149l-109 -109h-387l-110 111v92zM545 926l39 -39l-183 -182h-77l-183 182l39 39l187 -125z" />
    <glyph glyph-name="Ydieresis" unicode="&#x178;" horiz-adv-x="792" 
d="M569 883h111v-277l-258 -203v-403h-111v406l-258 202v275h111v-221l203 -160l202 160v221zM213 1174h68l49 -50v-69l-49 -47h-68l-49 47v69zM520 1174l49 -50v-69l-49 -47h-67l-50 47v69l50 50h67z" />
    <glyph glyph-name="Zcaron" unicode="&#x17d;" horiz-adv-x="792" 
d="M55 883h625v-201l-514 -526v-45h514v-111h-625v203l514 524v45h-514v111zM545 1190l39 -39l-183 -182h-77l-183 182l39 39l187 -125z" />
    <glyph glyph-name="zcaron" unicode="&#x17e;" horiz-adv-x="780" 
d="M45 625h627v-166l-498 -322v-26h498v-111h-627v166l498 319v29h-498v111zM541 926l39 -39l-183 -182h-78l-182 182l39 39l186 -125z" />
    <glyph glyph-name="florin" unicode="&#x192;" horiz-adv-x="792" 
d="M55 0v111h146l55 45l63 303h-147l25 110h147l43 205l133 109h162v-111h-139l-56 -45l-32 -158h147l-24 -110h-148l-74 -350l-133 -109h-168z" />
    <glyph glyph-name="Ohorn" unicode="&#x1a0;" horiz-adv-x="827" 
d="M750 958v-120l-48 -47l17 -17v-663l-111 -111h-442l-111 111v663l111 111h442l17 -17l14 15v75h111zM606 156v573l-47 45h-350l-45 -45v-571l45 -47h352z" />
    <glyph glyph-name="ohorn" unicode="&#x1a1;" horiz-adv-x="825" 
d="M743 700v-120l-45 -45l19 -19v-405l-111 -111h-442l-111 111v407l111 109h442l15 -15l14 13v75h108zM606 158v315l-45 45h-352l-45 -45v-313l45 -47h352z" />
    <glyph glyph-name="Uhorn" unicode="&#x1af;" horiz-adv-x="942" 
d="M760 958h104v-163l-114 -113h-72v-571l-111 -111h-405l-111 111v774h111v-727l47 -47h313l45 45v729h111v-99h29l53 52v120z" />
    <glyph glyph-name="uhorn" unicode="&#x1b0;" horiz-adv-x="897" 
d="M721 698h104v-161l-114 -115h-68v-422h-111v111l-110 -111h-258l-111 111v516h111v-471l45 -45h178l145 143v373h111v-101h25l53 54v118z" />
    <glyph glyph-name="circumflex" unicode="&#x2c6;" horiz-adv-x="643" 
d="M334 1153l182 -182l-39 -39l-186 125l-178 -125l-39 39l182 182h78z" />
    <glyph glyph-name="caron" unicode="&#x2c7;" horiz-adv-x="641" 
d="M477 1153l39 -39l-182 -182h-78l-182 182l39 39l186 -125z" />
    <glyph glyph-name="breve" unicode="&#x2d8;" horiz-adv-x="622" 
d="M446 1153l52 -29l-111 -192h-203l-110 192l49 29l117 -129h92z" />
    <glyph glyph-name="dotaccent" unicode="&#x2d9;" horiz-adv-x="364" 
d="M238 1051v-70l-50 -47h-67l-49 47v70l49 47h67z" />
    <glyph glyph-name="ring" unicode="&#x2da;" horiz-adv-x="456" 
d="M186 1024h31l23 23v28l-23 23h-31l-20 -23v-28zM332 1114v-106l-76 -76h-109l-73 76v106l73 76h109z" />
    <glyph glyph-name="ogonek" unicode="&#x2db;" horiz-adv-x="419" 
d="M293 -166h-103l-28 -27v-38l28 -27h103v-90h-141l-80 80v114l80 80l-39 78l47 33l133 -146v-57z" />
    <glyph glyph-name="tilde" unicode="&#x2dc;" horiz-adv-x="536" 
d="M172 911l129 -73q5 3 41 41l35 34l51 -51l-115 -114l-129 73q-4 -4 -15 -14t-26 -25l-34 -34l-52 49z" />
    <glyph glyph-name="hungarumlaut" unicode="&#x2dd;" horiz-adv-x="579" 
d="M268 932l56 184h129l-111 -184h-74zM74 932l55 184h129l-111 -184h-73z" />
    <glyph glyph-name="gravecomb" unicode="&#x300;" horiz-adv-x="460" 
d="M295 932l-221 143l78 78l182 -182z" />
    <glyph glyph-name="acutecomb" unicode="&#x301;" horiz-adv-x="458" 
d="M111 932l-39 39l182 182l78 -78z" />
    <glyph glyph-name="tildecomb" unicode="&#x303;" horiz-adv-x="587" 
d="M426 1118l35 -39l-142 -118l-110 63l-100 -49l-35 39l137 116l108 -63z" />
    <glyph glyph-name="hookabovecomb" unicode="&#x309;" horiz-adv-x="425" 
d="M250 1153l49 -57v-78l-104 -86l-43 22l73 95v24l-6 6h-29l-71 -49l-47 27l84 96h94z" />
    <glyph glyph-name="dotbelowcomb" unicode="&#x323;" horiz-adv-x="364" 
d="M238 -121v-69l-50 -48h-67l-49 48v69l49 47h67z" />
    <glyph glyph-name="uni0E00" unicode="&#xe00;" horiz-adv-x="876" 
 />
    <glyph glyph-name="uni0E01" unicode="&#xe01;" horiz-adv-x="833" 
d="M723 0h-111v653l-45 45h-350l119 -116l-129 -129v-453h-111v498l84 84l-121 118l111 109h442l111 -109v-700z" />
    <glyph glyph-name="uni0E02" unicode="&#xe02;" horiz-adv-x="806" 
d="M219 549v45l-33 33h-45l-32 -33v-45l32 -33h45zM588 811h110v-700l-110 -111h-111l-110 111v563l-27 26h-96l67 -67v-123l-86 -86h-123l-86 86v190l111 111h240l110 -111v-542l45 -47h21l45 45v655z" />
    <glyph glyph-name="uni0E03" unicode="&#xe03;" horiz-adv-x="823" 
d="M236 567v45l-33 33h-45l-33 -33v-45l33 -32h45zM586 811h110v-702l-110 -109h-111l-110 111v458l92 93v36l-19 21h-18l-55 -57l-56 57h-49l68 -70v-121l-86 -86h-123l-86 86v172l110 111h176l46 -45l43 45h67l74 -74v-112l-74 -74v-395l45 -45h21l45 45v655z" />
    <glyph glyph-name="uni0E04" unicode="&#xe04;" horiz-adv-x="886" 
d="M375 446v-47l31 -30h47l30 30v47l-30 31h-47zM760 0h-111v653l-45 45h-350l-45 -45v-243l160 159h120l86 -86v-121l-86 -88h-120l-76 76l-84 -84v-266h-111v700l109 109h442l111 -111v-698z" />
    <glyph glyph-name="uni0E05" unicode="&#xe05;" horiz-adv-x="886" 
d="M373 446v-45l33 -32h45l32 32v45l-32 33h-45zM760 0h-111v653l-45 47h-84l-92 -94l-92 94h-84l-45 -45v-245l160 161h122l86 -86v-123l-86 -86h-122l-76 76l-84 -86v-266h-111v700l111 111h174l47 -47l47 47h174l111 -111v-700z" />
    <glyph glyph-name="uni0E06" unicode="&#xe06;" horiz-adv-x="970" 
d="M420 125v47l-17 16l-26 15h-35l-33 -31v-47l33 -31h45zM236 567v47l-33 31h-45l-33 -31v-47l33 -30h45zM733 811h111v-811h-111l-221 127v-39l-86 -88h-123l-86 88v121l86 86h62v276l92 93v36l-19 19h-18l-55 -55l-56 55h-49l68 -68v-123l-86 -86h-123l-86 86v174
l110 109h179l43 -43l43 43h67l74 -74v-112l-74 -74v-287l258 -147v694z" />
    <glyph glyph-name="uni0E07" unicode="&#xe07;" horiz-adv-x="686" 
d="M406 608h45l32 33v45l-32 33h-45l-33 -33v-45zM575 0h-110l-395 528l80 62l315 -420v346h-98l-86 86v123l86 86h122l86 -86v-725z" />
    <glyph glyph-name="uni0E08" unicode="&#xe08;" horiz-adv-x="829" 
d="M440 401v45l-32 33h-46l-32 -33v-45l32 -32h46zM719 0h-111v264l-86 88l-76 -76h-122l-86 86v121l86 88h122l162 -163v245l-45 47h-352l-45 -47v-45h-111v92l111 111h442l111 -111v-700z" />
    <glyph glyph-name="uni0E09" unicode="&#xe09;" horiz-adv-x="894" 
d="M737 125v45l-32 33h-33l-45 -33v-45l32 -33h46zM217 369h45l31 32v45l-31 33h-45l-33 -33v-45zM276 0v276h-98l-86 86v123l86 86h123l86 -86v-360l221 158v372l-47 45h-350l-45 -45v-47h-111v92l109 111h444l111 -111v-405h22l88 -86v-123l-88 -86h-120l-86 86v18
l-148 -104h-111z" />
    <glyph glyph-name="uni0E0A" unicode="&#xe0a;" horiz-adv-x="808" 
d="M219 549v45l-31 33h-47l-30 -33v-45l30 -33h47zM657 719l41 -41v-567l-108 -111h-113l-110 111v563l-27 26h-96l67 -67v-123l-86 -86h-121l-86 86v190l109 111h240l110 -111v-544l47 -45h19l45 45v489l-74 74l221 221l72 -72z" />
    <glyph glyph-name="uni0E0B" unicode="&#xe0b;" horiz-adv-x="821" 
d="M586 643l-37 37v-55l-74 -74v-395l45 -45h21l45 45v487zM236 567v45l-33 33h-45l-33 -33v-45l33 -32h45zM805 866l-150 -149l41 -41v-567l-110 -109h-111l-110 111v458l92 93v36l-19 21h-18l-55 -57l-58 57h-47l68 -70v-121l-86 -86h-123l-86 86v172l110 109h176l46 -43
l43 43h67l64 -64l194 193z" />
    <glyph glyph-name="uni0E0C" unicode="&#xe0c;" horiz-adv-x="1202" 
d="M668 170l-17 18l-26 15h-35l-33 -33v-45l33 -33h45l33 33v45zM266 203h-45l-33 -33v-45l33 -33h45l33 33v45zM1092 811v-811h-111l-221 125v-39l-86 -86h-123l-86 86v123l86 86h61v360l-45 45h-350l119 -118l-129 -129v-158h98l86 -86v-123l-86 -86h-123l-86 86v414
l82 82l-119 118l111 111h442l111 -111v-436l258 -147v694h111z" />
    <glyph glyph-name="uni0E0D" unicode="&#xe0d;" horiz-adv-x="1202" 
d="M778 -256v31l-20 20h-31l-22 -20v-31l22 -23h31zM870 -260h35l111 113l78 -78l-144 -146h-262l-76 76v107l76 75h107l75 -75v-72zM221 203l-33 -33v-45l33 -33h45l33 33v45l-33 33h-45zM207 295h98l86 -86v-123l-86 -86h-121l-88 86v414l84 82l-119 118l109 111h442
l111 -111v-589h213l45 45v655h111v-700l-111 -111h-369v655l-45 45h-350l119 -118l-129 -129v-158z" />
    <glyph glyph-name="uni0E0E" unicode="&#xe0e;" horiz-adv-x="933" 
d="M512 -258l37 37l-37 37h-182l-21 -21v-31l21 -22h182zM217 125v45l-33 33h-45l-33 -33v-45l33 -33h45zM825 -369h-110l-76 76l-76 -76h-278l-86 86v123l86 86h278l152 -151v880l-45 45h-351l119 -118l-129 -129v-367l-86 -86h-123l-86 86v123l86 86h99v205l82 82
l-119 118l110 111h443l110 -111v-1069z" />
    <glyph glyph-name="uni0E0F" unicode="&#xe0f;" horiz-adv-x="933" 
d="M385 -236v31l-23 21h-30l-21 -21v-31l21 -22h30zM217 125v45l-31 33h-47l-30 -33v-45l30 -33h47zM825 -369h-110l-76 78l-78 -78l-78 76l-75 -76h-121l-86 86v123l86 86h121l153 -151l78 78l76 -78v880l-45 45h-351l119 -118l-127 -129v-367l-88 -86h-121l-86 86v123
l86 86h99v205l82 82l-119 118l108 111h445l108 -111v-1069z" />
    <glyph glyph-name="uni0E10" unicode="&#xe10;" horiz-adv-x="811" 
d="M592 -256v31l-23 22h-28l-23 -22v-31l23 -20h28zM608 -111l76 -75v-109l-76 -74h-106l-131 129l-113 -110l-178 176l65 65l113 -112l113 112l67 -67l64 65h106zM408 309v47l-33 31h-45l-33 -31v-47l33 -30h45zM721 700h-508l-20 -20l491 -127v-553h-111v176l-84 84
l-75 -76h-123l-86 88v121l86 86h123l159 -160v158l-514 131h-2v92l111 111h553v-111z" />
    <glyph glyph-name="uni0E11" unicode="&#xe11;" horiz-adv-x="1042" 
d="M236 567v47l-33 31h-45l-33 -31v-47l33 -30h45zM918 0h-111v655l-47 45h-33l-252 -700h-110v571l92 93v36l-19 19h-18l-55 -55l-58 55h-47l68 -68v-123l-86 -86h-123l-86 86v174l110 109h176l46 -43l43 43h67l74 -74v-112l-74 -74v-250l184 510h148l111 -111v-700z" />
    <glyph glyph-name="uni0E12" unicode="&#xe12;" horiz-adv-x="1255" 
d="M707 170l-19 18l-24 15h-35l-33 -33v-45l33 -33h45l33 33v45zM375 446v-45l33 -32h45l32 32v45l-32 33h-45zM1020 811h110v-811h-110l-221 125v-39l-86 -86h-123l-86 86v123l86 86h61v358l-47 47h-82l-92 -94l-92 94h-84l-45 -45v-514l149 146l-75 75v123l86 86h123
l86 -86v-123l-369 -362h-111v700l111 111h174l47 -47l47 47h174l111 -111v-436l258 -147v694z" />
    <glyph glyph-name="uni0E13" unicode="&#xe13;" horiz-adv-x="1267" 
d="M1112 125v45l-33 33h-45l-33 -33v-45l33 -33h45zM268 203h-45l-33 -33v-45l33 -33h45l33 33v45zM614 0v653l-45 45h-350l119 -118l-129 -127v-158h98l86 -88v-121l-86 -86h-123l-86 86v412l82 82l-119 120l111 109h442l111 -111v-577l258 172v516h111v-514h24l86 -88
v-121l-86 -86h-123l-86 86v35l-188 -121h-107z" />
    <glyph glyph-name="uni0E14" unicode="&#xe14;" horiz-adv-x="888" 
d="M377 446v-45l31 -32h47l30 32v45l-30 33h-47zM762 0h-111v653l-45 47h-350l-47 -45v-514l149 146l-75 75v123l88 86h121l86 -86v-123l-367 -362h-111v700l109 111h442l111 -111v-700z" />
    <glyph glyph-name="uni0E15" unicode="&#xe15;" horiz-adv-x="886" 
d="M375 446v-47l33 -30h45l32 30v47l-32 31h-45zM762 0h-111v653l-47 45h-82l-92 -92l-92 92h-84l-45 -45v-512l149 146l-75 75v121l86 86h123l86 -86v-121l-369 -362h-111v700l111 109h174l47 -47l47 47h174l111 -111v-698z" />
    <glyph glyph-name="uni0E16" unicode="&#xe16;" horiz-adv-x="831" 
d="M264 203h-45l-33 -33v-45l33 -33h45l33 33v45zM721 0h-111v653l-47 47h-348l117 -118l-127 -129v-158h98l86 -86v-123l-86 -86h-123l-86 86v412l82 84l-119 118l111 111h442l111 -111v-700z" />
    <glyph glyph-name="uni0E17" unicode="&#xe17;" horiz-adv-x="935" 
d="M139 608h47l31 33v45l-31 33h-47l-30 -33v-45zM825 0h-110v653l-45 47h-41l-320 -700h-110v516h-97l-86 86v121l86 88h121l86 -88v-477l258 565h148l110 -111v-700z" />
    <glyph glyph-name="uni0E18" unicode="&#xe18;" horiz-adv-x="790" 
d="M682 700h-471l-18 -20l489 -109v-460l-111 -111h-368l-111 111v405h111v-360l45 -45h278l45 45v336l-516 114v94l111 111h516v-111z" />
    <glyph glyph-name="uni0E19" unicode="&#xe19;" horiz-adv-x="929" 
d="M772 125v45l-31 33h-36l-21 -13l-20 -20v-45l30 -33h47zM141 608h47l31 33v45l-31 33h-47l-30 -33v-45zM201 0v516h-97l-86 86v121l86 88h121l86 -88v-608l332 170v526h111v-516h24l86 -86v-123l-86 -86h-123l-86 86v47l-258 -133h-110z" />
    <glyph glyph-name="uni0E1A" unicode="&#xe1a;" horiz-adv-x="901" 
d="M143 608h45l33 33v45l-33 33h-45l-32 -33v-45zM680 811h111v-700l-109 -111h-371l-108 111v405h-99l-86 86v121l86 88h121l88 -88v-567l45 -45h277l45 45v655z" />
    <glyph glyph-name="uni0E1B" unicode="&#xe1b;" horiz-adv-x="903" 
d="M143 608h45l33 33v45l-33 33h-45l-32 -33v-45zM682 1180h111v-1069l-111 -111h-369l-110 111v405h-99l-86 86v123l86 86h123l86 -86v-567l45 -47h279l45 45v1024z" />
    <glyph glyph-name="uni0E1C" unicode="&#xe1c;" horiz-adv-x="884" 
d="M190 686v-47l31 -31h47l31 31v47l-31 31h-47zM649 809h111v-809h-111l-219 238l-221 -238h-111v723l86 86h121l86 -86v-121l-86 -88h-96v-367l221 240l219 -237v659z" />
    <glyph glyph-name="uni0E1D" unicode="&#xe1d;" horiz-adv-x="884" 
d="M190 686v-47l31 -31h47l31 31v47l-31 31h-47zM760 1178v-1178h-111l-219 238l-223 -238h-111v723l88 86h121l86 -86v-121l-86 -88h-98v-367l223 240l219 -237v1028h111z" />
    <glyph glyph-name="uni0E1E" unicode="&#xe1e;" horiz-adv-x="972" 
d="M141 608h45l33 33v45l-33 33h-45l-32 -33v-45zM752 811h110v-811h-110l-220 543l-221 -543h-110v516h-99l-86 86v121l86 88h121l88 -88v-455l221 543l220 -543v543z" />
    <glyph glyph-name="uni0E1F" unicode="&#xe1f;" horiz-adv-x="974" 
d="M143 608h45l33 33v45l-33 33h-45l-32 -33v-45zM756 1178h110v-1178h-110l-221 543l-222 -543h-110v516h-99l-86 86v121l86 88h123l86 -88v-455l222 543l221 -543v910z" />
    <glyph glyph-name="uni0E20" unicode="&#xe20;" horiz-adv-x="937" 
d="M219 125v45l-33 33h-45l-32 -33v-45l32 -33h45zM827 0h-110v653l-45 47h-350l118 -118l-129 -129v-367l-86 -86h-123l-86 86v123l86 86h99v203l82 84l-119 118l110 111h443l110 -111v-700z" />
    <glyph glyph-name="uni0E21" unicode="&#xe21;" horiz-adv-x="862" 
d="M258 170l-20 20l-25 13h-33l-33 -33v-45l33 -33h45l33 33v45zM141 608h45l33 33v45l-33 33h-45l-32 -33v-45zM643 811h111v-811h-111l-293 137v-51l-86 -86h-121l-88 86v123l88 86h58v221h-99l-86 86v121l86 88h123l86 -88v-455l332 -155v698z" />
    <glyph glyph-name="uni0E22" unicode="&#xe22;" horiz-adv-x="835" 
d="M154 686v-45l32 -33h45l33 33v45l-33 33h-45zM614 811h111v-700l-111 -111h-405l-111 111v184l74 72l-111 110v246l86 88h123l86 -88v-121l-86 -86h-90l148 -149l-119 -119v-92l45 -45h315l45 45v655z" />
    <glyph glyph-name="uni0E23" unicode="&#xe23;" horiz-adv-x="679" 
d="M475 125v45l-31 33h-47l-30 -33v-45l30 -33h47zM457 295v194l-400 82h-4v129l109 111h442v-111h-395l-45 -47l403 -82v-485l-86 -86h-121l-88 86v123l88 86h97z" />
    <glyph glyph-name="uni0E24" unicode="&#xe24;" horiz-adv-x="831" 
d="M266 203h-47l-31 -33v-45l31 -33h47l31 33v45zM721 -369h-111v1022l-45 47h-350l119 -118l-129 -129v-158h98l86 -86v-123l-86 -86h-121l-88 86v412l84 84l-121 118l111 111h442l111 -111v-1069z" />
    <glyph glyph-name="uni0E25" unicode="&#xe25;" horiz-adv-x="829" 
d="M262 203h-45l-33 -33v-45l33 -33h45l33 33v45zM719 0h-111v299l-162 162h-198l-45 -47v-119h98l86 -86v-123l-86 -86h-123l-86 86v375l111 110h276l129 -129v213l-45 45h-352l-45 -47v-45h-111v92l111 111h442l111 -111v-700z" />
    <glyph glyph-name="uni0E26" unicode="&#xe26;" horiz-adv-x="935" 
d="M219 125v45l-31 33h-47l-30 -33v-45l30 -33h47zM827 -369h-110v1022l-45 47h-350l118 -118l-129 -129v-367l-86 -86h-121l-88 86v123l88 86h97v203l84 84l-121 118l110 111h443l110 -111v-1069z" />
    <glyph glyph-name="uni0E27" unicode="&#xe27;" horiz-adv-x="751" 
d="M551 123v47l-33 31h-45l-33 -31v-47l33 -31h45zM532 293v360l-45 45h-276l-47 -45v-47h-111v92l111 111h371l108 -109v-614l-86 -86h-123l-86 86v121l86 86h98z" />
    <glyph glyph-name="uni0E28" unicode="&#xe28;" horiz-adv-x="886" 
d="M373 446v-45l33 -32h45l32 32v45l-32 33h-45zM760 0h-111v655l-45 45h-352l-45 -45v-243l160 159h122l86 -86v-123l-86 -86h-122l-74 76l-86 -84v-268h-111v700l111 111h401l111 111l78 -78l-90 -90l53 -54v-700z" />
    <glyph glyph-name="uni0E29" unicode="&#xe29;" horiz-adv-x="901" 
d="M141 608h45l33 33v45l-33 33h-45l-32 -33v-45zM518 369l33 32v45l-33 33h-45l-33 -33v-45l33 -32h45zM680 811h111v-700l-111 -111h-369l-110 111v405h-99l-86 86v121l86 88h123l86 -88v-567l45 -45h279l45 45v120h-246l-86 86v121l86 88h121l88 -86v-116h37v442z" />
    <glyph glyph-name="uni0E2A" unicode="&#xe2a;" horiz-adv-x="829" 
d="M217 201l-33 -31v-47l33 -31h45l33 31v47l-33 31h-45zM719 0h-111v299l-162 160h-198l-45 -45v-121h98l86 -86v-121l-86 -86h-123l-86 86v373l111 110h276l129 -127v211l-45 45h-352l-45 -45v-45h-111v90l111 111h407l111 111l72 -72l-92 -92l55 -56v-700z" />
    <glyph glyph-name="uni0E2B" unicode="&#xe2b;" horiz-adv-x="937" 
d="M625 686v-47l32 -31h45l33 31v47l-33 31h-45zM141 608h45l33 31v47l-33 31h-45l-32 -31v-47zM827 0h-110v418l-27 24l-379 -442h-110v514h-99l-86 88v121l86 86h123l86 -86v-567l307 358l-86 88v121l86 86h123l86 -86v-123l-82 -82l82 -82v-436z" />
    <glyph glyph-name="uni0E2C" unicode="&#xe2c;" horiz-adv-x="935" 
d="M141 608h45l33 31v47l-33 31h-45l-32 -31v-47zM657 645h45l33 31v47l-33 31h-45l-32 -31v-47zM827 0h-110l-203 324l-203 -324h-110v514h-99l-86 88v121l86 86h123l86 -86v-533l203 324l203 -324v361h-99l-86 86v123l86 86h121l76 -76l78 76l72 -70l-138 -139v-637z" />
    <glyph glyph-name="uni0E2D" unicode="&#xe2d;" horiz-adv-x="831" 
d="M186 428v-47l31 -31h47l31 31v47l-31 31h-47zM203 256v-100l47 -45h313l45 45v497l-45 45h-350l-47 -45v-47h-109v92l109 111h444l109 -109v-589l-111 -111h-405l-109 111v354l86 86h121l86 -86v-121l-86 -88h-98z" />
    <glyph glyph-name="uni0E2E" unicode="&#xe2e;" horiz-adv-x="821" 
d="M381 625l74 73h-252l-37 -36l37 -37h178zM176 354v-47l33 -31h45l33 31v47l-33 31h-45zM195 182v-26l45 -45h315l45 45v497l-22 25l-144 -146h-295l-92 93v73l111 111h407l111 111l72 -72l-93 -92l56 -56v-589l-111 -111h-405l-111 111v280l86 86h123l86 -86v-121
l-86 -88h-98z" />
    <glyph glyph-name="uni0E2F" unicode="&#xe2f;" horiz-adv-x="724" 
d="M188 608h45l33 33v45l-33 33h-45l-32 -33v-45zM506 811h110v-811h-110v608l-92 -92h-264l-87 86v121l87 88h122l86 -88v-96h9l139 137v47z" />
    <glyph glyph-name="uni0E30" unicode="&#xe30;" horiz-adv-x="679" 
d="M229 113v30l-22 21h-29l-22 -21v-30l22 -21h29zM322 111h108l76 73l65 -65l-120 -119h-312l-76 74v108l76 74h107l76 -74v-71zM156 659v-30l22 -23h29l22 23v30l-22 21h-29zM322 625h108l76 75l65 -65l-120 -121h-312l-76 76v106l76 76h107l76 -76v-71z" />
    <glyph glyph-name="uni0E31" unicode="&#xe31;" 
d="M-418 1024l23 23v28l-23 23h-31l-20 -23v-28l20 -23h31zM-303 1042h219l74 76l65 -65l-118 -121h-422l-76 76v106l76 76h106l76 -76v-72z" />
    <glyph glyph-name="uni0E32" unicode="&#xe32;" horiz-adv-x="753" 
d="M643 0h-111v655l-45 45h-278l-45 -47v-45h-111v92l111 111h368l111 -111v-700z" />
    <glyph glyph-name="uni0E33" unicode="&#xe33;" horiz-adv-x="753" 
d="M-236 1057v45l-32 33h-45l-33 -33v-45l33 -33h45zM-352 1227h121l88 -86v-123l-88 -86h-121l-86 86v123zM643 0h-111v655l-45 45h-278l-45 -47v-45h-111v92l111 111h368l111 -111v-700z" />
    <glyph glyph-name="uni0E34" unicode="&#xe34;" 
d="M-643 1026h438l-55 55h-328zM-111 934h-626v129l110 111h404l112 -111v-129z" />
    <glyph glyph-name="uni0E35" unicode="&#xe35;" 
d="M-643 1026h440l-55 55h-330zM-111 1266v-332h-624v129l110 111h404l18 -19v111h92z" />
    <glyph glyph-name="uni0E36" unicode="&#xe36;" 
d="M-643 1026h438l-55 55h-328zM-190 1174l-21 -21v-31l21 -22h30l23 22v31l-23 21h-30zM-111 934h-626v129l110 111h324v16l76 76h106l76 -76v-107l-66 -65v-84z" />
    <glyph glyph-name="uni0E37" unicode="&#xe37;" 
d="M-643 1026h438l-55 55h-328zM-111 1266v-332h-626v129l112 111h275v92h92v-92h37l18 -19v111h92z" />
    <glyph glyph-name="uni0E38" unicode="&#xe38;" 
d="M-254 -223h31l22 20v31l-22 22h-31l-20 -22v-31zM-109 -463h-110v148h-72l-76 75v107l76 76h107l75 -76v-330z" />
    <glyph glyph-name="uni0E39" unicode="&#xe39;" 
d="M-440 -225h30l21 20v31l-21 22h-30l-23 -22v-31zM-223 -59h110v-406h-295v148h-71l-76 73v109l76 76h106l76 -76v-219h74v295z" />
    <glyph glyph-name="uni0E3A" unicode="&#xe3a;" 
d="M-104 -102v-60l-43 -45h-62l-43 45v60l43 43h62z" />
    <glyph glyph-name="uni0E3F" unicode="&#xe3f;" horiz-adv-x="724" 
d="M369 387v-276h118l48 45v186l-48 45h-118zM166 111h92v276h-92v-276zM258 774h-92v-276h92v276zM369 774v-276h84l45 45v186l-47 45h-82zM369 0v-74h-111v74h-203v885h203v73h111v-73h129l110 -111v-276l-37 -37l74 -74v-276l-110 -111h-166z" />
    <glyph glyph-name="uni0E40" unicode="&#xe40;" horiz-adv-x="419" 
d="M274 123v47l-30 31h-47l-31 -31v-47l31 -31h47zM72 809h110v-516h99l86 -86v-121l-86 -86h-121l-88 86v723z" />
    <glyph glyph-name="uni0E41" unicode="&#xe41;" horiz-adv-x="765" 
d="M625 125v45l-33 33h-45l-33 -33v-45l33 -33h45zM422 811h110v-516h99l86 -86v-123l-86 -86h-123l-86 86v725zM274 125v45l-32 33h-45l-33 -33v-45l33 -33h45zM182 295h99l86 -86v-123l-86 -86h-123l-86 86v725h110v-516z" />
    <glyph glyph-name="uni0E42" unicode="&#xe42;" horiz-adv-x="614" 
d="M469 125v45l-33 33h-45l-33 -33v-45l33 -33h45zM414 1253v-110h-324l-16 -17l303 -112v-719h98l86 -86v-123l-86 -86h-123l-86 86v860l-332 123v74l111 110h369z" />
    <glyph glyph-name="uni0E43" unicode="&#xe43;" horiz-adv-x="628" 
d="M483 125v45l-32 33h-45l-33 -33v-45l33 -33h45zM133 991v45l-33 33h-45l-32 -33v-45l32 -33h45zM391 295h98l86 -86v-123l-86 -86h-122l-86 86v1012l-45 45h-78l67 -68v-123l-86 -86h-123l-86 86v191l111 110h240l110 -110v-848z" />
    <glyph glyph-name="uni0E44" unicode="&#xe44;" horiz-adv-x="612" 
d="M467 125v45l-33 33h-45l-33 -33v-45l33 -33h45zM-68 1143v110h136l98 -100l98 98v2h111v-958h98l86 -86v-123l-86 -86h-123l-86 86v1036l-98 -98l-119 119h-115z" />
    <glyph glyph-name="uni0E45" unicode="&#xe45;" horiz-adv-x="753" 
d="M643 -371h-111v1026l-45 45h-276l-47 -45v-47h-109v92l109 111h371l108 -111v-1071z" />
    <glyph glyph-name="uni0E46" unicode="&#xe46;" horiz-adv-x="727" 
d="M266 559l-33 31h-45l-32 -31v-47l32 -31h45l33 31v47zM616 -367h-110v1022l-45 45h-39l-55 -55l-56 55h-92l-18 -18h69l88 -86v-121l-88 -88h-120l-87 88v225l111 111h158l35 -35l36 35h103l110 -109v-1069z" />
    <glyph glyph-name="uni0E47" unicode="&#xe47;" 
d="M-236 1047v28l-20 23h-31l-22 -23v-28l22 -23h31zM-475 1098l74 -74v90l39 39h-111l-57 -57v-54zM-623 932v203l111 110h248l57 58l66 -66l-62 -61l60 -62v-106l-76 -76h-219l-37 37l-35 -37h-113z" />
    <glyph glyph-name="uni0E48" unicode="&#xe48;" 
d="M-201 1313v332h92v-332h-92z" />
    <glyph glyph-name="uni0E49" unicode="&#xe49;" 
d="M-350 1530v-31l22 -22h31l21 22v31l-21 20h-31zM-442 1311v92h57l-57 57v107l75 75h107l76 -75v-107l-58 -57h76l166 166l66 -64l-195 -194h-313z" />
    <glyph glyph-name="uni0E4A" unicode="&#xe4a;" 
d="M-344 1446l22 -23h29l23 23v31l-21 20h-31l-22 -20v-31zM68 1583l59 -59l-211 -211l-59 59l57 58l-35 34l-133 -133h-106l-76 76v106l76 76h106l64 -63l63 63l100 -100z" />
    <glyph glyph-name="uni0E4B" unicode="&#xe4b;" 
d="M-8 1507v-92h-103v-102h-92v102h-100v92h100v101h92v-101h103z" />
    <glyph glyph-name="uni0E4C" unicode="&#xe4c;" 
d="M-225 1380h-31l-20 -20v-31l20 -22h31l22 22v31zM-80 1556l-94 -96l63 -63v-107l-75 -76h-107l-76 76v107l224 225z" />
    <glyph glyph-name="uni0E4D" unicode="&#xe4d;" 
d="M-258 1024l20 23v28l-20 23h-31l-22 -23v-28l22 -23h31zM-221 1190l76 -76v-106l-76 -76h-107l-75 76v106l75 76h107z" />
    <glyph glyph-name="uni0E4E" unicode="&#xe4e;" 
d="M23 1282v-111h-121l-8 -8v-121h-121l-9 -8v-102h-110v147l74 74h55v55l74 74h166z" />
    <glyph glyph-name="uni0E4F" unicode="&#xe4f;" horiz-adv-x="794" 
d="M578 211v168l-119 119h-168l-119 -119v-168l119 -119h168zM496 590l174 -174v-244l-174 -172h-244l-172 172v244l172 174h244zM430 272v45l-33 33h-45l-33 -33v-45l33 -32h45zM313 442h123l86 -86v-123l-86 -86h-123l-86 86v123z" />
    <glyph glyph-name="uni0E50" unicode="&#xe50;" horiz-adv-x="862" 
d="M623 156v276l-45 47h-351l-47 -47v-276l47 -45h351zM623 590l110 -111v-370l-108 -109h-445l-110 111v368l110 111h443z" />
    <glyph glyph-name="uni0E51" unicode="&#xe51;" horiz-adv-x="829" 
d="M295 170v-45l33 -33h45l33 33v45l-33 33h-45zM608 590l111 -111v-424l-129 -129l-78 78l96 96v332l-45 47h-352l-45 -45v-278l37 -37v90l86 86h123l86 -86v-123l-86 -86h-246l-111 111v368l111 111h442z" />
    <glyph glyph-name="uni0E52" unicode="&#xe52;" horiz-adv-x="974" 
d="M408 350h-46l-32 -33v-45l32 -32h46l32 32v45zM53 700h111v-563l45 -45h500l45 45v295l-45 47h-11l-92 -92l-92 92h-121l-37 -37h90l86 -86v-123l-86 -86h-122l-86 86v246l110 111h211l47 -47l47 47h101l110 -111v-370l-110 -109h-590l-111 111v589z" />
    <glyph glyph-name="uni0E53" unicode="&#xe53;" horiz-adv-x="940" 
d="M227 203h-47l-30 -33v-45l30 -33h47l31 33v45zM829 0h-110v432l-45 47h-94l-45 -45v-434h-111v432l-45 47h-166l-47 -45v-139h98l86 -86v-123l-86 -86h-121l-86 86v393l109 111h258l55 -55l56 55h184l110 -111v-479z" />
    <glyph glyph-name="uni0E54" unicode="&#xe54;" horiz-adv-x="866" 
d="M369 299v-45l30 -33h47l31 33v45l-31 33h-47zM756 111v-111h-590l-111 109v370l111 109h473l111 112l79 -79l-143 -144h-475l-45 -45v-276l45 -45h170l-105 104v123l86 86h123l86 -86v-123l-75 -76l28 -28h232z" />
    <glyph glyph-name="uni0E55" unicode="&#xe55;" horiz-adv-x="864" 
d="M367 668v-45l32 -33h45l33 33v45l-33 32h-45zM367 299v-45l32 -33h45l33 33v45l-33 33h-45zM754 111v-111h-590l-111 109v370l111 109h110v117l86 88h123l86 -88v-117h70l111 112l77 -79l-143 -144h-475l-45 -45v-276l45 -45h170l-105 104v123l86 86h123l86 -86v-123
l-75 -76l28 -28h232z" />
    <glyph glyph-name="uni0E56" unicode="&#xe56;" horiz-adv-x="950" 
d="M385 92l31 33v45l-31 33h-47l-31 -33v-45l31 -33h47zM508 111h176l45 45v276l-45 45h-471l-141 144l78 79l110 -112h471l109 -109v-368l-111 -111h-428l-88 86v121l88 88h121l86 -88v-96z" />
    <glyph glyph-name="uni0E57" unicode="&#xe57;" horiz-adv-x="1048" 
d="M223 203h-45l-33 -33v-45l33 -33h45l33 33v45zM827 698h111v-514l-186 -184h-109v432l-47 47h-100l-93 -92l-92 92h-102l-45 -45v-139h98l86 -86v-123l-86 -86h-123l-86 86v393l111 111h192l47 -47l46 47h194l111 -111v-323l73 73v469z" />
    <glyph glyph-name="uni0E58" unicode="&#xe58;" horiz-adv-x="933" 
d="M604 125l33 -33h45l33 33v45l-33 33h-45l-33 -33v-45zM512 111v96l86 88h123l86 -88v-121l-86 -86h-303l-119 119l-119 -119l-110 109v370l110 111h471l111 110l78 -79l-144 -142v-2h-471l-45 -45v-276l119 118l166 -163h47z" />
    <glyph glyph-name="uni0E59" unicode="&#xe59;" horiz-adv-x="884" 
d="M293 170v-45l33 -33h45l32 33v45l-32 33h-45zM168 434v-278l33 -33v86l86 86h121l88 -86v-123l-88 -86h-240l-111 111v368l111 111h162l100 -103l102 103h101l110 110l78 -79l-143 -142h-100l-70 -69l338 -338l-72 -72l-477 479h-84z" />
    <glyph glyph-name="uni0E5A" unicode="&#xe5a;" horiz-adv-x="935" 
d="M139 608h47l31 33v45l-31 33h-47l-30 -33v-45zM715 811h110v-811h-110v608l-92 -92h-56v-516h-110v608l-92 -92h-263l-88 86v123l88 86h121l86 -86v-98h10l138 137v47h110v-184h11l137 137v47z" />
    <glyph glyph-name="uni0E5B" unicode="&#xe5b;" horiz-adv-x="1525" 
d="M422 410l-33 30h-45l-33 -30v-48l33 -30h45l33 30v48zM1257 473l160 -12v-37l-221 -35l-100 -100l-103 102l-102 -102l-100 102l-103 -102l-8 10v-78l-129 -129h-387l-111 111v368l111 109h239l111 -109v-245l-86 -86h-123l-86 86v120l86 89h90l-37 36h-149l-45 -47v-276
l45 -45h297l63 63v285l119 -119l103 100l100 -100l102 100l103 -100l100 100z" />
    <glyph glyph-name="zerowidthnonjoiner" unicode="&#x200c;" 
d="M-45 492h92v-1123h-92v1123z" />
    <glyph glyph-name="zerowidthjoiner" unicode="&#x200d;" 
d="M45 -631h-92v899l-31 -30l-51 49l78 78q-15 15 -43 45l-35 34l51 50q16 -18 76 -78l78 78l51 -50l-35 -34q-14 -14 -26.5 -27.5t-16.5 -17.5l78 -78l-51 -49q-12 8 -19.5 17t-11.5 13v-899z" />
    <glyph glyph-name="lefttorightmark" unicode="&#x200e;" 
d="M47 334v-965h-92v1059h260q-22 22 -25 27l48 49l122 -123l-122 -125l-48 53q4 2 12.5 11.5t12.5 13.5h-168z" />
    <glyph glyph-name="righttoleftmark" unicode="&#x200f;" 
d="M47 430v-1061h-92v967h-168l25 -25l-48 -53l-122 125l122 123l48 -49l-27 -27h262z" />
    <glyph glyph-name="endash" unicode="&#x2013;" horiz-adv-x="722" 
d="M61 387v111h553v-111h-553z" />
    <glyph glyph-name="emdash" unicode="&#x2014;" horiz-adv-x="1089" 
d="M59 387v111h920v-111h-920z" />
    <glyph glyph-name="quoteleft" unicode="&#x2018;" horiz-adv-x="354" 
d="M59 680v76l111 166h74l-62 -111h6l56 -55v-76l-56 -53h-75z" />
    <glyph glyph-name="quoteright" unicode="&#x2019;" horiz-adv-x="354" 
d="M244 866v-75l-111 -164h-74l62 110h-6l-56 54v75l56 56h75z" />
    <glyph glyph-name="quotesinglbase" unicode="&#x201a;" horiz-adv-x="352" 
d="M244 129v-76l-111 -164h-74l62 111h-8l-54 53v76l54 53h75z" />
    <glyph glyph-name="quotedblleft" unicode="&#x201c;" horiz-adv-x="610" 
d="M438 811h8l54 -55v-76l-54 -53h-75l-56 53v76l111 166h74zM170 922h72l-60 -111h6l54 -55v-76l-54 -53h-75l-54 53v76z" />
    <glyph glyph-name="quotedblright" unicode="&#x201d;" horiz-adv-x="610" 
d="M113 922h75l56 -56v-75l-111 -164h-74l62 110h-8l-54 54v75zM446 922l56 -56v-75l-111 -164h-74l62 110h-8l-54 54v75l54 56h75z" />
    <glyph glyph-name="quotedblbase" unicode="&#x201e;" horiz-adv-x="610" 
d="M446 182l54 -53v-76l-111 -164h-74l62 111h-6l-56 53v76l56 53h75zM113 182h75l54 -53v-76l-111 -164h-74l62 111h-6l-56 53v76z" />
    <glyph glyph-name="dagger" unicode="&#x2020;" horiz-adv-x="679" 
d="M571 608v-110h-202v-756h-111v756h-203v110h203v203h111v-203h202z" />
    <glyph glyph-name="daggerdbl" unicode="&#x2021;" horiz-adv-x="679" 
d="M569 498h-200v-185h200v-110h-200v-461h-111v461h-203v110h203v185h-203v110h203v203h111v-203h200v-110z" />
    <glyph glyph-name="bullet" unicode="&#x2022;" horiz-adv-x="499" 
d="M389 510v-137l-96 -97h-137l-97 97v137l97 98h137z" />
    <glyph glyph-name="ellipsis" unicode="&#x2026;" horiz-adv-x="1013" 
d="M850 182l53 -53v-76l-53 -53h-76l-55 53v76l55 53h76zM442 182h76l53 -53v-76l-53 -53h-76l-53 53v76zM111 182h75l56 -53v-76l-56 -53h-75l-54 53v76z" />
    <glyph glyph-name="perthousand" unicode="&#x2030;" horiz-adv-x="1331" 
d="M299 686l-33 33h-82l-32 -33v-82l32 -33h82l33 33v82zM391 725v-160l-86 -86h-160l-86 86v160l86 86h160zM635 885h127l-502 -885h-127zM1128 199v82l-32 32h-82l-33 -32v-82l33 -33h82zM1135 406l86 -87v-159l-86 -86h-160l-86 86v159l86 87h160zM741 199v82l-32 32h-82
l-31 -32v-82l31 -33h82zM588 406h160l86 -87v-159l-86 -86h-160l-86 86v159z" />
    <glyph glyph-name="minute" unicode="&#x2032;" horiz-adv-x="278" 
d="M23 698l36 185h111l-74 -185h-73z" />
    <glyph glyph-name="second" unicode="&#x2033;" horiz-adv-x="446" 
d="M225 883h111l-74 -185h-74zM23 698l36 185h111l-74 -185h-73z" />
    <glyph glyph-name="guilsinglleft" unicode="&#x2039;" horiz-adv-x="391" 
d="M281 616v-149l-117 -109l117 -108v-150l-222 203v109z" />
    <glyph glyph-name="guilsinglright" unicode="&#x203a;" horiz-adv-x="389" 
d="M57 616l222 -204v-109l-222 -203v150l119 108l-119 109v149z" />
    <glyph glyph-name="fraction" unicode="&#x2044;" horiz-adv-x="782" 
d="M547 885h127l-502 -885h-127z" />
    <glyph glyph-name="franc" unicode="&#x20a3;" horiz-adv-x="745" 
d="M158 498h440v-111h-440v-111h202v-110h-202v-166h-111v166h-55v110h55v498l111 109h477v-111h-432l-45 -45v-229z" />
    <glyph glyph-name="dong" unicode="&#x20ab;" horiz-adv-x="790" 
d="M53 -172v111h606v-111h-606zM567 156v215l-143 145h-215l-45 -47l-2 -313l47 -45h313zM678 809h55v-111h-55v-587l-111 -111h-405l-111 109l2 407l111 111h293v-2l110 -111v184h-92v111h92v74h111v-74z" />
    <glyph glyph-name="Euro" unicode="&#x20ac;" horiz-adv-x="937" 
d="M827 682h-110v45l-45 47h-387l-45 -45v-119h385v-110h-385v-111h385v-110h-385v-123l45 -45h387l45 45v47h110v-92l-108 -111h-479l-111 111v168h-70v110h70v111h-70v110h70v164l109 111h479l110 -111v-92z" />
    <glyph glyph-name="uni2113" unicode="&#x2113;" horiz-adv-x="548" 
d="M254 774v-258h10l45 47v166l-45 45h-10zM438 111v-111h-184l-111 111v129l-8 -9l-78 78l86 88v488h168l109 -111v-258l-166 -166v-192l47 -47h137z" />
    <glyph glyph-name="trademark" unicode="&#x2122;" horiz-adv-x="1126" 
d="M1016 885v-514h-92v288l-129 -288h-93l-129 288v-288h-92v514h94l175 -391l174 391h92zM57 793v92h351v-92h-129v-422h-93v422h-129z" />
    <glyph glyph-name="Ohm" unicode="&#x2126;" horiz-adv-x="903" 
d="M608 111h185v-111h-295v186l147 140v333l-45 46h-350l-47 -46v-333l147 -140v-186h-293v111h183v28l-146 137v429l109 110h442l111 -110v-429l-148 -137v-28z" />
    <glyph glyph-name="estimated" unicode="&#x212e;" horiz-adv-x="495" 
d="M166 424h108v121l-45 45h-18l-45 -45v-121zM385 313h-219v-155l45 -47h18l45 47v45h111v-92l-109 -111h-112l-109 111v479l109 110h112l109 -110v-277z" />
    <glyph glyph-name="partialdiff" unicode="&#x2202;" horiz-adv-x="495" 
d="M274 350h-63l-47 -45v-147l47 -47h18l45 47v192zM274 461v84l-45 45h-20l-45 -45v-47h-111v94l111 108h110l111 -110v-479l-109 -111h-112l-111 111v239l111 111h110z" />
    <glyph glyph-name="Delta" unicode="&#x2206;" horiz-adv-x="894" 
d="M174 111h483l-233 460h-12zM786 0h-737v111l295 571h148l294 -582v-100z" />
    <glyph glyph-name="product" unicode="&#x220f;" horiz-adv-x="806" 
d="M53 885h645v-1143h-110v1032h-424v-1032h-111v1143z" />
    <glyph glyph-name="summation" unicode="&#x2211;" horiz-adv-x="790" 
d="M55 885h625v-111h-514v-47l278 -285l-278 -284v-47h514v-111h-625v203l236 239l-236 240v203z" />
    <glyph glyph-name="minus" unicode="&#x2212;" horiz-adv-x="899" 
d="M72 387v111h702v-111h-702z" />
    <glyph glyph-name="radical" unicode="&#x221a;" horiz-adv-x="827" 
d="M57 276v111h195l82 -217l266 715h117l-328 -885h-110l-103 276h-119z" />
    <glyph glyph-name="infinity" unicode="&#x221e;" horiz-adv-x="1157" 
d="M938 358v168l-47 45h-160l-108 -129l108 -129h160zM371 313l108 129l-108 129h-162l-45 -45v-168l45 -45h162zM938 682l109 -111v-258l-109 -110h-258l-129 153l-129 -153h-258l-111 110v258l111 111h258l129 -154l129 154h258z" />
    <glyph glyph-name="integral" unicode="&#x222b;" horiz-adv-x="735" 
d="M0 0v111h143l56 45l131 618l133 111h162v-111h-140l-55 -45l-131 -618l-133 -111h-166z" />
    <glyph glyph-name="approxequal" unicode="&#x2248;" horiz-adv-x="868" 
d="M559 358l129 76l55 -96l-168 -98l-321 86l-127 -72l-55 96l166 94zM254 528l-127 -73l-55 96l166 96l321 -86l129 74l55 -96l-168 -97z" />
    <glyph glyph-name="notequal" unicode="&#x2260;" horiz-adv-x="602" 
d="M492 442h-164l-29 -129h193v-110h-216l-43 -203h-110l43 203h-117v110h141l27 129h-168v111h191l41 184h108l-39 -184h142v-111z" />
    <glyph glyph-name="lessequal" unicode="&#x2264;" horiz-adv-x="862" 
d="M735 737v-116l-491 -179l491 -176v-119l-663 240v111zM72 0v111h663v-111h-663z" />
    <glyph glyph-name="greaterequal" unicode="&#x2265;" horiz-adv-x="862" 
d="M74 737l661 -239v-111l-661 -240v119l489 176l-489 179v116zM74 0v111h661v-111h-661z" />
    <glyph glyph-name="lozenge" unicode="&#x25ca;" horiz-adv-x="739" 
d="M344 111l162 313l-162 313h-14l-158 -313l158 -313h14zM412 848l217 -424l-217 -424h-150l-213 424l213 424h150z" />
    <glyph glyph-name="dottedcircle" unicode="&#x25cc;" horiz-adv-x="1077" 
d="M479 168h70l49 -49v-70l-49 -49h-70l-49 49v70zM219 276h70l49 -49v-69l-49 -49h-70l-49 49v69zM739 276h70l49 -49v-69l-49 -49h-70l-49 49v69zM111 537h69l49 -50v-69l-49 -49h-69l-50 49v69zM848 537h70l49 -50v-69l-49 -49h-70l-49 49v69zM219 797h70l49 -49v-70
l-49 -49h-70l-49 49v70zM739 797h70l49 -49v-70l-49 -49h-70l-49 49v70zM479 905h70l49 -49v-70l-49 -49h-70l-49 49v70z" />
    <glyph glyph-name="uni0E10.alt1" unicode="&#xf700;" horiz-adv-x="780" 
d="M393 309v47l-33 31h-45l-32 -31v-47l32 -30h45zM707 700h-508l-21 -20l492 -127v-553h-111v176l-84 84l-76 -76h-123l-86 86v123l86 86h123l160 -160v158l-514 131h-2v92l111 111h553v-111z" />
    <glyph glyph-name="uni0E34.alt1" unicode="&#xf701;" 
d="M-803 1024h438l-55 55h-328zM-270 932h-627v129l111 110h405l111 -110v-129z" />
    <glyph glyph-name="uni0E35.alt1" unicode="&#xf702;" 
d="M-801 1024h439l-56 55h-327zM-268 1264v-332h-627v129l111 110h405l19 -18v111h92z" />
    <glyph glyph-name="uni0E36.alt1" unicode="&#xf703;" 
d="M-834 1020h439l-56 55h-329zM-381 1167l-22 -20v-31l22 -22h31l20 22v31l-20 20h-31zM-303 928h-625v129l111 110h321v17l76 76h107l75 -76v-107l-65 -65v-84z" />
    <glyph glyph-name="uni0E37.alt1" unicode="&#xf704;" 
d="M-799 1022h439l-56 55h-327zM-266 1262v-332h-627v129l111 110h276v93h92v-93h35l21 -18v111h92z" />
    <glyph glyph-name="uni0E48.alt1" unicode="&#xf705;" 
d="M-362 932v330h92v-330h-92z" />
    <glyph glyph-name="uni0E49.alt1" unicode="&#xf706;" 
d="M-631 1151v-31l21 -22h30l23 22v31l-23 20h-30zM-723 932v92h57l-57 57v107l74 76h108l74 -76v-107l-55 -57h73l166 168l66 -66l-193 -194h-313z" />
    <glyph glyph-name="uni0E4A.alt1" unicode="&#xf707;" 
d="M-696 1065l22 -23h31l20 23v31l-20 20h-31l-22 -20v-31zM-285 1204l60 -61l-211 -211l-60 59l58 58l-35 34l-133 -133h-107l-75 76v107l75 75h107l63 -63l64 63l100 -100z" />
    <glyph glyph-name="uni0E4B.alt1" unicode="&#xf708;" 
d="M-244 1126v-92h-102v-102h-90v102h-103v92h103v101h90v-101h102z" />
    <glyph glyph-name="uni0E4C.alt1" unicode="&#xf709;" 
d="M-383 1098h-29l-22 -21v-30l22 -23h29l23 23v30zM-238 1274l-94 -94l64 -66v-106l-76 -76h-107l-75 76v106l223 225z" />
    <glyph glyph-name="uni0E48.alt2" unicode="&#xf70a;" 
d="M-236 932v332h91v-332h-91z" />
    <glyph glyph-name="uni0E49.alt2" unicode="&#xf70b;" 
d="M-348 1149v-31l20 -20h31l23 20v31l-23 22h-31zM-440 932v92h57l-57 57v107l75 76h107l76 -76v-107l-58 -57h74l166 166l66 -66l-193 -192h-313z" />
    <glyph glyph-name="uni0E4A.alt2" unicode="&#xf70c;" 
d="M-344 1065l22 -21h31l21 21v31l-21 22h-31l-22 -22v-31zM68 1204l59 -59l-211 -211l-59 59l57 58l-35 34l-133 -133h-106l-76 76v107l76 75h106l64 -63l63 61l100 -98z" />
    <glyph glyph-name="uni0E4B.alt2" unicode="&#xf70d;" 
d="M-43 1126v-92h-100v-100h-93v100h-102v92h102v103h93v-103h100z" />
    <glyph glyph-name="uni0E4C.alt2" unicode="&#xf70e;" 
d="M-256 1102h-31l-22 -23v-30l22 -21h31l20 21v30zM-113 1276l-94 -94l64 -64v-106l-76 -76h-107l-75 76v106l223 223z" />
    <glyph glyph-name="uni0E0D.alt1" unicode="&#xf70f;" horiz-adv-x="1208" 
d="M221 203l-31 -31v-47l31 -31h47l31 31v47l-31 31h-47zM209 295h96l88 -86v-121l-88 -88h-121l-86 88v412l82 82l-119 118l109 111h444l109 -111v-589h213l45 47v653h111v-700l-111 -111h-367v655l-47 45h-350l119 -118l-127 -127v-160z" />
    <glyph glyph-name="uni0E31.alt1" unicode="&#xf710;" 
d="M-721 1024l23 20v31l-23 23h-31l-20 -23v-31l20 -20h31zM-606 1042h219l74 74l65 -65l-121 -119h-422l-73 74v108l73 74h109l76 -74v-72z" />
    <glyph glyph-name="uni0E4D.alt1" unicode="&#xf711;" 
d="M-383 1024l21 20v31l-21 23h-31l-22 -23v-31l22 -20h31zM-346 1188l76 -74v-108l-76 -74h-107l-75 74v108l75 74h107z" />
    <glyph glyph-name="uni0E47.alt1" unicode="&#xf712;" 
d="M-362 1044v31l-21 23h-31l-22 -23v-31l22 -20h31zM-602 1098l74 -74v90l39 37h-111l-57 -55v-54zM-750 932v201l111 110h248l57 57l66 -65l-62 -61l60 -60v-108l-76 -74h-219l-37 35l-35 -35h-113z" />
    <glyph glyph-name="uni0E48.alt3" unicode="&#xf713;" 
d="M-360 1311v331h92v-331h-92z" />
    <glyph glyph-name="uni0E49.alt3" unicode="&#xf714;" 
d="M-504 1526v-31l23 -20h28l23 20v31l-23 22h-28zM-596 1309v92h57l-57 57v107l76 75h106l76 -75v-107l-57 -57h73l168 166l64 -66l-193 -192h-313z" />
    <glyph glyph-name="uni0E4A.alt3" unicode="&#xf715;" 
d="M-496 1444l21 -21h31l22 21v31l-22 22h-31l-21 -22v-31zM-84 1583l59 -59l-213 -211l-59 59l57 58l-32 34l-134 -133h-106l-76 76v106l76 76h106l64 -65l63 63l99 -98z" />
    <glyph glyph-name="uni0E4B.alt3" unicode="&#xf716;" 
d="M-182 1503v-92h-101v-100h-92v100h-102v92h102v103h92v-103h101z" />
    <glyph glyph-name="uni0E4C.alt3" unicode="&#xf717;" 
d="M-383 1378h-31l-22 -22v-31l22 -20h31l21 20v31zM-238 1552l-96 -94l64 -63v-107l-76 -76h-107l-75 76v107l225 223z" />
    <glyph glyph-name="uni0E38.alt1" unicode="&#xf718;" 
d="M-252 -606h31l22 20v31l-22 23h-31l-20 -23v-31zM-106 -846h-111v148h-72l-76 73v109l76 76h107l76 -76v-330z" />
    <glyph glyph-name="uni0E39.alt1" unicode="&#xf719;" 
d="M-436 -606h30l21 20v31l-21 23h-30l-23 -23v-31zM-219 -440h110v-406h-294v148h-72l-74 75v107l74 76h108l74 -76v-219h74v295z" />
    <glyph glyph-name="uni0E3A.alt1" unicode="&#xf71a;" 
d="M-113 -498v-75l-53 -54h-76l-55 54v75l55 56h76z" />
    <glyph glyph-name="uni0E0E.alt1" unicode="&#xf71b;" horiz-adv-x="933" 
d="M512 -258l37 37l-37 37h-182l-21 -21v-31l21 -22h182zM217 125v45l-33 33h-45l-33 -33v-45l33 -33h45zM825 -369h-110l-76 76l-76 -76h-278l-86 86v123l86 86h278l152 -151v880l-45 45h-351l119 -118l-129 -129v-367l-86 -86h-123l-86 86v123l86 86h99v205l82 82
l-119 118l110 111h443l110 -111v-1069z" />
    <glyph glyph-name="uni0E0F.alt1" unicode="&#xf71c;" horiz-adv-x="933" 
d="M385 -236v31l-23 21h-30l-21 -21v-31l21 -22h30zM217 125v45l-31 33h-47l-30 -33v-45l30 -33h47zM825 -369h-110l-76 78l-78 -78l-78 76l-75 -76h-121l-86 86v123l86 86h121l153 -151l78 78l76 -78v880l-45 45h-351l119 -118l-127 -129v-367l-88 -86h-121l-86 86v123
l86 86h99v205l82 82l-119 118l108 111h445l108 -111v-1069z" />
    <glyph glyph-name="uni0E2C.alt1" unicode="&#xf71d;" horiz-adv-x="935" 
d="M141 608h45l33 31v47l-33 31h-45l-32 -31v-47zM657 645h45l33 31v47l-33 31h-45l-32 -31v-47zM827 0h-110l-203 324l-203 -324h-110v514h-99l-86 88v121l86 86h123l86 -86v-533l203 324l203 -324v361h-99l-86 86v123l86 86h121l76 -76l78 76l72 -70l-138 -139v-637z" />
    <glyph glyph-name="uni0E33.alt1" horiz-adv-x="753" 
d="M-395 1057v45l-31 33h-47l-31 -33v-45l31 -33h47zM-510 1227h121l86 -86v-123l-86 -86h-121l-88 86v123zM643 0h-111v655l-45 45h-278l-45 -47v-45h-111v92l111 111h368l111 -111v-700z" />
    <glyph glyph-name="uni0E4E.alt1" 
d="M-395 1282v-111h-121l-8 -8v-121h-121l-8 -8v-102h-111v147l74 74h55v55l74 74h166z" />
  </font>
</defs>
</svg>
