<?xml version="1.0" standalone="no"?>
<!DOCTYPE svg PUBLIC "-//W3C//DTD SVG 1.1//EN" "http://www.w3.org/Graphics/SVG/1.1/DTD/svg11.dtd" >
<svg xmlns="http://www.w3.org/2000/svg">
<metadata>
Created by FontPrep 20130207 at Sun Jun  8 15:27:29 2014
 By Sappawish Siripon
Copyright (c) 2006E^by Department of Intellectual Property (DIP), Ministry of Commerce and Software Industry Promotion Agency (Public Organization) (SIPA). All rights reserved.
</metadata>
<defs>
<font id="face93d9b911af9764273167c93422f0" horiz-adv-x='1024' >
  <font-face 
    font-family="THChakraPetch"
    font-weight="400"
    font-stretch="normal"
    units-per-em="2048"
    panose-1="2 0 5 6 0 0 0 2 0 4"
    ascent="1638"
    descent="-410"
    x-height="625"
    cap-height="883"
    bbox="-852 -834 2791 1606"
    underline-thickness="61"
    underline-position="-41"
    unicode-range="U+0020-FB02"
  />
<missing-glyph horiz-adv-x="798" 
d="M618 74v1032h-479v-1032h479zM66 1180h626v-1180h-626v1180z" />
    <glyph glyph-name="Agrave" unicode="A&#x300;" 
d="M582 332v125l-209 352h-27l-207 -350v-127h443zM655 0h-73v258h-443v-258h-73v477l239 406h111l239 -406v-477zM444 967l-194 123l61 61l160 -160z" />
    <glyph glyph-name="Aacute" unicode="A&#x301;" 
d="M582 332v125l-209 352h-27l-207 -350v-127h443zM655 0h-73v258h-443v-258h-73v477l239 406h111l239 -406v-477zM276 967l-24 24l158 160l61 -61z" />
    <glyph glyph-name="Atilde" unicode="A&#x303;" 
d="M582 332v125l-209 352h-27l-207 -350v-127h443zM655 0h-73v258h-443v-258h-73v477l239 406h111l239 -406v-477zM526 1139l25 -29l-150 -102l-92 57l-114 -55l-25 26l143 105l95 -60z" />
    <glyph glyph-name="Egrave" unicode="E&#x300;" horiz-adv-x="724" 
d="M141 479h441v-73h-441v-267l66 -65h411v-74h-440l-110 111v661l110 111h440v-74h-409l-68 -68v-262zM428 967l-195 123l62 61l160 -160z" />
    <glyph glyph-name="Eacute" unicode="E&#x301;" horiz-adv-x="724" 
d="M141 479h441v-73h-441v-267l66 -65h411v-74h-440l-110 111v661l110 111h440v-74h-409l-68 -68v-262zM258 967l-25 24l158 160l62 -61z" />
    <glyph glyph-name="Igrave" unicode="I&#x300;" horiz-adv-x="243" 
d="M139 0h-73v883h73v-883zM141 967l-194 123l61 61l160 -160z" />
    <glyph glyph-name="Iacute" unicode="I&#x301;" horiz-adv-x="243" 
d="M139 0h-73v883h73v-883zM68 967l-25 24l158 160l61 -61z" />
    <glyph glyph-name="Ograve" unicode="O&#x300;" horiz-adv-x="794" 
d="M616 141v602l-67 66h-344l-68 -68v-602l68 -65h344zM580 883l110 -111v-661l-110 -111h-406l-111 111v661l111 111h406zM461 967l-195 123l62 61l159 -160z" />
    <glyph glyph-name="Oacute" unicode="O&#x301;" horiz-adv-x="796" 
d="M616 141v602l-67 66h-344l-68 -68v-602l68 -65h344zM580 883l110 -111v-661l-110 -111h-406l-111 111v661l111 111h406zM293 967l-25 24l158 160l61 -61z" />
    <glyph glyph-name="Otilde" unicode="O&#x303;" horiz-adv-x="796" 
d="M616 141v602l-67 66h-344l-68 -68v-602l68 -65h344zM580 883l110 -111v-661l-110 -111h-406l-111 111v661l111 111h406zM543 1139l24 -29l-149 -102l-92 57l-115 -55l-25 26l144 105l94 -60z" />
    <glyph glyph-name="Ugrave" unicode="U&#x300;" 
d="M582 883h73v-772l-110 -111h-369l-110 111v772h73v-744l68 -65h307l68 67v742zM444 967l-194 123l61 61l160 -160z" />
    <glyph glyph-name="Uacute" unicode="U&#x301;" 
d="M582 883h73v-772l-110 -111h-369l-110 111v772h73v-744l68 -65h307l68 67v742zM276 967l-24 24l158 160l61 -61z" />
    <glyph glyph-name="Yacute" unicode="Y&#x301;" 
d="M582 883h73v-258l-258 -219v-406h-73v408l-258 219v256h73v-221l223 -191l220 188v224zM276 967l-24 24l158 160l61 -61z" />
    <glyph glyph-name="agrave" unicode="a&#x300;" 
d="M582 313h-375l-68 -67v-105l68 -67h209l166 166v73zM655 0h-73v150l-148 -150h-258l-110 111v165l110 111h406v98l-68 68h-307l-68 -68v-43h-73v74l110 111h369l110 -111v-516zM444 705l-194 122l61 62l160 -160z" />
    <glyph glyph-name="aacute" unicode="a&#x301;" 
d="M582 313h-375l-68 -67v-105l68 -67h209l166 166v73zM655 0h-73v150l-148 -150h-258l-110 111v165l110 111h406v98l-68 68h-307l-68 -68v-43h-73v74l110 111h369l110 -111v-516zM276 705l-24 24l158 160l61 -62z" />
    <glyph glyph-name="atilde" unicode="a&#x303;" 
d="M582 313h-375l-68 -67v-105l68 -67h209l166 166v73zM655 0h-73v150l-148 -150h-258l-110 111v165l110 111h406v98l-68 68h-307l-68 -68v-43h-73v74l110 111h369l110 -111v-516zM526 877l25 -29l-150 -103l-92 58l-114 -55l-25 26l143 105l95 -60z" />
    <glyph glyph-name="egrave" unicode="e&#x300;" 
d="M141 369h443v116l-68 68h-307l-68 -68v-116zM657 295h-516v-154l68 -67h307l68 67v43h73v-73l-110 -111h-369l-110 111v405l110 111h369l110 -111v-221zM446 705l-194 122l61 62l160 -160z" />
    <glyph glyph-name="eacute" unicode="e&#x301;" 
d="M141 369h443v116l-68 68h-307l-68 -68v-116zM657 295h-516v-154l68 -67h307l68 67v43h73v-73l-110 -111h-369l-110 111v405l110 111h369l110 -111v-221zM279 705l-25 24l158 160l61 -62z" />
    <glyph glyph-name="igrave" unicode="i&#x300;" horiz-adv-x="243" 
d="M68 0v625h73v-625h-73zM143 705l-194 122l61 62l160 -160z" />
    <glyph glyph-name="iacute" unicode="i&#x301;" horiz-adv-x="243" 
d="M68 0v625h73v-625h-73zM70 705l-25 24l158 160l61 -62z" />
    <glyph glyph-name="ograve" unicode="o&#x300;" horiz-adv-x="761" 
d="M209 74h307l68 67v344l-68 68h-307l-68 -68v-344zM657 111l-110 -111h-369l-110 111v405l110 111h369l110 -111v-405zM446 705l-194 122l61 62l160 -160z" />
    <glyph glyph-name="oacute" unicode="o&#x301;" horiz-adv-x="761" 
d="M209 74h307l68 67v344l-68 68h-307l-68 -68v-344zM657 111l-110 -111h-369l-110 111v405l110 111h369l110 -111v-405zM279 705l-25 24l158 160l61 -62z" />
    <glyph glyph-name="otilde" unicode="o&#x303;" 
d="M209 74h307l68 67v344l-68 68h-307l-68 -68v-344zM657 111l-110 -111h-369l-110 111v405l110 111h369l110 -111v-405zM528 877l25 -29l-150 -103l-92 58l-114 -55l-25 26l143 105l95 -60z" />
    <glyph glyph-name="ugrave" unicode="u&#x300;" horiz-adv-x="722" 
d="M547 625h74v-625h-74v147l-148 -147h-221l-110 109v516h73v-486l68 -67h172l166 166v387zM428 705l-195 122l62 62l160 -160z" />
    <glyph glyph-name="uacute" unicode="u&#x301;" horiz-adv-x="722" 
d="M547 625h74v-625h-74v147l-148 -147h-221l-110 109v516h73v-486l68 -67h172l166 166v387zM260 705l-24 24l157 160l62 -62z" />
    <glyph glyph-name="yacute" unicode="y&#x301;" horiz-adv-x="761" 
d="M657 627v-774l-110 -111h-185v74h154l68 67v264l-148 -147h-258l-110 111v516h73v-486l68 -67h209l166 166v387h73zM279 705l-25 24l158 160l61 -62z" />
    <glyph glyph-name="Itilde" unicode="I&#x303;" horiz-adv-x="243" 
d="M139 0h-73v883h73v-883zM270 1139l25 -29l-150 -102l-92 57l-114 -55l-25 26l143 105l95 -60z" />
    <glyph glyph-name="itilde" unicode="i&#x303;" horiz-adv-x="243" 
d="M68 0v625h73v-625h-73zM272 809l25 -29l-150 -102l-92 57l-114 -55l-25 27l143 104l95 -59z" />
    <glyph glyph-name="Utilde" unicode="U&#x303;" 
d="M582 883h73v-772l-110 -111h-369l-110 111v772h73v-744l68 -65h307l68 67v742zM526 1139l25 -29l-150 -102l-92 57l-114 -55l-25 26l143 105l95 -60z" />
    <glyph glyph-name="utilde" unicode="u&#x303;" horiz-adv-x="724" 
d="M547 625h74v-625h-74v147l-148 -147h-221l-110 109v516h73v-486l68 -67h172l166 166v387zM510 877l25 -29l-150 -103l-92 58l-115 -55l-24 26l143 105l94 -60z" />
    <glyph glyph-name="uni1EA0" unicode="A&#x323;" 
d="M582 332v125l-209 352h-27l-207 -350v-127h443zM655 0h-73v258h-443v-258h-73v477l239 406h111l239 -406v-477zM428 -100v-56l-39 -39h-55l-39 39v56l39 39h55z" />
    <glyph glyph-name="uni1EA1" unicode="a&#x323;" 
d="M582 313h-375l-68 -67v-105l68 -67h209l166 166v73zM655 0h-73v150l-148 -150h-258l-110 111v165l110 111h406v98l-68 68h-307l-68 -68v-43h-73v74l110 111h369l110 -111v-516zM428 -98v-56l-39 -39h-55l-39 39v56l39 39h55z" />
    <glyph glyph-name="uni1EA2" unicode="A&#x309;" 
d="M582 332v125l-209 352h-27l-207 -350v-127h443zM655 0h-73v258h-443v-258h-73v477l239 406h111l239 -406v-477zM385 1077q-10 10 -16 19h-35q-2 -2 -9 -6t-17 -12t-25 -13l-27 14l63 72h72l49 -49v-72l-82 -63l-28 16l55 70v24z" />
    <glyph glyph-name="uni1EA3" unicode="a&#x309;" 
d="M582 313h-375l-68 -67v-105l68 -67h209l166 166v73zM655 0h-73v150l-148 -150h-258l-110 111v165l110 111h406v98l-68 68h-307l-68 -68v-43h-73v74l110 111h369l110 -111v-516zM336 834q-16 -16 -51 -31l-27 14l64 72h71l49 -49v-72l-82 -63l-28 16l55 70v24
q-10 10 -16 19h-35z" />
    <glyph glyph-name="uni1EA4" unicode="&#xc2;&#x301;" 
d="M582 332v125l-209 352h-27l-207 -350v-127h443zM655 0h-73v258h-443v-258h-73v477l239 406h111l239 -406v-477zM178 993l160 158h47l158 -158l-25 -26l-158 104l-155 -104zM508 1098l-25 24l158 160l61 -61z" />
    <glyph glyph-name="uni1EA5" unicode="&#xe2;&#x301;" 
d="M582 313h-375l-68 -67v-105l68 -67h209l166 166v73zM655 0h-73v150l-148 -150h-258l-110 111v165l110 111h406v98l-68 68h-307l-68 -68v-43h-73v74l110 111h369l110 -111v-516zM178 731l160 158h47l158 -158l-25 -26l-158 104l-155 -104zM508 840l-25 24l158 160l61 -61z
" />
    <glyph glyph-name="uni1EA6" unicode="&#xc2;&#x300;" 
d="M582 332v125l-209 352h-27l-207 -350v-127h443zM655 0h-73v258h-443v-258h-73v477l239 406h111l239 -406v-477zM178 993l160 158h47l158 -158l-25 -26l-158 104l-155 -104zM547 1100l-195 123l62 61l159 -160z" />
    <glyph glyph-name="uni1EA7" unicode="&#xe2;&#x300;" 
d="M582 313h-375l-68 -67v-105l68 -67h209l166 166v73zM655 0h-73v150l-148 -150h-258l-110 111v165l110 111h406v98l-68 68h-307l-68 -68v-43h-73v74l110 111h369l110 -111v-516zM178 731l160 158h47l158 -158l-25 -26l-158 104l-155 -104zM547 840l-195 123l62 61
l159 -160z" />
    <glyph glyph-name="uni1EA8" unicode="&#xc2;&#x309;" 
d="M582 332v125l-209 352h-27l-207 -350v-127h443zM655 0h-73v258h-443v-258h-73v477l239 406h111l239 -406v-477zM178 993l160 158h47l158 -158l-25 -26l-158 104l-155 -104zM532 1206q-10 10 -16 19h-35q-2 -2 -9 -6q-7 -3 -17 -11t-25 -14l-27 14l64 72h72l49 -49v-72
l-82 -63l-29 16l55 70v24z" />
    <glyph glyph-name="uni1EA9" unicode="&#xe2;&#x309;" 
d="M582 313h-375l-68 -67v-105l68 -67h209l166 166v73zM655 0h-73v150l-148 -150h-258l-110 111v165l110 111h406v98l-68 68h-307l-68 -68v-43h-73v74l110 111h369l110 -111v-516zM178 731l160 158h47l158 -158l-25 -26l-158 104l-155 -104zM481 965q-18 -18 -51 -31l-27 14
l64 72h72l49 -49v-72l-82 -63l-29 16l55 70v24q-10 10 -16 19h-35z" />
    <glyph glyph-name="uni1EAA" unicode="&#xc2;&#x303;" 
d="M582 332v125l-209 352h-27l-207 -350v-127h443zM655 0h-73v258h-443v-258h-73v477l239 406h111l239 -406v-477zM178 993l160 158h47l158 -158l-25 -26l-158 104l-155 -104zM526 1319l25 -29l-150 -102l-92 57l-114 -55l-25 27l143 104l95 -59z" />
    <glyph glyph-name="uni1EAB" unicode="&#xe2;&#x303;" 
d="M582 313h-375l-68 -67v-105l68 -67h209l166 166v73zM655 0h-73v150l-148 -150h-258l-110 111v165l110 111h406v98l-68 68h-307l-68 -68v-43h-73v74l110 111h369l110 -111v-516zM178 731l160 158h47l158 -158l-25 -26l-158 104l-155 -104zM526 1061l25 -29l-150 -102
l-92 57l-114 -55l-25 26l143 105l95 -59z" />
    <glyph glyph-name="uni1EAC" unicode="&#xc2;&#x323;" 
d="M582 332v125l-209 352h-27l-207 -350v-127h443zM655 0h-73v258h-443v-258h-73v477l239 406h111l239 -406v-477zM428 -100v-56l-39 -39h-55l-39 39v56l39 39h55zM178 993l160 158h47l158 -158l-25 -26l-158 104l-155 -104z" />
    <glyph glyph-name="uni1EAD" unicode="&#xe2;&#x323;" 
d="M582 313h-375l-68 -67v-105l68 -67h209l166 166v73zM655 0h-73v150l-148 -150h-258l-110 111v165l110 111h406v98l-68 68h-307l-68 -68v-43h-73v74l110 111h369l110 -111v-516zM428 -98v-56l-39 -39h-55l-39 39v56l39 39h55zM178 731l160 158h47l158 -158l-25 -26
l-158 104l-155 -104z" />
    <glyph glyph-name="uni1EAE" unicode="&#x102;&#x301;" 
d="M584 332v125l-209 352h-27l-207 -350v-127h443zM657 0h-73v258h-443v-258h-73v477l239 406h111l239 -406v-477zM510 1151l37 -18l-96 -166h-177l-96 166l37 18l96 -111h103zM324 1096l-25 24l158 160l61 -61z" />
    <glyph glyph-name="uni1EAF" unicode="&#x103;&#x301;" 
d="M582 313h-375l-68 -67v-105l68 -67h209l166 166v73zM655 0h-73v150l-148 -150h-258l-110 111v165l110 111h406v98l-68 68h-307l-68 -68v-43h-73v74l110 111h369l110 -111v-516zM508 889l37 -19l-96 -165h-177l-96 165l37 19l96 -111h103zM322 836l-25 24l158 160l61 -62z
" />
    <glyph glyph-name="uni1EB0" unicode="&#x102;&#x300;" 
d="M584 332v125l-209 352h-27l-207 -350v-127h443zM657 0h-73v258h-443v-258h-73v477l239 406h111l239 -406v-477zM504 1151l37 -18l-97 -166h-176l-96 166l37 18l96 -111h103zM406 1098l-195 123l61 61l160 -160z" />
    <glyph glyph-name="uni1EB1" unicode="&#x103;&#x300;" 
d="M582 313h-375l-68 -67v-105l68 -67h209l166 166v73zM655 0h-73v150l-148 -150h-258l-110 111v165l110 111h406v98l-68 68h-307l-68 -68v-43h-73v74l110 111h369l110 -111v-516zM508 889l37 -19l-96 -165h-177l-96 165l37 19l96 -111h103zM410 836l-195 122l61 62
l160 -160z" />
    <glyph glyph-name="uni1EB2" unicode="&#x102;&#x309;" 
d="M582 332v125l-209 352h-27l-207 -350v-127h443zM655 0h-73v258h-443v-258h-73v477l239 406h111l239 -406v-477zM508 1151l37 -18l-96 -166h-177l-96 166l37 18l96 -111h103zM385 1206q-10 10 -16 19h-35q-2 -2 -9 -6q-7 -3 -17 -11t-25 -14l-27 14l63 72h72l49 -49v-72
l-82 -63l-28 16l55 70v24z" />
    <glyph glyph-name="uni1EB3" unicode="&#x103;&#x309;" 
d="M582 313h-375l-68 -67v-105l68 -67h209l166 166v73zM655 0h-73v150l-148 -150h-258l-110 111v165l110 111h406v98l-68 68h-307l-68 -68v-43h-73v74l110 111h369l110 -111v-516zM510 889l37 -19l-96 -165h-177l-96 165l37 19l96 -111h103zM338 963q-16 -16 -51 -31l-27 14
l64 72h71l49 -49v-72l-82 -63l-28 16l55 70v24q-10 10 -16 19h-35z" />
    <glyph glyph-name="uni1EB4" unicode="&#x102;&#x303;" 
d="M582 332v125l-209 352h-27l-207 -350v-127h443zM655 0h-73v258h-443v-258h-73v477l239 406h111l239 -406v-477zM508 1151l37 -18l-96 -166h-177l-96 166l37 18l96 -111h103zM526 1319l25 -29l-150 -102l-92 57l-114 -55l-25 27l143 104l95 -59z" />
    <glyph glyph-name="uni1EB5" unicode="&#x103;&#x303;" 
d="M582 313h-375l-68 -67v-105l68 -67h209l166 166v73zM655 0h-73v150l-148 -150h-258l-110 111v165l110 111h406v98l-68 68h-307l-68 -68v-43h-73v74l110 111h369l110 -111v-516zM508 889l37 -19l-96 -165h-177l-96 165l37 19l96 -111h103zM526 1057l25 -29l-150 -102
l-92 57l-114 -55l-25 26l143 105l95 -60z" />
    <glyph glyph-name="uni1EB6" unicode="&#x102;&#x323;" horiz-adv-x="757" 
d="M582 332v125l-209 352h-27l-207 -350v-127h443zM655 0h-73v258h-443v-258h-73v477l239 406h111l239 -406v-477zM428 -100v-56l-39 -39h-55l-39 39v56l39 39h55zM508 1151l37 -18l-96 -166h-177l-96 166l37 18l96 -111h103z" />
    <glyph glyph-name="uni1EB7" unicode="&#x103;&#x323;" 
d="M582 313h-375l-68 -67v-105l68 -67h209l166 166v73zM655 0h-73v150l-148 -150h-258l-110 111v165l110 111h406v98l-68 68h-307l-68 -68v-43h-73v74l110 111h369l110 -111v-516zM428 -98v-56l-39 -39h-55l-39 39v56l39 39h55zM508 889l37 -19l-96 -165h-177l-96 165l37 19
l96 -111h103z" />
    <glyph glyph-name="uni1EB8" unicode="E&#x323;" horiz-adv-x="724" 
d="M141 479h441v-73h-441v-267l66 -65h411v-74h-440l-110 111v661l110 111h440v-74h-409l-68 -68v-262zM410 -100v-56l-39 -39h-56l-39 39v56l39 39h56z" />
    <glyph glyph-name="uni1EB9" unicode="e&#x323;" 
d="M141 369h443v116l-68 68h-307l-68 -68v-116zM657 295h-516v-154l68 -67h307l68 67v43h73v-73l-110 -111h-369l-110 111v405l110 111h369l110 -111v-221zM430 -98v-56l-39 -39h-55l-39 39v56l39 39h55z" />
    <glyph glyph-name="uni1EBA" unicode="E&#x309;" horiz-adv-x="722" 
d="M141 479h441v-73h-441v-267l66 -65h411v-74h-440l-110 111v661l110 111h440v-74h-409l-68 -68v-262zM369 1077q-13 13 -17 19h-35q-2 -2 -9 -6t-17 -12t-25 -13l-26 14l63 72h72l49 -49v-72l-82 -63l-29 16q33 47 56 70v24z" />
    <glyph glyph-name="uni1EBB" unicode="e&#x309;" 
d="M141 369h443v116l-68 68h-307l-68 -68v-116zM657 295h-516v-154l68 -67h307l68 67v43h73v-73l-110 -111h-369l-110 111v405l110 111h369l110 -111v-221zM339 838q-15 -15 -52 -30l-26 14l64 69h72l49 -47v-69l-82 -61l-29 15q13 20 25 33t20 23t11 11v24l-17 18h-35z" />
    <glyph glyph-name="uni1EBC" unicode="E&#x303;" horiz-adv-x="724" 
d="M141 479h441v-73h-441v-267l66 -65h411v-74h-440l-110 111v661l110 111h440v-74h-409l-68 -68v-262zM508 1139l24 -29l-149 -102l-92 57l-115 -55l-24 26l143 105l94 -60z" />
    <glyph glyph-name="uni1EBD" unicode="e&#x303;" 
d="M141 369h443v116l-68 68h-307l-68 -68v-116zM657 295h-516v-154l68 -67h307l68 67v43h73v-73l-110 -111h-369l-110 111v405l110 111h369l110 -111v-221zM528 877l25 -29l-150 -103l-92 58l-114 -55l-25 26l143 105l95 -60z" />
    <glyph glyph-name="uni1EBE" unicode="&#xca;&#x301;" horiz-adv-x="724" 
d="M141 479h441v-73h-441v-267l66 -65h411v-74h-440l-110 111v661l110 111h440v-74h-409l-68 -68v-262zM160 993l159 158h48l157 -158l-24 -26l-158 104l-156 -104zM489 1098l-24 24l158 160l61 -61z" />
    <glyph glyph-name="uni1EBF" unicode="&#xea;&#x301;" 
d="M141 369h443v116l-68 68h-307l-68 -68v-116zM657 295h-516v-154l68 -67h307l68 67v43h73v-73l-110 -111h-369l-110 111v405l110 111h369l110 -111v-221zM180 731l160 158h47l158 -158l-25 -26l-158 104l-155 -104zM510 840l-25 24l158 160l62 -61z" />
    <glyph glyph-name="uni1EC0" unicode="&#xca;&#x300;" horiz-adv-x="724" 
d="M141 479h441v-73h-441v-267l66 -65h411v-74h-440l-110 111v661l110 111h440v-74h-409l-68 -68v-262zM160 993l159 158h48l157 -158l-24 -26l-158 104l-156 -104zM528 1098l-194 123l61 61l160 -160z" />
    <glyph glyph-name="uni1EC1" unicode="&#xea;&#x300;" 
d="M141 369h443v116l-68 68h-307l-68 -68v-116zM657 295h-516v-154l68 -67h307l68 67v43h73v-73l-110 -111h-369l-110 111v405l110 111h369l110 -111v-221zM180 731l160 158h47l158 -158l-25 -26l-158 104l-155 -104zM549 840l-195 123l62 61l159 -160z" />
    <glyph glyph-name="uni1EC2" unicode="&#xca;&#x309;" horiz-adv-x="724" 
d="M141 479h441v-73h-441v-267l66 -65h411v-74h-440l-110 111v661l110 111h440v-74h-409l-68 -68v-262zM160 993l159 158h48l157 -158l-24 -26l-158 104l-156 -104zM514 1206q-10 10 -16 19h-35q-2 -2 -9 -6q-8 -3 -18 -11t-24 -14l-27 14l64 72h71l49 -49v-72l-82 -63
l-28 16l55 70v24z" />
    <glyph glyph-name="uni1EC3" unicode="&#xea;&#x309;" 
d="M141 369h443v116l-68 68h-307l-68 -68v-116zM657 295h-516v-154l68 -67h307l68 67v43h73v-73l-110 -111h-369l-110 111v405l110 111h369l110 -111v-221zM180 731l160 158h47l158 -158l-25 -26l-158 104l-155 -104zM483 965q-18 -18 -51 -31l-26 14l63 72h72l49 -49v-72
l-82 -63l-29 16q33 47 56 70v24q-13 13 -17 19h-35z" />
    <glyph glyph-name="uni1EC4" unicode="&#xca;&#x303;" horiz-adv-x="724" 
d="M141 479h441v-73h-441v-267l66 -65h411v-74h-440l-110 111v661l110 111h440v-74h-409l-68 -68v-262zM160 993l159 158h48l157 -158l-24 -26l-158 104l-156 -104zM508 1319l24 -29l-149 -102l-92 57l-115 -55l-24 27l143 104l94 -59z" />
    <glyph glyph-name="uni1EC5" unicode="&#xea;&#x303;" 
d="M141 369h443v116l-68 68h-307l-68 -68v-116zM657 295h-516v-154l68 -67h307l68 67v43h73v-73l-110 -111h-369l-110 111v405l110 111h369l110 -111v-221zM180 731l160 158h47l158 -158l-25 -26l-158 104l-155 -104zM528 1061l25 -29l-150 -102l-92 57l-114 -55l-25 26
l143 105l95 -59z" />
    <glyph glyph-name="uni1EC6" unicode="&#xca;&#x323;" horiz-adv-x="722" 
d="M141 479h441v-73h-441v-267l66 -65h411v-74h-440l-110 111v661l110 111h440v-74h-409l-68 -68v-262zM410 -100v-56l-39 -39h-56l-39 39v56l39 39h56zM160 993l159 158h48l157 -158l-24 -26l-158 104l-156 -104z" />
    <glyph glyph-name="uni1EC7" unicode="&#xea;&#x323;" 
d="M141 369h443v116l-68 68h-307l-68 -68v-116zM657 295h-516v-154l68 -67h307l68 67v43h73v-73l-110 -111h-369l-110 111v405l110 111h369l110 -111v-221zM430 -98v-56l-39 -39h-55l-39 39v56l39 39h55zM180 731l160 158h47l158 -158l-25 -26l-158 104l-155 -104z" />
    <glyph glyph-name="uni1EC8" unicode="I&#x309;" horiz-adv-x="243" 
d="M139 0h-73v883h73v-883zM131 1077q-10 10 -16 19h-35q-2 -2 -9 -6t-17 -12t-25 -13l-27 14l64 72h71l49 -49v-72l-82 -63l-28 16l55 70v24z" />
    <glyph glyph-name="uni1EC9" unicode="i&#x309;" horiz-adv-x="243" 
d="M68 0v625h73v-625h-73zM82 834q-16 -16 -51 -31l-27 14l64 72h71l49 -49v-72l-82 -63l-28 16l55 70v24q-10 10 -16 19h-35z" />
    <glyph glyph-name="uni1ECA" unicode="I&#x323;" horiz-adv-x="243" 
d="M139 0h-73v883h73v-883zM172 -100v-56l-39 -39h-55l-39 39v56l39 39h55z" />
    <glyph glyph-name="uni1ECB" unicode="i&#x323;" horiz-adv-x="243" 
d="M125 768l27 -27v-39l-27 -26h-39l-27 26v39l27 27h39zM68 0v627h73v-627h-73zM174 -98v-56l-39 -39h-55l-39 39v56l39 39h55z" />
    <glyph glyph-name="uni1ECC" unicode="O&#x323;" horiz-adv-x="796" 
d="M616 141v602l-67 66h-344l-68 -68v-602l68 -65h344zM580 883l110 -111v-661l-110 -111h-406l-111 111v661l111 111h406zM444 -100v-56l-38 -39h-56l-39 39v56l39 39h56z" />
    <glyph glyph-name="uni1ECD" unicode="o&#x323;" 
d="M209 74h307l68 67v344l-68 68h-307l-68 -68v-344zM657 111l-110 -111h-369l-110 111v405l110 111h369l110 -111v-405zM430 -98v-56l-39 -39h-55l-39 39v56l39 39h55z" />
    <glyph glyph-name="uni1ECE" unicode="O&#x309;" horiz-adv-x="796" 
d="M616 141v602l-67 66h-344l-68 -68v-602l68 -65h344zM580 883l110 -111v-661l-110 -111h-406l-111 111v661l111 111h406zM403 1077q-10 10 -16 19h-35q-2 -2 -9 -6t-17 -12t-25 -13l-27 14l64 72h72l49 -49v-72l-82 -63l-29 16l55 70v24z" />
    <glyph glyph-name="uni1ECF" unicode="o&#x309;" horiz-adv-x="761" 
d="M209 74h307l68 67v344l-68 68h-307l-68 -68v-344zM657 111l-110 -111h-369l-110 111v405l110 111h369l110 -111v-405zM338 834q-16 -16 -51 -31l-27 14l64 72h71l49 -49v-72l-82 -63l-28 16l55 70v24q-10 10 -16 19h-35z" />
    <glyph glyph-name="uni1ED0" unicode="&#xd4;&#x301;" horiz-adv-x="796" 
d="M616 141v602l-67 66h-344l-68 -68v-602l68 -65h344zM580 883l110 -111v-661l-110 -111h-406l-111 111v661l111 111h406zM195 993l159 158h47l158 -158l-24 -26l-158 104l-156 -104zM524 1098l-24 24l157 160l62 -61z" />
    <glyph glyph-name="uni1ED1" unicode="&#xf4;&#x301;" horiz-adv-x="761" 
d="M209 74h307l68 67v344l-68 68h-307l-68 -68v-344zM657 111l-110 -111h-369l-110 111v405l110 111h369l110 -111v-405zM180 731l160 158h47l158 -158l-25 -26l-158 104l-155 -104zM510 840l-25 24l158 160l62 -61z" />
    <glyph glyph-name="uni1ED2" unicode="&#xd4;&#x300;" horiz-adv-x="796" 
d="M616 141v602l-67 66h-344l-68 -68v-602l68 -65h344zM580 883l110 -111v-661l-110 -111h-406l-111 111v661l111 111h406zM195 993l159 158h47l158 -158l-24 -26l-158 104l-156 -104zM563 1098l-194 123l61 61l160 -160z" />
    <glyph glyph-name="uni1ED3" unicode="&#xf4;&#x300;" 
d="M209 74h307l68 67v344l-68 68h-307l-68 -68v-344zM657 111l-110 -111h-369l-110 111v405l110 111h369l110 -111v-405zM180 731l160 158h47l158 -158l-25 -26l-158 104l-155 -104zM549 840l-195 123l62 61l159 -160z" />
    <glyph glyph-name="uni1ED4" unicode="&#xd4;&#x309;" horiz-adv-x="796" 
d="M616 141v602l-67 66h-344l-68 -68v-602l68 -65h344zM580 883l110 -111v-661l-110 -111h-406l-111 111v661l111 111h406zM195 993l159 158h47l158 -158l-24 -26l-158 104l-156 -104zM549 1206l-17 19h-34q-2 -2 -10 -6q-8 -3 -17 -11q-10 -8 -25 -14l-26 14l63 72h72
l49 -49v-72l-82 -63l-28 16l55 70v24z" />
    <glyph glyph-name="uni1ED5" unicode="&#xf4;&#x309;" horiz-adv-x="761" 
d="M209 74h307l68 67v344l-68 68h-307l-68 -68v-344zM657 111l-110 -111h-369l-110 111v405l110 111h369l110 -111v-405zM180 731l160 158h47l158 -158l-25 -26l-158 104l-155 -104zM483 965q-18 -18 -51 -31l-26 14l63 72h72l49 -49v-72l-82 -63l-29 16q33 47 56 70v24
q-13 13 -17 19h-35z" />
    <glyph glyph-name="uni1ED6" unicode="&#xd4;&#x303;" horiz-adv-x="796" 
d="M616 141v602l-67 66h-344l-68 -68v-602l68 -65h344zM580 883l110 -111v-661l-110 -111h-406l-111 111v661l111 111h406zM195 993l159 158h47l158 -158l-24 -26l-158 104l-156 -104zM543 1319l24 -29l-149 -102l-92 57l-115 -55l-25 27l144 104l94 -59z" />
    <glyph glyph-name="uni1ED7" unicode="&#xf4;&#x303;" horiz-adv-x="761" 
d="M209 74h307l68 67v344l-68 68h-307l-68 -68v-344zM657 111l-110 -111h-369l-110 111v405l110 111h369l110 -111v-405zM180 731l160 158h47l158 -158l-25 -26l-158 104l-155 -104zM528 1061l25 -29l-150 -102l-92 57l-114 -55l-25 26l143 105l95 -59z" />
    <glyph glyph-name="uni1ED8" unicode="&#xd4;&#x323;" horiz-adv-x="796" 
d="M616 141v602l-67 66h-344l-68 -68v-602l68 -65h344zM580 883l110 -111v-661l-110 -111h-406l-111 111v661l111 111h406zM444 -100v-56l-38 -39h-56l-39 39v56l39 39h56zM195 993l159 158h47l158 -158l-24 -26l-158 104l-156 -104z" />
    <glyph glyph-name="uni1ED9" unicode="&#xf4;&#x323;" horiz-adv-x="761" 
d="M209 74h307l68 67v344l-68 68h-307l-68 -68v-344zM657 111l-110 -111h-369l-110 111v405l110 111h369l110 -111v-405zM430 -98v-56l-39 -39h-55l-39 39v56l39 39h55zM180 731l160 158h47l158 -158l-25 -26l-158 104l-155 -104z" />
    <glyph glyph-name="uni1EDA" unicode="&#x1a0;&#x301;" horiz-adv-x="794" 
d="M379 967l-25 24l158 160l61 -61zM616 141v602l-67 68h-344l-68 -68v-602l68 -67h344zM721 930v-72l-57 -57l26 -27v-663l-110 -111h-406l-111 111v663l111 111h406l36 -37h2l37 37v45h66z" />
    <glyph glyph-name="uni1EDB" unicode="&#x1a1;&#x301;" 
d="M516 74l68 67v344l-68 68h-307l-68 -68v-344l68 -67h307zM684 674v-72l-55 -57l28 -29v-405l-110 -111h-369l-110 111v405l110 111h369l35 -35l39 37v45h63zM291 705l-25 24l158 160l61 -62z" />
    <glyph glyph-name="uni1EDC" unicode="&#x1a0;&#x300;" horiz-adv-x="796" 
d="M379 967l-195 123l62 61l160 -160zM618 139v602l-67 68h-344l-68 -68v-602l68 -67h344zM723 928v-72l-57 -57l26 -27v-663l-110 -111h-406l-110 111v663l110 111h406l36 -37h3l36 37v45h66z" />
    <glyph glyph-name="uni1EDD" unicode="&#x1a1;&#x300;" 
d="M516 74l68 67v344l-68 68h-307l-68 -68v-344l68 -67h307zM684 674v-72l-55 -57l28 -29v-405l-110 -111h-369l-110 111v405l110 111h369l35 -35l39 37v45h63zM459 705l-195 122l62 62l159 -160z" />
    <glyph glyph-name="uni1EDE" unicode="&#x1a0;&#x309;" horiz-adv-x="796" 
d="M354 1096q-18 -18 -51 -31l-27 14l64 72h72l49 -49v-72l-82 -63l-29 16q14 19 26 33t19.5 24.5t10.5 12.5v24l-17 19h-35zM618 743l-67 68h-344l-68 -68v-602l68 -67h344l67 67v602zM657 930h66v-72l-57 -57l26 -27v-663l-110 -111h-406l-110 111v663l110 111h406l36 -37
h3l36 37v45z" />
    <glyph glyph-name="uni1EDF" unicode="&#x1a1;&#x309;" 
d="M516 74l68 67v344l-68 68h-307l-68 -68v-344l68 -67h307zM684 674v-72l-55 -57l28 -29v-405l-110 -111h-369l-110 111v405l110 111h369l35 -35l39 37v45h63zM350 834q-18 -18 -51 -31l-27 14l64 72h72l49 -49v-72l-82 -63l-29 16l55 70v24q-10 10 -16 19h-35z" />
    <glyph glyph-name="uni1EE0" unicode="&#x1a0;&#x303;" horiz-adv-x="796" 
d="M543 1139l24 -29l-149 -102l-92 57l-115 -55l-25 26l144 105l94 -60zM618 141v602l-67 68h-344l-68 -68v-602l68 -67h344zM723 930v-72l-57 -57l26 -27v-663l-110 -111h-406l-110 111v663l110 111h406l36 -37h3l36 37v45h66z" />
    <glyph glyph-name="uni1EE1" unicode="&#x1a1;&#x303;" 
d="M516 74l68 67v344l-68 68h-307l-68 -68v-344l68 -67h307zM684 674v-72l-55 -57l28 -29v-405l-110 -111h-369l-110 111v405l110 111h369l35 -35l39 37v45h63zM541 877l24 -29l-149 -103l-92 58l-115 -55l-25 26l144 105l94 -60z" />
    <glyph glyph-name="uni1EE2" unicode="&#x1a0;&#x323;" horiz-adv-x="796" 
d="M446 -100v-56l-38 -39h-56l-39 39v56l39 39h56zM618 141v602l-67 68h-344l-68 -68v-602l68 -67h344zM723 930v-72l-57 -57l26 -27v-663l-110 -111h-406l-110 111v663l110 111h406l36 -37h3l36 37v45h66z" />
    <glyph glyph-name="uni1EE3" unicode="&#x1a1;&#x323;" 
d="M516 74l68 67v344l-68 68h-307l-68 -68v-344l68 -67h307zM684 674v-72l-55 -57l28 -29v-405l-110 -111h-369l-110 111v405l110 111h369l35 -35l39 37v45h63zM442 -98v-56l-39 -39h-55l-39 39v56l39 39h55z" />
    <glyph glyph-name="uni1EE4" unicode="U&#x323;" 
d="M582 883h73v-772l-110 -111h-369l-110 111v772h73v-744l68 -65h307l68 67v742zM428 -100v-56l-39 -39h-55l-39 39v56l39 39h55z" />
    <glyph glyph-name="uni1EE5" unicode="u&#x323;" horiz-adv-x="722" 
d="M547 625h74v-625h-74v147l-148 -147h-221l-110 109v516h73v-486l68 -67h172l166 166v387zM412 -98v-56l-39 -39h-56l-38 39v56l38 39h56z" />
    <glyph glyph-name="uni1EE6" unicode="U&#x309;" 
d="M582 883h73v-772l-110 -111h-369l-110 111v772h73v-744l68 -65h307l68 67v742zM387 1077q-10 10 -16 19h-35q-2 -2 -9 -6t-17 -12t-25 -13l-27 14l64 72h71l49 -49v-72l-82 -63l-28 16l55 70v24z" />
    <glyph glyph-name="uni1EE7" unicode="u&#x309;" horiz-adv-x="722" 
d="M547 625h74v-625h-74v147l-148 -147h-221l-110 109v516h73v-486l68 -67h172l166 166v387zM319 834q-18 -18 -51 -31l-26 14l63 72h72l49 -49v-72l-82 -63l-29 16q33 47 56 70v24q-13 13 -17 19h-35z" />
    <glyph glyph-name="uni1EE8" unicode="&#x1af;&#x301;" horiz-adv-x="856" 
d="M719 928h65v-72l-75 -76h-54v-669l-110 -111h-369l-110 111v774h73v-744l68 -67h307l68 67v744h73v-39h27l37 37v45zM360 967l-24 24l158 160l61 -61z" />
    <glyph glyph-name="uni1EE9" unicode="&#x1b0;&#x301;" horiz-adv-x="815" 
d="M680 672h63v-72l-73 -76h-52v-524h-73v147l-148 -147h-221l-110 111v516h73v-486l68 -67h172l166 164v389h73v-39h25l37 39v45zM256 705l-25 24l158 160l62 -62z" />
    <glyph glyph-name="uni1EEA" unicode="&#x1af;&#x300;" horiz-adv-x="856" 
d="M719 928h65v-72l-75 -76h-54v-669l-110 -111h-369l-110 111v774h73v-744l68 -67h307l68 67v744h73v-39h27l37 37v45zM360 967l-194 123l61 61l160 -160z" />
    <glyph glyph-name="uni1EEB" unicode="&#x1b0;&#x300;" horiz-adv-x="815" 
d="M680 672h63v-72l-73 -76h-52v-524h-73v147l-148 -147h-221l-110 111v516h73v-486l68 -67h172l166 164v389h73v-39h25l37 39v45zM424 705l-195 122l62 62l160 -160z" />
    <glyph glyph-name="uni1EEC" unicode="&#x1af;&#x309;" horiz-adv-x="856" 
d="M719 928h65v-72l-75 -76h-54v-669l-110 -111h-369l-110 111v774h73v-744l68 -67h307l68 67v744h73v-39h27l37 37v45zM387 1077q-10 10 -16 19h-35q-2 -2 -9 -6t-17 -12t-25 -13l-27 14l64 72h71l49 -49v-72l-82 -63l-28 16l55 70v24z" />
    <glyph glyph-name="uni1EED" unicode="&#x1b0;&#x309;" horiz-adv-x="815" 
d="M680 672h63v-72l-73 -76h-52v-524h-73v147l-148 -147h-221l-110 111v516h73v-486l68 -67h172l166 164v389h73v-39h25l37 39v45zM317 834q-18 -18 -51 -31l-26 14l63 72h72l49 -49v-72l-82 -63l-29 16q33 47 56 70v24q-13 13 -17 19h-35z" />
    <glyph glyph-name="uni1EEE" unicode="&#x1af;&#x303;" horiz-adv-x="856" 
d="M719 928h65v-72l-75 -76h-54v-669l-110 -111h-369l-110 111v774h73v-744l68 -67h307l68 67v744h73v-39h27l37 37v45zM526 1139l25 -29l-150 -102l-92 57l-114 -55l-25 26l143 105l95 -60z" />
    <glyph glyph-name="uni1EEF" unicode="&#x1b0;&#x303;" horiz-adv-x="815" 
d="M680 672h63v-72l-73 -76h-52v-524h-73v147l-148 -147h-221l-110 111v516h73v-486l68 -67h172l166 164v389h73v-39h25l37 39v45zM506 877l24 -29l-149 -103l-92 58l-115 -55l-24 26l143 105l94 -60z" />
    <glyph glyph-name="uni1EF0" unicode="&#x1af;&#x323;" horiz-adv-x="856" 
d="M719 928h65v-72l-75 -76h-54v-669l-110 -111h-369l-110 111v774h73v-744l68 -67h307l68 67v744h73v-39h27l37 37v45zM428 -100v-56l-39 -39h-55l-39 39v56l39 39h55z" />
    <glyph glyph-name="uni1EF1" unicode="&#x1b0;&#x323;" horiz-adv-x="817" 
d="M680 672h63v-72l-73 -76h-52v-524h-73v147l-148 -147h-221l-110 111v516h73v-486l68 -67h172l166 164v389h73v-39h25l37 39v45zM410 -98v-56l-39 -39h-56l-39 39v56l39 39h56z" />
    <glyph glyph-name="Ygrave" unicode="Y&#x300;" 
d="M582 883h73v-258l-258 -219v-406h-73v408l-258 219v256h73v-221l223 -191l220 188v224zM360 967l-194 123l61 61l160 -160z" />
    <glyph glyph-name="ygrave" unicode="y&#x300;" horiz-adv-x="763" 
d="M657 627v-774l-110 -111h-185v74h154l68 67v264l-148 -147h-258l-110 111v516h73v-486l68 -67h209l166 166v387h73zM446 705l-194 122l61 62l160 -160z" />
    <glyph glyph-name="uni1EF4" unicode="Y&#x323;" horiz-adv-x="757" 
d="M582 883h73v-258l-258 -219v-406h-73v408l-258 219v256h73v-221l223 -191l220 188v224zM428 -100v-56l-39 -39h-55l-39 39v56l39 39h55z" />
    <glyph glyph-name="uni1EF5" unicode="y&#x323;" horiz-adv-x="952" 
d="M657 627v-774l-110 -111h-185v74h154l68 67v264l-148 -147h-258l-110 111v516h73v-486l68 -67h209l166 166v387h73zM850 -98v-56l-39 -39h-55l-39 39v56l39 39h55z" />
    <glyph glyph-name="uni1EF6" unicode="Y&#x309;" 
d="M582 883h73v-258l-258 -219v-406h-73v408l-258 219v256h73v-221l223 -191l220 188v224zM387 1077q-10 10 -16 19h-35q-2 -2 -9 -6t-17 -12t-25 -13l-27 14l64 72h71l49 -49v-72l-82 -63l-28 16l55 70v24z" />
    <glyph glyph-name="uni1EF7" unicode="y&#x309;" horiz-adv-x="761" 
d="M657 627v-774l-110 -111h-185v74h154l68 67v264l-148 -147h-258l-110 111v516h73v-486l68 -67h209l166 166v387h73zM338 834q-16 -16 -51 -31l-27 14l64 72h71l49 -49v-72l-82 -63l-28 16l55 70v24q-10 10 -16 19h-35z" />
    <glyph glyph-name="uni1EF8" unicode="Y&#x303;" 
d="M582 883h73v-258l-258 -219v-406h-73v408l-258 219v256h73v-221l223 -191l220 188v224zM526 1139l25 -29l-150 -102l-92 57l-114 -55l-25 26l143 105l95 -60z" />
    <glyph glyph-name="uni1EF9" unicode="y&#x303;" horiz-adv-x="761" 
d="M657 627v-774l-110 -111h-185v74h154l68 67v264l-148 -147h-258l-110 111v516h73v-486l68 -67h209l166 166v387h73zM528 877l25 -29l-150 -103l-92 58l-114 -55l-25 26l143 105l95 -60z" />
    <glyph glyph-name="uni0E4F.liga" unicode="&#xe4f;&#x22;" horiz-adv-x="722" 
d="M545 197v157l-125 125h-158l-123 -123v-159l121 -123h160zM451 553l167 -168v-219l-167 -166h-222l-163 166v221l165 166h220zM397 254v45l-32 33h-48l-30 -33v-45l30 -33h48zM395 406l76 -76v-107l-76 -76h-106l-74 74v111l74 74h106zM360 819h74l-18 -184h-37zM268 635
l-18 184h74l-19 -184h-37z" />
    <glyph glyph-name="uni0E24.liga" unicode="&#xe24;&#xe32;" horiz-adv-x="1273" 
d="M205 193l-39 -37v-54l39 -39h53l37 39v54l-37 37h-53zM1169 -369h-73v1039l-66 67h-270l-68 -67v-1039h-74v1039l-67 67h-344l-37 -39l117 -116l-111 -111v-215l2 2h107l75 -76v-106l-75 -76h-107l-76 76v426l80 80l-116 118l110 111h406l73 -74l74 74h332l108 -111
v-1069z" />
    <glyph glyph-name="uni0E26.liga" unicode="&#xe26;&#xe32;" horiz-adv-x="1394" 
d="M231 102v54l-36 39h-56l-37 -39v-54l37 -36h56zM1290 -369h-73v1039l-68 67h-270l-68 -67v-1039h-74v1039l-65 67h-346l-37 -37l117 -116l-111 -111v-397l-74 -76h-108l-74 76v106l74 76h108l2 -2v248l80 80l-117 116l111 111h403l74 -74l74 74h332l110 -111v-1069z" />
    <glyph glyph-name="fi" unicode="fi" horiz-adv-x="501" 
d="M139 553h258v-553h-73v479h-185v-479h-73v774l110 111h148v-74h-117l-68 -68v-190z" />
    <glyph glyph-name="fl" unicode="fl" horiz-adv-x="501" 
d="M397 885v-885h-73v811h-117l-68 -68v-190h111v-74h-111v-479h-73v774l110 111h221z" />
    <glyph glyph-name="CHAKRA" unicode="CHAKRADeign&#x28;c&#x29;" horiz-adv-x="2895" 
d="M2038 276v-276h-72v256h-45v-256h-72v256h-20v20h209zM1491 311v27h209v-27h-209zM1792 322v-322h-164l-20 256h-15l-20 -256h-164v256h-27v20h93v-256h26l21 256h153l21 -256h24v302h72zM1348 276v-276h-68v256h-45v20h113zM1198 0h-96v20h24v189h-45v67h117v-20h-45
v-27h45v-229zM1044 276v-276h-71v256h-45v-256h-72v256h-20v20h208zM2791 373h-20v-15h-102v15h-175v385h-36v35h139v-383h72v383h102v-383h20v-37zM2402 793v-420h-102v385h-72v35h174zM2191 373h-14v-15h-109v15h-174v385h-34v35h143v-383h65v383h109v-383h14v-37z
M1808 864v-491h-245l-31 317h-41v-280h35v-37h-137v354h245l31 -317h35v348h-311v35h311v71h108zM1331 373h-137v37h35v280h-72v103h174v-35h-65v-31h65v-354zM1106 670v-297h-281v385h-37v35h144v-383h67v260h-36v37h36v86h107v-86h37v-37h-37zM737 793v-420h-106v385h-68
v-385h-106v385h-37v35h317zM471 881v-31h-209v65h107v-34h102zM369 373h-281v354h143v-37h-36v-280h67v348h-174v35h281v-420z" />
    <glyph glyph-name=".notdef" horiz-adv-x="798" 
d="M618 74v1032h-479v-1032h479zM66 1180h626v-1180h-626v1180z" />
    <glyph glyph-name=".null" horiz-adv-x="0" 
 />
    <glyph glyph-name="nonmarkingreturn" horiz-adv-x="452" 
 />
    <glyph glyph-name="space" unicode=" " horiz-adv-x="497" 
 />
    <glyph glyph-name="exclam" unicode="!" horiz-adv-x="253" 
d="M131 184h-55l-19 701h93zM84 92h37l29 -26v-39l-29 -27h-37l-27 27v39z" />
    <glyph glyph-name="quotedbl" unicode="&#x22;" horiz-adv-x="354" 
d="M176 885h74l-19 -185h-36zM84 700l-18 185h73l-18 -185h-37z" />
    <glyph glyph-name="numbersign" unicode="#" horiz-adv-x="727" 
d="M408 258l24 221h-147l-23 -221h146zM616 479h-110l-25 -221h111l-6 -74h-111l-20 -184h-74l20 184h-147l-21 -184h-73l20 184h-110l8 74h110l23 221h-111l9 74h110l19 184h73l-18 -184h147l19 184h73l-18 -184h111z" />
    <glyph glyph-name="dollar" unicode="$" 
d="M397 0v-74h-73v74h-129l-111 111v73h74v-43l67 -67h289l68 67v160l-68 68h-338l-110 108v223l110 111h148v74h73v-74h129l111 -111v-73h-74v43l-67 67h-289l-68 -67v-162l68 -68h338l110 -108v-221l-110 -111h-148z" />
    <glyph glyph-name="percent" unicode="%" horiz-adv-x="835" 
d="M612 885h86l-508 -885h-84zM668 176v127l-37 37h-90l-37 -37v-127l37 -39h90zM657 406l76 -76v-180l-76 -76h-143l-76 76v180l76 76h143zM135 709v-127l37 -39h90l39 39v127l-39 36h-90zM289 479h-144l-75 76v180l75 76h144l76 -76v-180z" />
    <glyph glyph-name="ampersand" unicode="&#x26;" horiz-adv-x="833" 
d="M582 406h-375l-68 -68v-197l68 -67h307l68 67v265zM729 479v-73h-74v-295l-110 -111h-369l-110 111v258l92 92l-56 55v258l111 111h295l110 -111v-74h-73v43l-68 68h-233l-68 -68v-198l68 -66h338v74h73v-74h74z" />
    <glyph glyph-name="quotesingle" unicode="'" horiz-adv-x="245" 
d="M123 700h-37l-18 185h73z" />
    <glyph glyph-name="parenleft" unicode="(" horiz-adv-x="354" 
d="M252 -74v-73h-74l-110 110v957l110 110h74v-72h-43l-68 -67v-897l68 -68h43z" />
    <glyph glyph-name="parenright" unicode=")" horiz-adv-x="286" 
d="M0 -74h43l68 68v897l-68 67h-43v72h74l110 -110v-957l-110 -110h-74v73z" />
    <glyph glyph-name="asterisk" unicode="*" horiz-adv-x="462" 
d="M358 778l-98 -41l98 -43l-36 -63l-86 65l14 -106h-74l12 106l-84 -65l-36 63l98 43l-98 41l36 64l84 -66l-12 109h74l-14 -109l86 66z" />
    <glyph glyph-name="plus" unicode="+" horiz-adv-x="829" 
d="M725 475v-74h-295v-295h-74v295h-295v74h295v295h74v-295h295z" />
    <glyph glyph-name="comma" unicode="," horiz-adv-x="309" 
d="M207 102v-67l-111 -146h-37l56 111h-13l-43 43v59l43 45h62z" />
    <glyph glyph-name="hyphen" unicode="-" horiz-adv-x="540" 
d="M438 295h-368v74h368v-74z" />
    <glyph glyph-name="period" unicode="." horiz-adv-x="309" 
d="M207 102v-59l-43 -43h-62l-43 43v59l43 45h62z" />
    <glyph glyph-name="slash" unicode="/" horiz-adv-x="696" 
d="M508 885h84l-508 -885h-84z" />
    <glyph glyph-name="zero" unicode="0" horiz-adv-x="722" 
d="M545 141v602l-66 66h-272l-68 -66v-602l68 -67h270zM508 883l110 -109v-663l-110 -111h-332l-110 111v661l110 111h332z" />
    <glyph glyph-name="one" unicode="1" horiz-adv-x="372" 
d="M270 883v-883h-73v780l-95 -94l-51 53l146 144h73z" />
    <glyph glyph-name="two" unicode="2" horiz-adv-x="722" 
d="M141 74h480v-74h-553v184l479 439v120l-68 66h-252l-67 -66v-47h-74v76l111 111h313l111 -109v-184l-480 -438v-78z" />
    <glyph glyph-name="three" unicode="3" horiz-adv-x="686" 
d="M66 184h73v-43l68 -67h270l68 67v234l-68 67h-227v74h227l68 66v161l-68 66h-252l-67 -66v-43h-74v72l111 111h313l110 -109v-223l-73 -72l73 -73v-295l-110 -111h-332l-110 111v73z" />
    <glyph glyph-name="four" unicode="4" horiz-adv-x="722" 
d="M471 221v588h-31l-301 -535v-53h332zM545 221h73v-74h-73v-147h-74v147h-405v148l331 588h148v-662z" />
    <glyph glyph-name="five" unicode="5" horiz-adv-x="722" 
d="M66 184h73v-43l68 -67h270l68 67v271l-68 67h-411v404h516v-74h-443v-256h369l110 -111v-331l-110 -111h-332l-110 111v73z" />
    <glyph glyph-name="six" unicode="6" horiz-adv-x="722" 
d="M479 74l66 67v271l-66 67h-270l-68 -67v-271l66 -67h272zM600 700h-74v43l-65 66h-254l-66 -66v-227l37 37h332l108 -111v-331l-110 -111h-332l-108 111v663l108 109h313l111 -111v-72z" />
    <glyph glyph-name="seven" unicode="7" horiz-adv-x="722" 
d="M618 883v-256l-239 -217v-410h-74v442l240 217v150h-406v-109h-73v183h552z" />
    <glyph glyph-name="eight" unicode="8" horiz-adv-x="722" 
d="M547 141v234l-68 67h-270l-68 -67v-234l68 -67h270zM178 743v-159l68 -68h196l68 66v161l-68 66h-196zM528 498l93 -92v-295l-111 -111h-332l-110 111v295l92 92l-56 55v221l111 109h258l111 -111v-221z" />
    <glyph glyph-name="nine" unicode="9" horiz-adv-x="722" 
d="M477 406l68 67v270l-66 66h-272l-68 -66v-272l68 -65h270zM84 184h74v-43l67 -67h254l66 67v228l-37 -37h-332l-108 110l-2 330l110 111h332l110 -109v-663l-110 -111h-313l-111 111v73z" />
    <glyph glyph-name="colon" unicode=":" horiz-adv-x="309" 
d="M164 551l43 -43v-59l-43 -46h-62l-43 46v59l43 43h62zM102 147h62l43 -45v-59l-43 -43h-62l-43 43v59z" />
    <glyph glyph-name="semicolon" unicode=";" horiz-adv-x="309" 
d="M102 147h62l43 -45v-67l-111 -146h-37l56 111h-13l-43 43v59zM164 551l43 -43v-59l-43 -46h-62l-43 46v59l43 43h62z" />
    <glyph glyph-name="less" unicode="&#x3c;" horiz-adv-x="829" 
d="M725 651l-590 -278v-17l590 -276v-82l-664 311v111l664 311v-80z" />
    <glyph glyph-name="equal" unicode="=" horiz-adv-x="829" 
d="M61 272v74h664v-74h-664zM61 602h664v-74h-664v74z" />
    <glyph glyph-name="greater" unicode="&#x3e;" horiz-adv-x="829" 
d="M61 731l662 -311v-111l-662 -311v82l588 276v17l-588 278v80z" />
    <glyph glyph-name="question" unicode="?" horiz-adv-x="724" 
d="M381 184h-74v217l240 220v122l-68 68h-270l-68 -68v-43h-73v74l110 111h332l111 -111v-186l-240 -219v-185zM324 92h38l27 -26v-39l-27 -27h-38l-27 27v39z" />
    <glyph glyph-name="at" unicode="@" horiz-adv-x="944" 
d="M489 184l93 90v101l-68 67h-123l-67 -67v-123l67 -68h98zM582 111v73l-74 -73h-148l-110 110v185l110 110h185l110 -110v-222h41l70 68v197l-178 178h-271l-178 -178v-273l176 -176h451v-74h-479l-221 219v334l221 221h331l222 -221v-258l-113 -110h-145z" />
    <glyph glyph-name="A" unicode="A" 
d="M582 332v125l-209 352h-27l-207 -350v-127h443zM655 0h-73v258h-443v-258h-73v477l239 406h111l239 -406v-477z" />
    <glyph glyph-name="B" unicode="B" horiz-adv-x="722" 
d="M139 403v-329h338l68 67v197l-68 65h-338zM139 809v-330h301l68 66v198l-68 66h-301zM66 0v883h405l111 -111v-256l-56 -55l92 -92v-258l-110 -111h-442z" />
    <glyph glyph-name="C" unicode="C" horiz-adv-x="761" 
d="M584 184h73v-73l-110 -111h-369l-110 111v661l110 111h369l110 -111v-74h-73v45l-68 66h-307l-68 -68v-602l68 -65h307l68 67v43z" />
    <glyph glyph-name="D" unicode="D" 
d="M139 809v-735h375l68 67v602l-68 66h-375zM66 0v883h479l110 -111v-661l-110 -111h-479z" />
    <glyph glyph-name="E" unicode="E" horiz-adv-x="722" 
d="M141 479h441v-73h-441v-267l66 -65h411v-74h-440l-110 111v661l110 111h440v-74h-409l-68 -68v-262z" />
    <glyph glyph-name="F" unicode="F" horiz-adv-x="722" 
d="M139 479h443v-73h-443v-406h-73v772l110 111h442v-74h-411l-68 -68v-262z" />
    <glyph glyph-name="G" unicode="G" 
d="M655 698h-73v45l-66 66h-309l-66 -68v-602l66 -65h307l68 67v265h-222v73h295v-368l-110 -111h-369l-108 111v661l110 111h367l110 -109v-76z" />
    <glyph glyph-name="H" unicode="H" 
d="M584 883h73v-883h-73v406h-443v-406h-73v883h73v-404h443v404z" />
    <glyph glyph-name="I" unicode="I" horiz-adv-x="243" 
d="M139 0h-73v883h73v-883z" />
    <glyph glyph-name="J" unicode="J" horiz-adv-x="686" 
d="M508 883h74v-772l-111 -111h-295l-110 111v147h73v-119l68 -65h233l68 67v742z" />
    <glyph glyph-name="K" unicode="K" 
d="M582 883h73v-248l-192 -193l192 -194v-248h-73v231l-174 175h-269v-406h-73v883h73v-404h269l174 172v232z" />
    <glyph glyph-name="L" unicode="L" horiz-adv-x="686" 
d="M139 74h443v-74h-516v883h73v-809z" />
    <glyph glyph-name="M" unicode="M" horiz-adv-x="980" 
d="M877 883v-883h-74v696l-295 -696h-74l-295 694v-694h-73v883h73l332 -781l332 781h74z" />
    <glyph glyph-name="N" unicode="N" 
d="M582 883h73v-883h-73l-443 739v-739h-73v883h73l443 -740v740z" />
    <glyph glyph-name="O" unicode="O" horiz-adv-x="794" 
d="M616 141v602l-67 66h-344l-68 -68v-602l68 -65h344zM580 883l110 -111v-661l-110 -111h-406l-111 111v661l111 111h406z" />
    <glyph glyph-name="P" unicode="P" horiz-adv-x="722" 
d="M139 809v-332h338l68 68v198l-66 66h-340zM139 403v-403h-71v883h440l110 -111v-258l-110 -111h-369z" />
    <glyph glyph-name="Q" unicode="Q" horiz-adv-x="792" 
d="M137 139l68 -65h344l67 67v602l-67 66h-344l-68 -68v-602zM735 -68l-45 -45l-112 113h-404l-111 111v661l111 111h406l110 -111v-661l-65 -66z" />
    <glyph glyph-name="R" unicode="R" horiz-adv-x="718" 
d="M139 809v-330h338l66 66v198l-66 66h-338zM616 0h-73v338l-66 65h-338v-403h-73v883h442l108 -111v-256l-73 -74l73 -73v-369z" />
    <glyph glyph-name="S" unicode="S" horiz-adv-x="761" 
d="M86 184h74v-45l67 -65h289l68 67v234l-68 67h-338l-110 109v221l110 111h350l111 -111v-74h-74v45l-67 66h-289l-68 -68v-159l68 -68h338l110 -108v-295l-110 -111h-350l-111 111v73z" />
    <glyph glyph-name="T" unicode="T" 
d="M655 883v-74h-256v-809h-73v809h-258v74h587z" />
    <glyph glyph-name="U" unicode="U" 
d="M582 883h73v-772l-110 -111h-369l-110 111v772h73v-744l68 -65h307l68 67v742z" />
    <glyph glyph-name="V" unicode="V" horiz-adv-x="761" 
d="M584 883h73v-477l-239 -406h-111l-239 406v477h73v-457l207 -352h27l209 350v459z" />
    <glyph glyph-name="W" unicode="W" horiz-adv-x="1050" 
d="M874 883h74v-480l-186 -403h-107l-149 324l-150 -324h-106l-187 403v480h74v-467l158 -342h16l158 342v467h74v-467l157 -342h17l157 342v467z" />
    <glyph glyph-name="X" unicode="X" horiz-adv-x="761" 
d="M584 883h73v-248l-192 -195l192 -192v-248h-73v231l-172 172h-97l-174 -172v-231h-71v248l192 192l-192 195v248h71v-232l174 -174h97l172 174v232z" />
    <glyph glyph-name="Y" unicode="Y" 
d="M582 883h73v-258l-258 -219v-406h-73v408l-258 219v256h73v-221l223 -191l220 188v224z" />
    <glyph glyph-name="Z" unicode="Z" horiz-adv-x="761" 
d="M68 883h589v-185l-516 -544v-80h516v-74h-589v184l516 545v80h-516v74z" />
    <glyph glyph-name="bracketleft" unicode="[" horiz-adv-x="356" 
d="M254 956h-111v-1030h111v-73h-184v1177h184v-74z" />
    <glyph glyph-name="backslash" unicode="\" horiz-adv-x="593" 
d="M592 0h-84l-508 885h84z" />
    <glyph glyph-name="bracketright" unicode="]" horiz-adv-x="288" 
d="M0 1030h184v-1177h-184v73h111v1030h-111v74z" />
    <glyph glyph-name="asciicircum" unicode="^" horiz-adv-x="864" 
d="M465 885l295 -590h-82l-258 516h-21l-258 -516h-82l295 590h111z" />
    <glyph glyph-name="underscore" unicode="_" 
d="M68 -133v74h587v-74h-587z" />
    <glyph glyph-name="grave" unicode="`" horiz-adv-x="303" 
d="M162 700l-111 185h92l56 -185h-37z" />
    <glyph glyph-name="a" unicode="a" 
d="M582 313h-375l-68 -67v-105l68 -67h209l166 166v73zM655 0h-73v150l-148 -150h-258l-110 111v165l110 111h406v98l-68 68h-307l-68 -68v-43h-73v74l110 111h369l110 -111v-516z" />
    <glyph glyph-name="b" unicode="b" 
d="M516 74l68 67v344l-68 68h-209l-166 -166v-246l68 -67h307zM68 885h73v-406l148 148h258l110 -111v-405l-110 -111h-369l-110 111v774z" />
    <glyph glyph-name="c" unicode="c" horiz-adv-x="761" 
d="M584 184h73v-73l-110 -111h-369l-110 111v405l110 111h369l110 -111v-74h-73v43l-68 68h-307l-68 -68v-344l68 -67h307l68 67v43z" />
    <glyph glyph-name="d" unicode="d" horiz-adv-x="761" 
d="M516 74l68 67v246l-166 166h-209l-68 -68v-344l68 -67h307zM584 885h73v-774l-110 -111h-369l-110 111v405l110 111h258l148 -148v406z" />
    <glyph glyph-name="e" unicode="e" horiz-adv-x="761" 
d="M141 369h443v116l-68 68h-307l-68 -68v-116zM657 295h-516v-154l68 -67h307l68 67v43h73v-73l-110 -111h-369l-110 111v405l110 111h369l110 -111v-221z" />
    <glyph glyph-name="f" unicode="f" horiz-adv-x="428" 
d="M139 553h185v-74h-185v-479h-73v774l110 111h148v-74h-117l-68 -68v-190z" />
    <glyph glyph-name="g" unicode="g" 
d="M416 74l166 166v245l-68 68h-307l-68 -68v-344l68 -67h209zM360 -258v74h154l68 67v264l-148 -147h-258l-110 111v405l110 111h369l110 -111v-663l-110 -111h-185z" />
    <glyph glyph-name="h" unicode="h" horiz-adv-x="722" 
d="M621 0h-74v485l-68 68h-172l-166 -166v-387h-73v885h73v-406l148 148h221l111 -111v-516z" />
    <glyph glyph-name="i" unicode="i" horiz-adv-x="245" 
d="M125 768l27 -27v-39l-27 -26h-39l-27 26v39l27 27h39zM68 0v627h73v-627h-73z" />
    <glyph glyph-name="j" unicode="j" horiz-adv-x="264" 
d="M141 768l27 -27v-39l-27 -26h-39l-26 26v39l26 27h39zM86 625h74v-775l-111 -110h-102v74h71l68 67v744z" />
    <glyph glyph-name="k" unicode="k" horiz-adv-x="722" 
d="M545 627h73v-119l-192 -195l192 -192v-121h-73v104l-174 172h-232v-276h-73v885h73v-535h232l174 174v103z" />
    <glyph glyph-name="l" unicode="l" horiz-adv-x="243" 
d="M68 0v885h73v-885h-73z" />
    <glyph glyph-name="m" unicode="m" horiz-adv-x="978" 
d="M874 0h-73v487l-68 66h-160l-67 -66v-487h-74v487l-67 66h-62l-166 -164v-389h-74v627h74v-148l148 148h110l74 -74l74 74h221l110 -111v-516z" />
    <glyph glyph-name="n" unicode="n" horiz-adv-x="722" 
d="M616 0h-73v487l-66 66h-174l-164 -164v-389h-73v627h73v-148l148 148h221l108 -111v-516z" />
    <glyph glyph-name="o" unicode="o" horiz-adv-x="761" 
d="M209 74h307l68 67v344l-68 68h-307l-68 -68v-344zM657 111l-110 -111h-369l-110 111v405l110 111h369l110 -111v-405z" />
    <glyph glyph-name="p" unicode="p" horiz-adv-x="761" 
d="M141 74h375l68 67v344l-68 68h-307l-68 -68v-411zM141 0v-256h-73v772l110 111h369l110 -111v-405l-110 -111h-406z" />
    <glyph glyph-name="q" unicode="q" 
d="M584 74v411l-68 68h-307l-68 -68v-344l68 -67h375zM657 -256h-73v256h-406l-110 111v405l110 111h369l110 -111v-772z" />
    <glyph glyph-name="r" unicode="r" horiz-adv-x="573" 
d="M471 553h-168l-164 -164v-389h-73v627h73v-148l148 148h184v-74z" />
    <glyph glyph-name="s" unicode="s" horiz-adv-x="761" 
d="M86 184h74v-43l67 -67h289l68 67v70l-68 65h-338l-110 111v129l110 111h350l111 -111v-74h-74v43l-67 68h-289l-68 -68v-67l68 -68h338l110 -108v-131l-110 -111h-350l-111 111v73z" />
    <glyph glyph-name="t" unicode="t" horiz-adv-x="425" 
d="M324 551h-185v-412l68 -67h117v-72h-148l-110 111v772h73v-258h185v-74z" />
    <glyph glyph-name="u" unicode="u" horiz-adv-x="724" 
d="M547 625h74v-625h-74v147l-148 -147h-221l-110 109v516h73v-486l68 -67h172l166 166v387z" />
    <glyph glyph-name="v" unicode="v" horiz-adv-x="684" 
d="M508 627h74v-351l-203 -276h-111l-202 276v351h73v-342l156 -211h57l156 211v342z" />
    <glyph glyph-name="w" unicode="w" horiz-adv-x="980" 
d="M803 627h74v-351l-166 -276h-109l-129 215l-131 -215h-109l-165 276v351h73v-346l123 -207h47l125 207v346h74v-346l123 -207h47l123 207v346z" />
    <glyph glyph-name="x" unicode="x" 
d="M582 627h73v-119l-192 -195l192 -192v-121h-73v104l-174 172h-95l-174 -172v-104h-73v121l194 192l-194 195v119h73v-103l174 -174h95l174 174v103z" />
    <glyph glyph-name="y" unicode="y" horiz-adv-x="761" 
d="M657 627v-774l-110 -111h-185v74h154l68 67v264l-148 -147h-258l-110 111v516h73v-486l68 -67h209l166 166v387h73z" />
    <glyph glyph-name="z" unicode="z" 
d="M68 627h589v-148l-516 -358v-47h516v-74h-589v147l516 359v47h-516v74z" />
    <glyph glyph-name="braceleft" unicode="{" horiz-adv-x="462" 
d="M358 -74v-73h-73l-111 108v371l-111 110l111 111v367l111 110h73v-74h-43l-67 -67v-367l-80 -80l80 -80v-370l67 -66h43z" />
    <glyph glyph-name="bar" unicode="|" horiz-adv-x="243" 
d="M139 1067v-1325h-73v1325h73z" />
    <glyph glyph-name="braceright" unicode="}" horiz-adv-x="397" 
d="M0 -147v73h43l68 68v366l79 80l-79 80v369l-68 67h-43v74h74l110 -110v-369l111 -111l-111 -110v-367l-110 -110h-74z" />
    <glyph glyph-name="asciitilde" unicode="~" horiz-adv-x="757" 
d="M580 625h73v-74l-110 -111h-74l-236 111h-28l-66 -68v-43h-73v74l110 111h74l235 -111h27l68 68v43z" />
    <glyph glyph-name="nonbreakingspace" unicode="&#xa0;" horiz-adv-x="450" 
 />
    <glyph glyph-name="exclamdown" unicode="&#xa1;" horiz-adv-x="253" 
d="M76 442h55l19 -700h-93zM123 625l27 -27v-37l-27 -29h-39l-27 29v37l27 27h39z" />
    <glyph glyph-name="cent" unicode="&#xa2;" horiz-adv-x="684" 
d="M582 625h-74v43l-68 67h-233l-68 -67v-527l68 -67h233l68 67v43h74v-73l-111 -111h-111v-74h-73v74h-111l-110 111v587l110 111h111v74h73v-74h111l111 -111v-73z" />
    <glyph glyph-name="sterling" unicode="&#xa3;" horiz-adv-x="790" 
d="M688 74v-74h-625v74l148 147v185h-148v73h148v295l111 111h221l108 -111v-74h-71v43l-68 68h-160l-67 -68v-264h147v-73h-147v-216l-117 -116h520z" />
    <glyph glyph-name="currency" unicode="&#xa4;" horiz-adv-x="817" 
d="M229 221h308l67 68v307l-67 68h-308l-67 -68v-307zM678 258l-29 -31l66 -65l-53 -51l-66 65l-29 -29h-368l-29 29l-66 -65l-53 51l66 65l-29 31v369l29 28l-66 66l53 53l66 -67l29 30h368l29 -30l66 67l53 -53l-66 -66l29 -28v-369z" />
    <glyph glyph-name="yen" unicode="&#xa5;" horiz-adv-x="761" 
d="M584 883h73v-258l-194 -164h121v-74h-185v-74h185v-73h-185v-240h-73v240h-185v73h185v74h-185v74h123l-196 168v254h73v-221l221 -191l222 188v224z" />
    <glyph glyph-name="brokenbar" unicode="&#xa6;" horiz-adv-x="245" 
d="M70 -258v627h71v-627h-71zM70 1030h71v-588h-71v588z" />
    <glyph glyph-name="section" unicode="&#xa7;" horiz-adv-x="686" 
d="M246 295h196l68 67v50l-104 104h-197l-68 -67v-50zM104 111h74v-43l68 -68h196l68 68v88l-68 65h-227l-147 148v110l73 74l-73 74v147l110 111h258l111 -111v-74h-74v43l-67 68h-197l-68 -68v-86l68 -67h225l150 -148v-110l-74 -74l74 -74v-147l-111 -111h-258l-111 111
v74z" />
    <glyph glyph-name="dieresis" unicode="&#xa8;" horiz-adv-x="503" 
d="M362 1092l39 -39v-56l-39 -39h-55l-39 39v56l39 39h55zM100 1092h56l39 -39v-56l-39 -39h-56l-39 39v56z" />
    <glyph glyph-name="copyright" unicode="&#xa9;" horiz-adv-x="905" 
d="M655 479h-73v41l-70 70h-158l-67 -70v-158l67 -67h160l68 67v44h73v-74l-110 -111h-221l-111 111v219l111 111h219l112 -111v-72zM729 289v307l-141 139h-307l-142 -141v-305l142 -142h307zM618 809l185 -182v-369l-185 -184h-368l-184 184v367l184 184h368z" />
    <glyph glyph-name="ordfeminine" unicode="&#xaa;" horiz-adv-x="622" 
d="M451 571h-269q-4 -2 -9 -7l-38 -38v-71l47 -47h150q2 2 19.5 20t24.5 24l75 76v43zM135 668h-67v65l86 86h278l86 -86v-393h-67v100l-101 -100h-196l-86 86v129l86 86h297v64l-45 45h-224l-47 -45v-37z" />
    <glyph glyph-name="guillemotleft" unicode="&#xab;" horiz-adv-x="618" 
d="M514 479l-147 -135v-8l147 -135v-101l-221 203v74l221 203v-101zM145 344v-8l148 -135v-101l-221 203v74l221 203v-101z" />
    <glyph glyph-name="logicalnot" unicode="&#xac;" horiz-adv-x="800" 
d="M70 479h626v-295h-73v222h-553v73z" />
    <glyph glyph-name="registered" unicode="&#xae;" horiz-adv-x="677" 
d="M276 705v-70h72l33 35v2l-33 33h-72zM227 754h142l61 -62v-43l-37 -37q2 -4 8.5 -10t12.5 -12l16 -17v-65h-49v47l-33 33h-72v-78h-49v244zM522 551v158l-123 125h-159l-123 -123v-162l121 -121h161zM573 530q0 -2 -37.5 -40t-75.5 -75.5t-40 -37.5h-203l-23 23
q-24 24 -74 76t-54 52v203l153 154h201l153 -154v-201z" />
    <glyph glyph-name="macron" unicode="&#xaf;" horiz-adv-x="432" 
d="M328 989h-258v74h258v-74z" />
    <glyph glyph-name="degree" unicode="&#xb0;" horiz-adv-x="362" 
d="M264 727v53l-37 39h-53l-39 -39v-53l39 -37h53zM254 883l76 -76v-107l-76 -75h-107l-75 75v107l75 76h107z" />
    <glyph glyph-name="plusminus" unicode="&#xb1;" horiz-adv-x="829" 
d="M725 369h-295v-295h295v-74h-662v74h293v295h-293v73h293v295h74v-295h295v-73z" />
    <glyph glyph-name="twosuperior" unicode="&#xb2;" horiz-adv-x="507" 
d="M147 752h-67v59l70 70h184l69 -68v-115l-131 -118q-49 -45 -91 -83t-44 -40v-25h266v-67h-333v120q247 227 264 244v55l-29 29h-129l-29 -29v-32z" />
    <glyph glyph-name="threesuperior" unicode="&#xb3;" horiz-adv-x="507" 
d="M70 494h67v-33q4 -2 7 -5l24 -24h137l31 29v119q-25 25 -31 28h-133v70h133q13 6 31 29v77q-4 2 -7 5l-24 24h-127q-28 -28 -31 -29v-32h-67v59l70 70h184l69 -68v-135q-33 -33 -33 -36t6.5 -8t12.5 -11l14 -15v-174l-69 -69h-195l-69 69v60z" />
    <glyph glyph-name="acute" unicode="&#xb4;" horiz-adv-x="319" 
d="M68 932l55 147h92l-111 -147h-36z" />
    <glyph glyph-name="mu" unicode="&#xb5;" horiz-adv-x="722" 
d="M547 625h74v-625h-74v147l-148 -147h-221l-37 37v-295h-73v883h73v-486l68 -65h172l166 164v387z" />
    <glyph glyph-name="paragraph" unicode="&#xb6;" horiz-adv-x="571" 
d="M322 885v-1143h-74v737h-66l-119 119v168l119 119h140zM395 885h74v-1143h-74v1143z" />
    <glyph glyph-name="periodcentered" unicode="&#xb7;" horiz-adv-x="325" 
d="M221 471v-59l-43 -43h-61l-43 43v59l43 43h61z" />
    <glyph glyph-name="cedilla" unicode="&#xb8;" horiz-adv-x="352" 
d="M63 -309v63h84l37 39v43l-37 39h-84v37l105 129l35 -23l-45 -79h16l76 -74v-98l-76 -76h-111z" />
    <glyph glyph-name="onesuperior" unicode="&#xb9;" horiz-adv-x="317" 
d="M213 883v-518h-68v413q-6 -4 -12 -11t-12 -13l-15 -15l-49 49l95 95h61z" />
    <glyph glyph-name="ordmasculine" unicode="&#xba;" horiz-adv-x="507" 
d="M338 580v127l-37 38h-127l-39 -38v-127l39 -37h127zM328 809l75 -74v-182l-75 -74h-181l-75 74v182l75 74h181z" />
    <glyph glyph-name="guillemotright" unicode="&#xbb;" horiz-adv-x="618" 
d="M295 377v-74l-221 -203v99l147 135v10l-147 135v101zM295 580l221 -203v-74l-221 -203v99l147 135v10l-147 135v101z" />
    <glyph glyph-name="onequarter" unicode="&#xbc;" horiz-adv-x="942" 
d="M217 885v-518h-67v413l-39 -39l-48 50l95 94h59zM729 885l-508 -885h-84l506 885h86zM573 150h156v292l-156 -280v-12zM838 150v-68h-41v-82h-68v82h-223v98l188 336h103v-366h41z" />
    <glyph glyph-name="onehalf" unicode="&#xbd;" horiz-adv-x="1048" 
d="M727 885l-506 -885h-86l508 885h84zM215 885v-516h-68v411q-4 -4 -11 -10t-13 -12l-14 -15l-48 48l95 94h59zM690 385h-67v61l67 70h187l67 -70v-112l-131 -119q-122 -112 -133 -123v-24h264v-68h-332v121q259 238 265 244v55q-4 2 -15.5 13t-13.5 16h-129l-29 -29v-35z
" />
    <glyph glyph-name="threequarters" unicode="&#xbe;" horiz-adv-x="1124" 
d="M907 885l-506 -885h-86l508 885h84zM756 150h155v292l-155 -280v-12zM1020 150v-68h-41v-82h-68v82h-223v98l189 336h102v-366h41zM61 498h68v-33l29 -29h139l29 29v119l-29 28h-133v68h133l29 29v77q-2 4 -5 7l-24 24h-129l-29 -31v-30h-67v59l69 70h185l67 -70v-133
l-35 -35q4 -4 9.5 -10t11.5 -12l14 -15v-174l-67 -69h-195l-70 69v62z" />
    <glyph glyph-name="questiondown" unicode="&#xbf;" horiz-adv-x="720" 
d="M543 -74h73v-73l-110 -111h-332l-108 111v186l237 217v186h74v-219l-238 -217v-123l66 -67h270l68 67v43zM360 532h-38l-27 29v37l27 27h38l27 -27v-37z" />
    <glyph glyph-name="Acircumflex" unicode="&#xc2;" 
d="M582 332v125l-209 352h-27l-207 -350v-127h443zM655 0h-73v258h-443v-258h-73v477l239 406h111l239 -406v-477zM178 993l160 158h47l158 -158l-25 -26l-158 104l-155 -104z" />
    <glyph glyph-name="Adieresis" unicode="&#xc4;" 
d="M582 332v125l-209 352h-27l-207 -350v-127h443zM655 0h-73v258h-443v-258h-73v477l239 406h111l239 -406v-477zM492 1141l38 -39v-55l-38 -39h-56l-39 39v55l39 39h56zM229 1141h56l39 -39v-55l-39 -39h-56l-39 39v55z" />
    <glyph glyph-name="Aring" unicode="&#xc5;" 
d="M582 332v125l-209 352h-27l-207 -350v-127h443zM655 0h-73v258h-443v-258h-73v477l239 406h111l239 -406v-477zM381 1124h-39l-27 -28v-37l27 -27h39l27 27v37zM315 1188h93l63 -66v-90l-63 -65h-93l-65 65v92z" />
    <glyph glyph-name="AE" unicode="&#xc6;" horiz-adv-x="1236" 
d="M137 332h443v479h-27l-416 -352v-127zM653 479h443v-73h-443v-265l68 -67h412v-74h-443l-110 111v147h-443v-258h-74v479l480 406h110v-37l37 37h443v-74h-412l-68 -68v-264z" />
    <glyph glyph-name="Ccedilla" unicode="&#xc7;" 
d="M270 -309v63h84l37 39v43l-37 39h-84v37l72 88h-164l-110 111v661l110 111h369l110 -111v-74h-73v45l-68 66h-307l-68 -68v-602l68 -65h307l68 67v43h73v-73l-110 -111h-148l-34 -61h16l76 -74v-98l-76 -76h-111z" />
    <glyph glyph-name="Ecircumflex" unicode="&#xca;" horiz-adv-x="724" 
d="M141 479h441v-73h-441v-267l66 -65h411v-74h-440l-110 111v661l110 111h440v-74h-409l-68 -68v-262zM160 993l159 158h48l157 -158l-24 -26l-158 104l-156 -104z" />
    <glyph glyph-name="Edieresis" unicode="&#xcb;" horiz-adv-x="724" 
d="M141 479h441v-73h-441v-267l66 -65h411v-74h-440l-110 111v661l110 111h440v-74h-409l-68 -68v-262zM473 1141l39 -39v-55l-39 -39h-55l-39 39v55l39 39h55zM211 1141h55l39 -39v-55l-39 -39h-55l-39 39v55z" />
    <glyph glyph-name="Icircumflex" unicode="&#xce;" horiz-adv-x="243" 
d="M139 0h-73v883h73v-883zM-78 993l160 158h47l158 -158l-25 -26l-158 104l-155 -104z" />
    <glyph glyph-name="Idieresis" unicode="&#xcf;" horiz-adv-x="243" 
d="M139 0h-73v883h73v-883zM236 1141l38 -39v-55l-38 -39h-56l-39 39v55l39 39h56zM-27 1141h56l39 -39v-55l-39 -39h-56l-39 39v55z" />
    <glyph glyph-name="Eth" unicode="&#xd0;" horiz-adv-x="833" 
d="M213 809v-330h221v-73h-221v-332h375l67 67v602l-67 66h-375zM139 0v406h-73v73h73v404h479l111 -111v-661l-111 -111h-479z" />
    <glyph glyph-name="Ntilde" unicode="&#xd1;" 
d="M582 883h73v-883h-73l-443 739v-739h-73v883h73l443 -740v740zM526 1139l25 -29l-150 -102l-92 57l-114 -55l-25 26l143 105l95 -60z" />
    <glyph glyph-name="Ocircumflex" unicode="&#xd4;" horiz-adv-x="796" 
d="M616 141v602l-67 66h-344l-68 -68v-602l68 -65h344zM580 883l110 -111v-661l-110 -111h-406l-111 111v661l111 111h406zM195 993l159 158h47l158 -158l-24 -26l-158 104l-156 -104z" />
    <glyph glyph-name="Odieresis" unicode="&#xd6;" horiz-adv-x="794" 
d="M616 141v602l-67 66h-344l-68 -68v-602l68 -65h344zM580 883l110 -111v-661l-110 -111h-406l-111 111v661l111 111h406zM508 1141l39 -39v-55l-39 -39h-55l-39 39v55l39 39h55zM246 1141h55l39 -39v-55l-39 -39h-55l-39 39v55z" />
    <glyph glyph-name="multiply" unicode="&#xd7;" horiz-adv-x="729" 
d="M389 438q234 -232 236 -233l-47 -47q-4 4 -40 41t-79 80l-115 114l-115 -114q-115 -115 -118 -121l-48 47l38 36q38 36 83 83l115 114l-236 236q2 2 9.5 8t9.5 8l29 29q3 -6 118 -121l115 -115l80 80q80 80 115.5 117t38.5 39l47 -45z" />
    <glyph glyph-name="Oslash" unicode="&#xd8;" horiz-adv-x="794" 
d="M618 743l-8 7l-409 -670l6 -6h344l67 67v602zM139 139l8 -6l410 670l-6 6h-344l-68 -68v-602zM692 883l-43 -68l43 -41v-663l-110 -111h-406l-16 14l-31 -53l-63 39l40 68l-40 43v661l110 111h406l14 -15l33 54z" />
    <glyph glyph-name="Ucircumflex" unicode="&#xdb;" 
d="M582 883h73v-772l-110 -111h-369l-110 111v772h73v-744l68 -65h307l68 67v742zM178 993l160 158h47l158 -158l-25 -26l-158 104l-155 -104z" />
    <glyph glyph-name="Udieresis" unicode="&#xdc;" 
d="M582 883h73v-772l-110 -111h-369l-110 111v772h73v-744l68 -65h307l68 67v742zM492 1141l38 -39v-55l-38 -39h-56l-39 39v55l39 39h56zM229 1141h56l39 -39v-55l-39 -39h-56l-39 39v55z" />
    <glyph glyph-name="Thorn" unicode="&#xde;" horiz-adv-x="724" 
d="M141 606v-330h338l68 68v197l-68 65h-338zM141 203v-203h-73v883h73v-203h369l111 -109v-258l-111 -110h-369z" />
    <glyph glyph-name="uni00DF" unicode="&#xdf;" horiz-adv-x="686" 
d="M213 0v74h227l68 67v111l-184 184l147 146v159l-68 68h-196l-68 -66v-1001h-73v1030l110 111h258l111 -111v-219l-117 -117l154 -153v-172l-111 -111h-258z" />
    <glyph glyph-name="acircumflex" unicode="&#xe2;" 
d="M582 313h-375l-68 -67v-105l68 -67h209l166 166v73zM655 0h-73v150l-148 -150h-258l-110 111v165l110 111h406v98l-68 68h-307l-68 -68v-43h-73v74l110 111h369l110 -111v-516zM178 731l160 158h47l158 -158l-25 -26l-158 104l-155 -104z" />
    <glyph glyph-name="adieresis" unicode="&#xe4;" 
d="M582 313h-375l-68 -67v-105l68 -67h209l166 166v73zM655 0h-73v150l-148 -150h-258l-110 111v165l110 111h406v98l-68 68h-307l-68 -68v-43h-73v74l110 111h369l110 -111v-516zM492 879l38 -39v-56l-38 -39h-56l-39 39v56l39 39h56zM229 879h56l39 -39v-56l-39 -39h-56
l-39 39v56z" />
    <glyph glyph-name="aring" unicode="&#xe5;" 
d="M582 313h-375l-68 -67v-105l68 -67h209l166 166v73zM655 0h-73v150l-148 -150h-258l-110 111v165l110 111h406v98l-68 68h-307l-68 -68v-43h-73v74l110 111h369l110 -111v-516zM381 862h-39l-27 -28v-37l27 -27h39l27 27v37zM315 926h93l63 -66v-90l-63 -65h-93l-65 65
v92z" />
    <glyph glyph-name="ae" unicode="&#xe6;" horiz-adv-x="1275" 
d="M582 313h-375l-68 -67v-105l68 -67h209l166 166v73zM655 350h441v135l-66 68h-307l-68 -68v-135zM1169 276h-514v-135l66 -67h303v-74h-332l-110 111v39l-148 -150h-258l-110 111v165l110 111h406v98l-68 68h-307l-68 -68v-43h-73v74l110 111h369l73 -74l74 74h369
l108 -111v-240z" />
    <glyph glyph-name="ccedilla" unicode="&#xe7;" horiz-adv-x="763" 
d="M268 -307v63h84l37 39v43l-37 39h-84v37l70 86h-160l-110 111v405l110 111h369l110 -111v-74h-73v43l-68 68h-307l-68 -68v-344l68 -67h307l68 67v43h73v-73l-110 -111h-152l-33 -59h17l76 -74v-98l-76 -76h-111z" />
    <glyph glyph-name="ecircumflex" unicode="&#xea;" 
d="M141 369h443v116l-68 68h-307l-68 -68v-116zM657 295h-516v-154l68 -67h307l68 67v43h73v-73l-110 -111h-369l-110 111v405l110 111h369l110 -111v-221zM180 731l160 158h47l158 -158l-25 -26l-158 104l-155 -104z" />
    <glyph glyph-name="edieresis" unicode="&#xeb;" 
d="M141 369h443v116l-68 68h-307l-68 -68v-116zM657 295h-516v-154l68 -67h307l68 67v43h73v-73l-110 -111h-369l-110 111v405l110 111h369l110 -111v-221zM494 879l38 -39v-56l-38 -39h-56l-39 39v56l39 39h56zM231 879h56l39 -39v-56l-39 -39h-56l-38 39v56z" />
    <glyph glyph-name="icircumflex" unicode="&#xee;" horiz-adv-x="243" 
d="M68 0v625h73v-625h-73zM-74 731l160 158h47l158 -158l-25 -26l-157 104l-156 -104z" />
    <glyph glyph-name="idieresis" unicode="&#xef;" horiz-adv-x="243" 
d="M68 0v625h73v-625h-73zM238 879l38 -39v-56l-38 -39h-56l-39 39v56l39 39h56zM-25 879h56l39 -39v-56l-39 -39h-56l-38 39v56z" />
    <glyph glyph-name="eth" unicode="&#xf0;" horiz-adv-x="761" 
d="M584 141v246l-164 166h-211l-68 -68v-344l68 -67h307zM584 885h73v-86l99 55l32 -55l-131 -76v-612l-110 -111h-369l-110 111v405l110 111h258l148 -148v203l-97 -57l-32 55l129 76v129z" />
    <glyph glyph-name="ntilde" unicode="&#xf1;" horiz-adv-x="724" 
d="M616 0h-73v487l-66 66h-174l-164 -164v-389h-73v627h73v-148l148 148h221l108 -111v-516zM506 877l24 -29l-149 -103l-92 58l-115 -55l-24 26l143 105l94 -60z" />
    <glyph glyph-name="ocircumflex" unicode="&#xf4;" horiz-adv-x="761" 
d="M209 74h307l68 67v344l-68 68h-307l-68 -68v-344zM657 111l-110 -111h-369l-110 111v405l110 111h369l110 -111v-405zM180 731l160 158h47l158 -158l-25 -26l-158 104l-155 -104z" />
    <glyph glyph-name="odieresis" unicode="&#xf6;" horiz-adv-x="761" 
d="M209 74h307l68 67v344l-68 68h-307l-68 -68v-344zM657 111l-110 -111h-369l-110 111v405l110 111h369l110 -111v-405zM494 879l38 -39v-56l-38 -39h-56l-39 39v56l39 39h56zM231 879h56l39 -39v-56l-39 -39h-56l-38 39v56z" />
    <glyph glyph-name="divide" unicode="&#xf7;" horiz-adv-x="829" 
d="M371 328h47l31 -33v-45l-31 -33h-47l-33 33v45zM418 549h-47l-33 33v45l33 32h47l31 -32v-45zM61 475h664v-74h-664v74z" />
    <glyph glyph-name="oslash" unicode="&#xf8;" 
d="M514 74l68 67v344l-21 21l-350 -432h303zM139 141l19 -16l348 428h-299l-68 -68v-344zM655 516v-405l-110 -111h-369l-12 14l-41 -51l-57 47l45 58l-45 43v405l110 111h369l12 -11l39 50l57 -48l-45 -55z" />
    <glyph glyph-name="ucircumflex" unicode="&#xfb;" horiz-adv-x="722" 
d="M547 625h74v-625h-74v147l-148 -147h-221l-110 109v516h73v-486l68 -67h172l166 166v387zM162 731l160 158h47l157 -158l-24 -26l-158 104l-156 -104z" />
    <glyph glyph-name="udieresis" unicode="&#xfc;" horiz-adv-x="722" 
d="M547 625h74v-625h-74v147l-148 -147h-221l-110 109v516h73v-486l68 -67h172l166 166v387zM475 879l39 -39v-56l-39 -39h-55l-39 39v56l39 39h55zM213 879h55l39 -39v-56l-39 -39h-55l-39 39v56z" />
    <glyph glyph-name="thorn" unicode="&#xfe;" horiz-adv-x="761" 
d="M516 74l66 67v344l-66 68h-307l-68 -68v-344l66 -67h309zM141 -221h-73v1069h73v-258l37 37h369l108 -111v-405l-110 -111h-367l-37 37v-258z" />
    <glyph glyph-name="ydieresis" unicode="&#xff;" horiz-adv-x="761" 
d="M657 627v-774l-110 -111h-185v74h154l68 67v264l-148 -147h-258l-110 111v516h73v-486l68 -67h209l166 166v387h73zM494 879l38 -39v-56l-38 -39h-56l-39 39v56l39 39h56zM231 879h56l39 -39v-56l-39 -39h-56l-38 39v56z" />
    <glyph glyph-name="Abreve" unicode="&#x102;" 
d="M582 332v125l-209 352h-27l-207 -350v-127h443zM655 0h-73v258h-443v-258h-73v477l239 406h111l239 -406v-477zM508 1151l37 -18l-96 -166h-177l-96 166l37 18l96 -111h103z" />
    <glyph glyph-name="abreve" unicode="&#x103;" 
d="M582 313h-375l-68 -67v-105l68 -67h209l166 166v73zM655 0h-73v150l-148 -150h-258l-110 111v165l110 111h406v98l-68 68h-307l-68 -68v-43h-73v74l110 111h369l110 -111v-516zM508 889l37 -19l-96 -165h-177l-96 165l37 19l96 -111h103z" />
    <glyph glyph-name="Cacute" unicode="&#x106;" horiz-adv-x="757" 
d="M580 184h73v-73l-110 -111h-369l-111 111v661l111 111h369l110 -111v-74h-73v45l-68 66h-307l-68 -68v-602l68 -65h307l68 67v43zM356 967l-24 24l157 160l62 -61z" />
    <glyph glyph-name="cacute" unicode="&#x107;" horiz-adv-x="761" 
d="M584 184h73v-73l-110 -111h-369l-110 111v405l110 111h369l110 -111v-74h-73v43l-68 68h-307l-68 -68v-344l68 -67h307l68 67v43zM279 705l-25 24l158 160l61 -62z" />
    <glyph glyph-name="Ccaron" unicode="&#x10c;" horiz-adv-x="757" 
d="M584 184h73v-73l-110 -111h-369l-110 111v661l110 111h369l110 -111v-74h-73v45l-68 66h-307l-68 -68v-602l68 -65h307l68 67v43zM545 1124l-158 -157h-49l-158 157l25 27l157 -104l156 104z" />
    <glyph glyph-name="ccaron" unicode="&#x10d;" horiz-adv-x="761" 
d="M584 184h73v-73l-110 -111h-369l-110 111v405l110 111h369l110 -111v-74h-73v43l-68 68h-307l-68 -68v-344l68 -67h307l68 67v43zM545 862l-158 -157h-49l-158 157l25 27l157 -105l156 105z" />
    <glyph glyph-name="Dcroat" unicode="&#x110;" 
d="M139 811v-332h258v-73h-258v-332h375l68 67v602l-68 68h-375zM66 0v406h-74v73h74v406h479l110 -111v-663l-110 -111h-479z" />
    <glyph glyph-name="dcroat" unicode="&#x111;" 
d="M584 141v246l-164 166h-211l-66 -68v-344l68 -67h307zM731 793v-74h-74v-608l-108 -111h-369l-110 111v405l108 111h258l148 -148v240h-111v74h111v92h73v-92h74z" />
    <glyph glyph-name="Gbreve" unicode="&#x11e;" 
d="M655 698h-73v45l-66 66h-309l-66 -68v-602l66 -65h307l68 67v265h-222v73h295v-368l-110 -111h-369l-108 111v661l110 111h367l110 -109v-76zM508 1151l37 -18l-96 -166h-177l-96 166l37 18l96 -111h103z" />
    <glyph glyph-name="gbreve" unicode="&#x11f;" horiz-adv-x="761" 
d="M416 74l166 166v245l-68 68h-307l-68 -68v-344l68 -67h209zM360 -258v74h154l68 67v264l-148 -147h-258l-110 111v405l110 111h369l110 -111v-663l-110 -111h-185zM508 889l37 -19l-96 -165h-177l-96 165l37 19l96 -111h103z" />
    <glyph glyph-name="Idotaccent" unicode="&#x130;" horiz-adv-x="243" 
d="M123 1059l27 -27v-39l-27 -26h-39l-27 26v39l27 27h39zM139 0h-73v883h73v-883z" />
    <glyph glyph-name="dotlessi" unicode="&#x131;" horiz-adv-x="243" 
d="M68 0v625h73v-625h-73z" />
    <glyph glyph-name="Lslash" unicode="&#x141;" horiz-adv-x="694" 
d="M147 74h443v-74h-516v336l-74 -74v105l74 73v445h73v-373l111 111v-103l-111 -110v-336z" />
    <glyph glyph-name="lslash" unicode="&#x142;" horiz-adv-x="327" 
d="M147 0h-73v352l-74 -73v102l74 74v430h73v-357l74 74v-102l-74 -74v-426z" />
    <glyph glyph-name="OE" unicode="&#x152;" horiz-adv-x="1239" 
d="M139 141l68 -67h411l-36 37v663l36 37h-411l-68 -68v-602zM655 479h443v-73h-443v-265l68 -67h412v-74h-959l-110 111v663l110 111h959v-74h-412l-68 -68v-264z" />
    <glyph glyph-name="oe" unicode="&#x153;" horiz-adv-x="1273" 
d="M655 350h443v135l-68 68h-307l-68 -68v-135zM514 74l68 67v344l-68 68h-307l-68 -68v-344l68 -67h307zM1171 276h-516v-135l68 -67h301v-74h-332l-74 74l-73 -74h-369l-110 111v405l110 111h369l73 -74l74 74h369l110 -111v-240z" />
    <glyph glyph-name="Scedilla" unicode="&#x15e;" 
d="M268 -309v63h84l37 39v43l-37 39h-84v37l72 88h-143l-111 111v73h74v-45l67 -65h289l68 67v234l-68 67h-338l-110 109v221l110 111h350l111 -111v-74h-74v45l-67 66h-289l-68 -68v-159l68 -68h338l110 -108v-295l-110 -111h-150l-35 -61h17l76 -74v-98l-76 -76h-111z" />
    <glyph glyph-name="scedilla" unicode="&#x15f;" horiz-adv-x="761" 
d="M270 -307v63h84l37 39v43l-37 39h-84v37l70 86h-143l-111 111v73h74v-43l67 -67h289l68 67v70l-68 65h-338l-110 111v129l110 111h350l111 -111v-74h-74v43l-67 68h-289l-68 -68v-67l68 -68h338l110 -108v-131l-110 -111h-150l-32 -59h16l76 -74v-98l-76 -76h-111z" />
    <glyph glyph-name="Scaron" unicode="&#x160;" horiz-adv-x="761" 
d="M86 184h74v-45l67 -65h289l68 67v234l-68 67h-338l-110 109v221l110 111h350l111 -111v-74h-74v45l-67 66h-289l-68 -68v-159l68 -68h338l110 -108v-295l-110 -111h-350l-111 111v73zM545 1124l-158 -157h-49l-158 157l25 27l157 -104l156 104z" />
    <glyph glyph-name="scaron" unicode="&#x161;" 
d="M86 184h74v-43l67 -67h289l68 67v70l-68 65h-338l-110 111v129l110 111h350l111 -111v-74h-74v43l-67 68h-289l-68 -68v-67l68 -68h338l110 -108v-131l-110 -111h-350l-111 111v73zM545 862l-158 -157h-49l-158 157l25 27l157 -105l156 105z" />
    <glyph glyph-name="Ydieresis" unicode="&#x178;" horiz-adv-x="757" 
d="M582 883h73v-258l-258 -219v-406h-73v408l-258 219v256h73v-221l223 -191l220 188v224zM492 1141l38 -39v-55l-38 -39h-56l-39 39v55l39 39h56zM229 1141h56l39 -39v-55l-39 -39h-56l-39 39v55z" />
    <glyph glyph-name="Zcaron" unicode="&#x17d;" horiz-adv-x="761" 
d="M68 883h589v-185l-516 -544v-80h516v-74h-589v184l516 545v80h-516v74zM545 1124l-158 -157h-49l-158 157l25 27l157 -104l156 104z" />
    <glyph glyph-name="zcaron" unicode="&#x17e;" horiz-adv-x="757" 
d="M68 627h589v-148l-516 -358v-47h516v-74h-589v147l516 359v47h-516v74zM545 862l-158 -157h-49l-158 157l25 27l157 -105l156 105z" />
    <glyph glyph-name="florin" unicode="&#x192;" horiz-adv-x="761" 
d="M70 0v74h112l82 67l72 338h-148l17 74h147l47 221l133 111h127v-74h-112l-80 -68l-41 -190h147l-16 -74h-147l-78 -368l-135 -111h-127z" />
    <glyph glyph-name="Ohorn" unicode="&#x1a0;" horiz-adv-x="796" 
d="M618 141v602l-67 68h-344l-68 -68v-602l68 -67h344zM723 930v-72l-57 -57l26 -27v-663l-110 -111h-406l-110 111v663l110 111h406l36 -37h3l36 37v45h66z" />
    <glyph glyph-name="ohorn" unicode="&#x1a1;" 
d="M516 74l68 67v344l-68 68h-307l-68 -68v-344l68 -67h307zM684 674v-72l-55 -57l28 -29v-405l-110 -111h-369l-110 111v405l110 111h369l35 -35l39 37v45h63z" />
    <glyph glyph-name="Uhorn" unicode="&#x1af;" horiz-adv-x="856" 
d="M719 928h65v-72l-75 -76h-54v-669l-110 -111h-369l-110 111v774h73v-744l68 -67h307l68 67v744h73v-39h27l37 37v45z" />
    <glyph glyph-name="uhorn" unicode="&#x1b0;" horiz-adv-x="815" 
d="M680 672h63v-72l-73 -76h-52v-524h-73v147l-148 -147h-221l-110 111v516h73v-486l68 -67h172l166 164v389h73v-39h25l37 39v45z" />
    <glyph glyph-name="circumflex" unicode="&#x2c6;" horiz-adv-x="530" 
d="M61 958l160 158h47l158 -158l-25 -26l-157 104l-156 -104z" />
    <glyph glyph-name="caron" unicode="&#x2c7;" horiz-adv-x="530" 
d="M428 1090l-158 -158h-49l-158 158l25 26l158 -104l155 104z" />
    <glyph glyph-name="breve" unicode="&#x2d8;" horiz-adv-x="536" 
d="M395 1116l37 -18l-96 -166h-176l-97 166l37 18l97 -110h102z" />
    <glyph glyph-name="dotaccent" unicode="&#x2d9;" horiz-adv-x="301" 
d="M197 1026v-55l-39 -39h-56l-39 39v55l39 39h56z" />
    <glyph glyph-name="ring" unicode="&#x2da;" horiz-adv-x="389" 
d="M195 1090h-39l-27 -29v-37l27 -27h39l26 27v37zM129 1153h92l64 -66v-90l-64 -65h-92l-66 65v93z" />
    <glyph glyph-name="ogonek" unicode="&#x2db;" horiz-adv-x="352" 
d="M250 -125h-84l-37 -39v-43l37 -39h84v-63h-111l-75 76v98l75 74h17l-45 79l34 23l105 -129v-37z" />
    <glyph glyph-name="tilde" unicode="&#x2dc;" horiz-adv-x="493" 
d="M162 895l114 -68l68 68l45 -45l-102 -102q-114 66 -115 67l-68 -67l-45 45z" />
    <glyph glyph-name="hungarumlaut" unicode="&#x2dd;" horiz-adv-x="475" 
d="M225 932l56 147h92l-111 -147h-37zM63 932l56 147h92l-111 -147h-37z" />
    <glyph glyph-name="gravecomb" unicode="&#x300;" horiz-adv-x="387" 
d="M258 932l-195 123l62 61l160 -160z" />
    <glyph glyph-name="acutecomb" unicode="&#x301;" horiz-adv-x="387" 
d="M88 932l-25 24l158 160l62 -61z" />
    <glyph glyph-name="tildecomb" unicode="&#x303;" horiz-adv-x="546" 
d="M420 1087l24 -28l-149 -103l-92 58l-115 -56l-25 27l144 105l94 -60z" />
    <glyph glyph-name="hookabovecomb" unicode="&#x309;" horiz-adv-x="352" 
d="M193 1042l-17 19h-35q-2 -2 -9 -5.5t-17 -11.5t-25 -14l-27 14l64 72h72l49 -49v-72l-82 -63l-29 16q13 20 25 34t20 24t11 12v24z" />
    <glyph glyph-name="dotbelowcomb" unicode="&#x323;" horiz-adv-x="301" 
d="M197 -100v-56l-39 -39h-56l-39 39v56l39 39h56z" />
    <glyph glyph-name="uni0E00" unicode="&#xe00;" horiz-adv-x="876" 
 />
    <glyph glyph-name="uni0E01" unicode="&#xe01;" horiz-adv-x="798" 
d="M694 0h-73v670l-68 67h-344l-37 -37l117 -116l-111 -111v-473h-74v504l80 80l-116 116l110 111h406l110 -111v-700z" />
    <glyph glyph-name="uni0E02" unicode="&#xe02;" horiz-adv-x="768" 
d="M229 598l-36 37h-54l-39 -37v-53l39 -39h54l36 39v53zM590 811h74v-700l-111 -111h-74l-110 111v559l-68 67h-123l-37 -37h78l76 -75v-107l-76 -76h-106l-76 76v182l110 111h185l110 -111v-559l68 -67h12l68 67v670z" />
    <glyph glyph-name="uni0E03" unicode="&#xe03;" horiz-adv-x="770" 
d="M195 635h-54l-37 -37v-53l37 -39h54l36 39v53zM592 811h74v-700l-111 -111h-74l-110 111v479l92 92v39l-17 16h-38l-74 -73l-74 73h-80l-37 -37h78l76 -75v-107l-76 -76h-106l-76 76v182l111 111h129l55 -57l55 57h74l74 -72v-75l-93 -93v-430l68 -67h12l68 67v670z" />
    <glyph glyph-name="uni0E04" unicode="&#xe04;" horiz-adv-x="819" 
d="M465 451l-37 36h-53l-39 -36v-54l39 -37h53l37 37v54zM715 0h-74v670l-68 67h-344l-67 -67v-303l186 186h107l75 -76v-106l-75 -76h-107l-76 76v16l-110 -111v-276h-74v700l111 111h405l111 -111v-700z" />
    <glyph glyph-name="uni0E05" unicode="&#xe05;" horiz-adv-x="817" 
d="M465 449l-37 38h-53l-39 -38v-54l39 -37h53l37 37v54zM715 0h-74v668l-68 67h-61l-111 -110l-110 110h-62l-67 -67v-303l186 186h107l75 -76v-106l-75 -76h-107l-76 76v16l-110 -111v-274h-74v698l111 111h123l79 -80l82 80h121l111 -111v-698z" />
    <glyph glyph-name="uni0E06" unicode="&#xe06;" horiz-adv-x="917" 
d="M418 102v54l-39 37h-53l-37 -37v-54l37 -39h53zM195 637h-54l-37 -39v-53l37 -37h54l38 37v53zM739 809h74v-809h-74l-258 143v-67l-75 -76h-107l-76 76v106l76 76h72v332l92 92v39l-17 16h-28l-74 -73l-74 73h-90l-37 -37h78l76 -75v-107l-76 -76h-106l-76 76v182
l111 111h139l55 -55l55 55h64l74 -72v-75l-93 -93v-333l295 -164v735z" />
    <glyph glyph-name="uni0E07" unicode="&#xe07;" horiz-adv-x="655" 
d="M449 618l38 37v54l-38 39h-54l-37 -39v-54l37 -37h54zM551 0h-74l-403 543l57 43l346 -463v432l-2 -2h-106l-76 76v106l76 76h106l76 -76v-735z" />
    <glyph glyph-name="uni0E08" unicode="&#xe08;" horiz-adv-x="796" 
d="M442 397v54l-36 38h-54l-37 -38v-54l37 -37h54zM692 0h-74v276l-110 111v-16l-76 -76h-106l-76 76v106l76 76h106l186 -186v303l-67 67h-344l-68 -67v-43h-73v73l110 111h406l110 -111v-700z" />
    <glyph glyph-name="uni0E09" unicode="&#xe09;" horiz-adv-x="878" 
d="M741 102v54l-39 37h-53l-37 -37v-54l37 -39h53zM260 358l39 39v54l-39 36h-53l-37 -36v-54l37 -39h53zM289 0v297l-2 -2h-107l-76 76v106l76 76h107l75 -76v-399l259 178v414l-68 67h-344l-68 -67v-43h-73v73l110 111h406l110 -111v-442h35l76 -76v-106l-76 -76h-106
l-76 76v51l-185 -127h-73z" />
    <glyph glyph-name="uni0E0A" unicode="&#xe0a;" horiz-adv-x="770" 
d="M233 596l-38 39h-54l-37 -39v-53l37 -37h54l38 37v53zM623 698l43 -45v-542l-111 -111h-74l-110 109v561l-66 65h-125l-37 -37h80l74 -75v-107l-74 -76h-108l-76 76v182l111 111h184l110 -111v-559l68 -65h12l68 67l2 484l-76 73l223 222l52 -52z" />
    <glyph glyph-name="uni0E0B" unicode="&#xe0b;" horiz-adv-x="768" 
d="M590 141l2 484l-57 55v-16l-93 -93v-432l68 -65h12zM195 635h-56l-37 -39v-53l39 -37h54l36 37v53zM791 868l-170 -170l45 -45l-2 -542l-111 -111h-74l-110 109v479l92 92v41l-15 14h-30l-74 -73l-74 73h-90l-35 -37h78l74 -75v-107l-74 -76h-108l-74 76v182l111 111h137
l55 -55l57 55h62l74 -72v-20l204 203z" />
    <glyph glyph-name="uni0E0C" unicode="&#xe0c;" horiz-adv-x="1163" 
d="M664 100v56l-39 37h-54l-36 -37v-56l36 -37h54zM205 193l-39 -37v-56l39 -37h53l37 37v56l-37 37h-53zM985 809h74v-809h-74l-258 141v-67l-74 -74h-108l-76 74v108l76 74h71v414l-65 65h-344l-39 -37l119 -116l-111 -111v-215h109l75 -74v-108l-75 -74h-109l-74 74v428
l80 80l-116 116l110 111h406l108 -111v-462l295 -162v735z" />
    <glyph glyph-name="uni0E0D" unicode="&#xe0d;" horiz-adv-x="1165" 
d="M205 193l-37 -37v-54l37 -39h53l39 39v54l-39 37h-53zM987 811h74v-700l-111 -111h-332v670l-67 67h-344l-37 -37l117 -118l-111 -111v-215l2 2h107l75 -76v-106l-75 -76h-107l-76 76v426l80 80l-116 116v2l110 111h406l110 -111v-626h228l67 67v670zM748 -266l26 26v39
l-26 27h-39l-27 -27v-37l29 -28h37zM840 -256h57l111 111l53 -54l-133 -131h-246l-64 66v90l66 65h90l66 -65v-82z" />
    <glyph glyph-name="uni0E0E" unicode="&#xe0e;" horiz-adv-x="915" 
d="M555 -295l55 55l-55 56h-227l-31 -31v-49l31 -31h227zM233 102v54l-38 37h-54l-37 -37v-54l37 -39h54zM813 -369h-74l-75 78l-78 -78h-289l-74 74v111l74 73h289l153 -153v934l-67 67h-344l-37 -37l117 -116l-111 -111v-397l-76 -76h-106l-76 76v106l76 76h106l2 -2v246
l80 82l-117 116l111 111h405l111 -111v-1069z" />
    <glyph glyph-name="uni0E0F" unicode="&#xe0f;" horiz-adv-x="917" 
d="M399 -293l56 55l-56 56h-71l-31 -31v-49l31 -31h71zM231 102v54l-36 39h-54l-39 -39v-54l39 -36h54zM813 -367h-76l-75 76l-78 -78l-76 78l-78 -76h-133l-74 74v111l74 71h133l154 -153l78 78l77 -78v934l-67 67h-344l-37 -37l117 -116l-111 -111v-397l-76 -76h-106
l-76 76v106l76 76h106l2 -2v248l80 80l-117 116l111 111h405l111 -111v-1067z" />
    <glyph glyph-name="uni0E10" unicode="&#xe10;" 
d="M590 -240v37l-27 29h-37l-26 -29v-37l26 -26h37zM590 -109l65 -65v-92l-65 -64l-90 -2l-127 125l-123 -123l-170 170l45 45l125 -125l123 125l61 -61l66 67h90zM406 322v53l-37 39h-54l-39 -39v-53l39 -37h54zM655 735h-448l-64 -61l512 -121v-553h-73v201l-111 110v-16
l-76 -76h-106l-76 76v106l76 76h106l187 -186v213l-516 121v73l110 111h479v-74z" />
    <glyph glyph-name="uni0E11" unicode="&#xe11;" horiz-adv-x="989" 
d="M195 635h-54l-39 -37v-53l39 -39h54l36 39v53zM885 0h-74v670l-66 67h-38l-263 -737h-73v588l92 92v41l-17 16h-30l-74 -73l-72 73h-90l-37 -37h78l76 -75v-107l-76 -76h-106l-76 76v182l111 111h137l55 -57l57 57h64l74 -74v-73l-93 -93v-381l220 619v2h112l109 -111
v-700z" />
    <glyph glyph-name="uni0E12" unicode="&#xe12;" horiz-adv-x="1185" 
d="M684 102v54l-37 37h-53l-39 -37v-54l39 -39h53zM336 397l37 -39h53l37 39v54l-37 36h-53l-37 -36v-54zM1008 809h73v-809h-73l-258 143v-67l-76 -76h-107l-75 76v106l75 76h72v412l-68 65h-61l-111 -110l-110 110h-62l-67 -65v-578l202 203h-16l-76 76v106l76 76h107
l75 -76v-106l-368 -371h-74v698l111 111h122l80 -80l80 80h123l111 -109v-462l295 -164v735z" />
    <glyph glyph-name="uni0E13" unicode="&#xe13;" horiz-adv-x="1245" 
d="M1108 100v56l-37 37h-51l-41 -37v-56l39 -37h53zM207 193l-39 -37v-56l39 -37h53l37 37v56l-37 37h-53zM621 0v670l-68 65h-344l-37 -37l117 -116l-111 -111v-215h109l75 -74v-108l-75 -74h-107l-76 74v428l80 80l-116 116l110 111h406l110 -111v-622l293 178l2 2v553h74
v-553h35l76 -74v-108l-76 -74h-107l-76 74v61l-223 -135h-71z" />
    <glyph glyph-name="uni0E14" unicode="&#xe14;" horiz-adv-x="821" 
d="M338 395l39 -37h53l37 37v56l-37 36h-53l-39 -36v-56zM717 0h-74v670l-68 65h-344l-67 -67v-578l201 205h-15l-76 74v108l76 74h107l75 -74v-108l-368 -369h-74v698l111 111h405l111 -111v-698z" />
    <glyph glyph-name="uni0E15" unicode="&#xe15;" horiz-adv-x="819" 
d="M336 395l37 -37h55l37 37v56l-37 36h-55l-37 -36v-56zM713 0h-74v670l-66 65h-61l-111 -110l-112 110h-60l-67 -67v-578l200 205h-16l-74 74v108l74 74h109l73 -74v-108l-366 -369h-74v698l111 111h120l82 -80l80 80h123l109 -111v-698z" />
    <glyph glyph-name="uni0E16" unicode="&#xe16;" horiz-adv-x="792" 
d="M205 195l-39 -39v-54l39 -36h53l37 36v54l-37 39h-53zM690 0h-72v670l-67 67h-344l-37 -37l117 -116l-111 -111v-215h109l75 -76v-106l-75 -76h-107l-76 76v428l80 80l-116 116l110 111h406l108 -111v-700z" />
    <glyph glyph-name="uni0E17" unicode="&#xe17;" horiz-adv-x="913" 
d="M193 618l38 37v54l-38 36h-54l-37 -36v-54l37 -37h54zM811 0h-74v670l-67 67h-43l-330 -737h-76v555l-2 -2h-106l-76 76v106l76 76h106l76 -76v-579l295 655h110l111 -111v-700z" />
    <glyph glyph-name="uni0E18" unicode="&#xe18;" 
d="M655 737h-448l-64 -63l512 -121v-442l-110 -111h-332l-111 111v405h74v-375l68 -67h270l68 67v365l-516 121v73l110 111h479v-74z" />
    <glyph glyph-name="uni0E19" unicode="&#xe19;" horiz-adv-x="921" 
d="M784 102v54l-39 39h-53l-37 -39v-54l37 -36h53zM193 616l38 39v54l-38 36h-54l-37 -36v-54l37 -39h54zM221 0v555l-2 -2h-106l-76 76v106l76 76h106l76 -76v-663l369 184v555h73v-553h35l76 -76v-106l-76 -76h-106l-76 76v71l-295 -147h-74z" />
    <glyph glyph-name="uni0E1A" unicode="&#xe1a;" horiz-adv-x="878" 
d="M193 616l36 39v54l-36 36h-54l-37 -36v-54l37 -39h54zM700 811h74v-700l-110 -111h-332l-111 111v444l-2 -2h-106l-76 76v106l76 76h106l76 -76v-594l67 -67h271l67 67v670z" />
    <glyph glyph-name="uni0E1B" unicode="&#xe1b;" horiz-adv-x="878" 
d="M195 616l36 37v54l-36 38h-54l-39 -38v-54l39 -37h54zM702 1178h74v-1067l-110 -111h-332l-111 109v444l-2 -2h-106l-76 76v106l76 76h106l76 -76v-594l68 -65h270l67 65v1039z" />
    <glyph glyph-name="uni0E1C" unicode="&#xe1c;" horiz-adv-x="817" 
d="M152 709v-54l36 -39h54l39 39v54l-39 36h-54zM713 811v-811h-74l-240 272l-239 -272h-74v735l76 76h106l76 -76v-106l-76 -76h-106l-2 2v-457l239 271l240 -271v713h74z" />
    <glyph glyph-name="uni0E1D" unicode="&#xe1d;" horiz-adv-x="815" 
d="M150 707v-54l38 -37h54l37 37v54l-37 38h-54zM711 1178v-1178h-74l-238 270l-239 -270h-74v733l76 76h106l76 -76v-106l-76 -76h-106l-2 2v-457l239 273l238 -273v1082h74z" />
    <glyph glyph-name="uni0E1E" unicode="&#xe1e;" horiz-adv-x="952" 
d="M195 616l36 37v54l-36 38h-54l-39 -38v-54l39 -37h54zM776 809h74v-809h-74l-239 629l-240 -629h-74v553l-2 -2h-106l-76 76v106l76 76h106l76 -76v-553l240 629l239 -631v631z" />
    <glyph glyph-name="uni0E1F" unicode="&#xe1f;" horiz-adv-x="952" 
d="M195 616l36 37v54l-36 38h-54l-39 -38v-54l39 -37h54zM774 1178h74v-1178h-74l-239 629l-238 -629h-74v553l-2 -2h-106l-76 76v106l76 76h106l76 -76v-553l238 629l239 -629v998z" />
    <glyph glyph-name="uni0E20" unicode="&#xe20;" horiz-adv-x="913" 
d="M231 102v54l-38 37h-54l-37 -37v-54l37 -39h54zM811 0h-74v670l-67 67h-344l-37 -37l117 -118l-111 -111v-395l-76 -76h-106l-76 76v106l76 76h106l2 -2v246l80 80l-117 118l111 111h405l111 -111v-700z" />
    <glyph glyph-name="uni0E21" unicode="&#xe21;" horiz-adv-x="841" 
d="M268 102v54l-39 39h-53l-37 -39v-54l37 -36h53zM193 616l38 39v54l-38 36h-54l-37 -36v-54l37 -39h54zM664 811h73v-811h-73l-332 154v-78l-76 -76h-106l-76 76v106l76 76h71v297l-2 -2h-106l-76 76v106l76 76h106l76 -76v-493l369 -170v739z" />
    <glyph glyph-name="uni0E22" unicode="&#xe22;" horiz-adv-x="798" 
d="M133 709v-54l39 -37h53l37 37v54l-37 39h-53zM623 811h73v-700l-110 -111h-369l-111 111v178l80 80l-116 116v250l75 76h107l76 -76v-106l-76 -76h-107l-2 2v-39l148 -147l-111 -111v-117l68 -67h307l68 67v670z" />
    <glyph glyph-name="uni0E23" unicode="&#xe23;" horiz-adv-x="651" 
d="M481 100v56l-39 37h-53l-37 -37v-56l37 -37h53zM471 256v246l-405 86v110l110 111h406v-74h-375l-68 -67v-29l406 -88v-477l-76 -74h-107l-75 74v108l75 74h109z" />
    <glyph glyph-name="uni0E24" unicode="&#xe24;" horiz-adv-x="796" 
d="M205 193l-37 -37v-54l37 -39h53l37 39v54l-37 37h-53zM692 -369h-74v1039l-67 67h-344l-37 -37l117 -118l-111 -111v-215l2 2h107l75 -76v-106l-75 -76h-107l-76 76v426l80 80l-116 118l110 111h406l110 -111v-1069z" />
    <glyph glyph-name="uni0E25" unicode="&#xe25;" horiz-adv-x="796" 
d="M207 195l-37 -39v-54l37 -36h53l37 36v54l-37 39h-53zM694 0h-73v301l-179 178h-196l-68 -67v-156l2 2h107l75 -76v-106l-75 -76h-107l-76 76v366l111 111h258l148 -147v264l-68 67h-344l-68 -67v-43h-73v73l110 111h406l110 -111v-700z" />
    <glyph glyph-name="uni0E26" unicode="&#xe26;" horiz-adv-x="915" 
d="M233 100v56l-38 37h-54l-37 -37v-54l37 -39h54zM813 -369h-74v1039l-67 65h-344l-37 -37l117 -116l-111 -111v-397l-76 -74h-106l-76 74v108l76 74h108v246l80 80l-117 116l111 111h405l111 -111v-1067z" />
    <glyph glyph-name="uni0E27" unicode="&#xe27;" horiz-adv-x="722" 
d="M555 102v54l-39 39h-53l-37 -39v-54l37 -36h53zM139 627h-73v73l110 111h332l110 -111v-624l-75 -76h-107l-76 76v106l76 76h107l2 -2v414l-68 67h-270l-68 -67v-43z" />
    <glyph glyph-name="uni0E28" unicode="&#xe28;" horiz-adv-x="819" 
d="M467 451l-37 38h-55l-37 -38v-54l37 -37h55l37 37v54zM715 0h-74v670l-66 67h-346l-65 -67v-303l184 186h109l73 -76v-106l-73 -76h-109l-74 76v16l-110 -111v-276h-74v700l111 111h403l111 111l47 -45l-111 -111l64 -66v-700z" />
    <glyph glyph-name="uni0E29" unicode="&#xe29;" horiz-adv-x="878" 
d="M195 616l36 37v54l-36 38h-54l-39 -38v-54l39 -37h54zM526 358l37 37v54l-37 38h-55l-37 -38v-54l37 -37h55zM700 809h74v-698l-110 -111h-332l-109 109v444l-2 -2h-106l-76 76v106l76 76h106l76 -76v-594l65 -65h271l67 65v154h-256l-73 76v108l73 74h109l74 -74v-108
l-11 -11h84v451z" />
    <glyph glyph-name="uni0E2A" unicode="&#xe2a;" horiz-adv-x="796" 
d="M207 193l-39 -37v-54l39 -39h53l37 39v54l-37 37h-53zM692 0h-74v301l-176 176h-196l-68 -65v-156l2 2h107l75 -76v-106l-75 -76h-107l-76 76v364l111 111h258l145 -148v267l-65 65h-344l-68 -67v-43h-73v73l110 111h406l110 111l45 -46l-110 -110l63 -66v-698z" />
    <glyph glyph-name="uni0E2B" unicode="&#xe2b;" horiz-adv-x="915" 
d="M618 655l37 -39h54l39 39v54l-39 36h-54l-37 -36v-54zM193 616l38 39v54l-38 36h-54l-37 -36v-54l37 -39h54zM811 0h-74v446l-61 62l-381 -508h-74l-108 553l-76 76v106l76 76h108l74 -76v-626l334 444l-76 76v106l76 76h106l76 -76v-106l-76 -76l76 -76v-477z" />
    <glyph glyph-name="uni0E2C" unicode="&#xe2c;" horiz-adv-x="915" 
d="M711 655l37 37v53l-37 39h-54l-39 -39v-53l39 -37h54zM195 618l38 37v54l-38 39h-54l-37 -39v-54l37 -37h54zM813 0h-74l-221 387l-221 -387h-74v555l-2 -2h-106l-76 76v106l76 76h106l76 -76v-604l221 385l221 -385v461l-2 -2h-106l-76 76v106l76 76h106l76 -76v-16
l92 94l47 -45l-139 -139v-666z" />
    <glyph glyph-name="uni0E2D" unicode="&#xe2d;" horiz-adv-x="798" 
d="M168 451v-56l39 -37h53l37 37v56l-37 36h-53zM178 295v-156l68 -65h307l68 67v529l-68 65h-344l-68 -67v-43h-73v73l110 111h406l110 -111v-587l-110 -111h-369l-111 111v366l76 74h107l75 -74v-108l-75 -74h-109z" />
    <glyph glyph-name="uni0E2E" unicode="&#xe2e;" horiz-adv-x="798" 
d="M510 737h-338l-31 -30v-50l31 -30h227zM168 377v-53l39 -37h53l37 37v53l-37 39h-53zM739 877l-110 -111l65 -66v-589l-110 -111h-369l-111 111v292l76 76h107l75 -76v-106l-75 -76h-107l-2 2v-82l68 -67h307l68 67v529l-43 43l-160 -160h-277l-73 74v110l73 74h443
l110 111z" />
    <glyph glyph-name="uni0E2F" unicode="&#xe2f;" horiz-adv-x="657" 
d="M141 618h54l38 37v54l-38 39h-54l-37 -39v-54zM481 811h74v-811h-74v664l-110 -111h-256l-76 76v106l76 76h106l76 -76v-106l-2 -2h45l141 141v43z" />
    <glyph glyph-name="uni0E30" unicode="&#xe30;" horiz-adv-x="657" 
d="M135 92l27 -26h37l28 26v39l-28 27h-37l-27 -27v-39zM291 74h100l109 110l53 -51l-133 -133h-285l-65 66v92l65 63h90l66 -63v-84zM135 682v-39l27 -27h37l28 27v39l-28 27h-37zM291 625h100l109 110l53 -51l-133 -133h-285l-65 65v93l65 63h90l66 -63v-84z" />
    <glyph glyph-name="uni0E31" unicode="&#xe31;" horiz-adv-x="0" 
d="M-391 995h39l26 29v37l-26 26h-39l-27 -26v-37zM115 1071l-142 -139h-391l-65 63v92l65 66h90l66 -66v-90l211 -2l121 121z" />
    <glyph glyph-name="uni0E32" unicode="&#xe32;" horiz-adv-x="722" 
d="M618 0h-73v670l-68 65h-270l-68 -65v-45h-73v73l110 111h332l110 -109v-700z" />
    <glyph glyph-name="uni0E33" unicode="&#xe33;" horiz-adv-x="722" 
d="M-168 1034v53l-37 37h-55l-37 -37v-53l37 -39h55zM-287 1190h109l74 -76v-106l-74 -76h-109l-73 76v106zM621 0h-74v670l-68 67h-270l-68 -67v-43h-73v73l110 111h332l111 -111v-700z" />
    <glyph glyph-name="uni0E34" unicode="&#xe34;" horiz-adv-x="0" 
d="M-629 997h461v19q-35 39 -74 74h-315l-72 -72v-21zM-104 932h-588v112l108 109h369l111 -111v-110z" />
    <glyph glyph-name="uni0E35" unicode="&#xe35;" horiz-adv-x="0" 
d="M-629 995h461v21l-72 71h-317l-72 -71v-21zM-168 1264h64v-332h-588v110l108 111h371l45 -47v158z" />
    <glyph glyph-name="uni0E36" unicode="&#xe36;" horiz-adv-x="0" 
d="M-131 1106l27 27v38l-27 27h-37l-27 -27v-36q6 -8 7 -9l20 -20h37zM-168 995v21l-72 71h-317l-72 -71v-21h461zM-104 932h-588v110l108 111h324v45l65 64h91l65 -64v-92l-65 -64v-110z" />
    <glyph glyph-name="uni0E37" unicode="&#xe37;" horiz-adv-x="0" 
d="M-629 995h461v19l-72 73h-315l-27 -27q-28 -28 -47 -44v-21zM-168 1262h66v-332h-590v112l110 109h267v111h65v-111h37l45 -45v156z" />
    <glyph glyph-name="uni0E38" unicode="&#xe38;" horiz-adv-x="0" 
d="M-233 -215h38l27 27v36l-27 29h-38l-27 -29v-36zM-102 -465h-74v184h-84l-64 66v92l64 64h92l66 -64v-342z" />
    <glyph glyph-name="uni0E39" unicode="&#xe39;" horiz-adv-x="0" 
d="M-420 -215h39l27 27v38l-27 27h-39l-26 -27v-38zM-178 -59h74v-404h-258v184h-84l-64 64v92l66 64h90l65 -64v-266h111v330z" />
    <glyph glyph-name="uni0E3A" unicode="&#xe3a;" horiz-adv-x="0" 
d="M-104 -102v-60l-43 -45h-62l-43 45v60l43 43h62z" />
    <glyph glyph-name="uni0E3F" unicode="&#xe3f;" horiz-adv-x="724" 
d="M344 406v-332h135l68 67v197l-68 68h-135zM141 74h129v332h-129v-332zM141 811v-332h129v332h-129zM344 811v-332h98l68 68v196l-68 68h-98zM344 0v-74h-74v74h-202v885h202v73h74v-73h129l111 -111v-258l-56 -55l93 -92v-258l-111 -111h-166z" />
    <glyph glyph-name="uni0E40" unicode="&#xe40;" horiz-adv-x="372" 
d="M258 102v54l-37 39h-53l-37 -39v-54l37 -36h53zM66 811h73v-555l2 2h107l76 -74v-108l-76 -76h-107l-75 76v735z" />
    <glyph glyph-name="uni0E41" unicode="&#xe41;" horiz-adv-x="704" 
d="M592 102v54l-39 37h-53l-37 -37v-54l37 -39h53zM397 811h74v-555l2 2h107l75 -76v-106l-75 -76h-107l-76 76v735zM260 102v54l-37 37h-55l-37 -37v-54l37 -39h55zM68 811h73l109 -553l74 -76v-106l-74 -76h-109l-73 76v735z" />
    <glyph glyph-name="uni0E42" unicode="&#xe42;" horiz-adv-x="598" 
d="M485 102v54l-39 39h-53l-37 -39v-54l37 -36h53zM401 1253v-73h-301l-55 -58l320 -127v-739l2 2h106l76 -76v-106l-76 -76h-106l-76 76v878l-332 133v56l111 110h331z" />
    <glyph glyph-name="uni0E43" unicode="&#xe43;" horiz-adv-x="600" 
d="M485 102v54l-36 37h-54l-39 -37v-54l39 -39h54zM154 1040l-37 37h-54l-38 -37v-53l38 -39h54l37 39v53zM475 258l76 -76v-106l-76 -76h-106l-76 76v1036l-68 68h-123l-36 -37h77l76 -76v-106l-76 -76h-106l-76 76v180l111 110h184l111 -108v-887l2 2h106z" />
    <glyph glyph-name="uni0E44" unicode="&#xe44;" horiz-adv-x="598" 
d="M485 102v54l-36 37h-56l-37 -37v-54l37 -39h56zM-39 1178v73h98l117 -116l117 118h74l108 -995l74 -76v-106l-74 -76h-108l-74 76v1071l-117 -117l-147 148h-68z" />
    <glyph glyph-name="uni0E45" unicode="&#xe45;" horiz-adv-x="724" 
d="M621 -367h-74v1037l-68 67h-270l-68 -67v-43h-73v73l110 111h332l111 -111v-1067z" />
    <glyph glyph-name="uni0E46" unicode="&#xe46;" horiz-adv-x="692" 
d="M174 598l-39 -37v-53l39 -37h53l37 37v53l-37 37h-53zM588 -371h-74v1039l-68 67h-24l-74 -73l-74 73h-61l-68 -67v-6l2 2h107l76 -76v-109l-76 -76h-107l-75 78v217l110 111h123l43 -43l43 43h86l111 -111v-1069z" />
    <glyph glyph-name="uni0E47" unicode="&#xe47;" horiz-adv-x="0" 
d="M-170 1022v35l-25 24h-34l-25 -24v-35l25 -25h34zM-547 932v184l111 111h229l76 73l45 -45l-92 -92h-232l-73 -73v-74l29 30q30 29 36 33l82 -82h19v86l59 60h90l64 -60v-88l-62 -63h-196l-56 57l-57 -57h-72z" />
    <glyph glyph-name="uni0E48" unicode="&#xe48;" horiz-adv-x="0" 
d="M-104 1606v-295h-66v295h66z" />
    <glyph glyph-name="uni0E49" unicode="&#xe49;" horiz-adv-x="0" 
d="M-313 1516v-35l24 -25h35l25 25v35l-25 24h-35zM-379 1313v61h43l19 19l-62 61v88l62 62h90l59 -60v-90l-78 -80h101l196 197l47 -45l-200 -213h-277z" />
    <glyph glyph-name="uni0E4A" unicode="&#xe4a;" horiz-adv-x="0" 
d="M-289 1421h35l25 25v35l-25 24h-35l-24 -24v-35zM-315 1358q-3 0 -31 28l-31 31v90l60 62h90l59 -62l62 62l94 -96l104 104l45 -45l-221 -221l-45 45l72 71l-49 50l-121 -119h-88z" />
    <glyph glyph-name="uni0E4B" unicode="&#xe4b;" horiz-adv-x="0" 
d="M10 1491v-66h-114v-114h-66v114h-115v66h115v115h66v-115h114z" />
    <glyph glyph-name="uni0E4C" unicode="&#xe4c;" horiz-adv-x="0" 
d="M-168 1288v39l-27 27h-38l-27 -27v-39l27 -26h38zM-31 1559l-139 -142l66 -63v-92l-64 -66h-92l-66 66v92l250 250z" />
    <glyph glyph-name="uni0E4D" unicode="&#xe4d;" horiz-adv-x="0" 
d="M-166 1034v53l-39 39h-53l-37 -39v-53l37 -37h53zM-285 1190h107l76 -76v-106l-76 -76h-107l-75 76v106z" />
    <glyph glyph-name="uni0E4E" unicode="&#xe4e;" horiz-adv-x="0" 
d="M80 1264v-74h-117l-12 -14v-115h-117l-12 -14v-115h-74v145l57 58h72v71l55 58h148z" />
    <glyph glyph-name="uni0E4F" unicode="&#xe4f;" horiz-adv-x="722" 
d="M545 197v157l-125 125h-158l-123 -123v-159l121 -123h160zM451 553l167 -168v-219l-167 -166h-222l-163 166v221l165 166h220zM397 254v45l-32 33h-48l-30 -33v-45l30 -33h48zM395 406l76 -76v-107l-76 -76h-106l-74 74v111l74 74h106z" />
    <glyph glyph-name="uni0E50" unicode="&#xe50;" horiz-adv-x="796" 
d="M618 139v310l-67 67h-344l-68 -67v-308l68 -67h344zM582 590l110 -113v-366l-110 -111h-406l-110 111v368l110 109z" />
    <glyph glyph-name="uni0E51" unicode="&#xe51;" horiz-adv-x="798" 
d="M281 156v-54l36 -39h54l37 39v54l-37 37h-54zM584 588l110 -111v-440l-110 -111l-52 51l89 89v380l-68 68h-344l-68 -65v-308l68 -67h8l-2 2v106l76 76h106l76 -76v-106l-76 -76h-219l-110 111v366l110 111h406z" />
    <glyph glyph-name="uni0E52" unicode="&#xe52;" horiz-adv-x="944" 
d="M352 377l-39 -39v-53l39 -37h54l36 37v53l-36 39h-54zM66 698h73v-557l68 -67h491l68 67v305l-68 68h-24l-111 -111l-110 111h-62l-67 -68v-8l2 2h106l76 -73v-109l-76 -76h-106l-76 76v219l110 111h123l80 -80l80 80h86l111 -111v-366l-111 -111h-553l-110 111v587z" />
    <glyph glyph-name="uni0E53" unicode="&#xe53;" horiz-adv-x="907" 
d="M168 193l-37 -37v-54l37 -39h53l39 39v54l-39 37h-53zM803 0h-74v449l-67 65h-89l-65 -65v-449h-74v449l-65 65h-162l-68 -68v-190l2 2h107l76 -76v-106l-76 -76h-107l-75 76v401l110 111h221l74 -74l74 74h147l111 -111v-477z" />
    <glyph glyph-name="uni0E54" unicode="&#xe54;" horiz-adv-x="833" 
d="M352 303v-53l37 -39h53l39 39v53l-39 37h-53zM729 74v-74h-553l-110 111v366l110 111h465l111 110l51 -51l-131 -133h-465l-68 -68v-305l68 -67h229l-149 149v107l75 76h107l76 -76v-107l-76 -76h-14l73 -73h201z" />
    <glyph glyph-name="uni0E55" unicode="&#xe55;" horiz-adv-x="833" 
d="M352 616l29 -28h72l28 28v54l-37 39h-53l-39 -39v-54zM352 303v-53l39 -39h53l37 39v53l-37 37h-53zM731 74v-74h-553l-110 111v366l110 111h113l-2 2v106l76 76h106l76 -76v-106l-2 -2h96l113 112l51 -53l-133 -133h-463l-68 -65v-308l68 -67h229l-149 149v107l76 76
h106l76 -76v-107l-76 -76h-16l73 -73h203z" />
    <glyph glyph-name="uni0E56" unicode="&#xe56;" horiz-adv-x="890" 
d="M301 63h53l37 39v54l-37 37h-53l-39 -37v-54zM678 588l110 -111v-366l-110 -111h-404l-75 76v106l75 76h107l76 -76v-106l-2 -2h192l68 67v305l-68 68h-465l-131 133l51 51l111 -110h465z" />
    <glyph glyph-name="uni0E57" unicode="&#xe57;" horiz-adv-x="1017" 
d="M168 193l-37 -37v-54l37 -39h53l39 39v54l-39 37h-53zM840 698h73v-514l-184 -184h-74v449l-67 65h-80l-111 -111l-110 111h-80l-68 -68v-190l2 2h107l76 -76v-108l-76 -74h-107l-75 74v403l110 111h141l80 -80l80 80h141l111 -111v-373l111 111v483z" />
    <glyph glyph-name="uni0E58" unicode="&#xe58;" horiz-adv-x="868" 
d="M698 102v54l-36 39h-54l-39 -39v-54l39 -36h54zM582 258h106l76 -76v-108l-76 -74h-280l-117 117l-117 -117l-111 111v368l111 111h465l109 110l53 -51l-131 -133h-463l-70 -67v-308l37 -37l117 117l147 -145l68 106z" />
    <glyph glyph-name="uni0E59" unicode="&#xe59;" horiz-adv-x="897" 
d="M279 156v-54l36 -39h54l39 39v54l-39 37h-54zM207 514l-68 -65v-310l68 -65l6 108l76 76h106l76 -76v-108l-76 -74h-219l-110 111v366l110 111h121l123 -125l125 125h98l111 110l51 -51l-131 -133h-99l-102 -102l367 -367l-45 -45l-516 514h-72z" />
    <glyph glyph-name="uni0E5A" unicode="&#xe5a;" horiz-adv-x="915" 
d="M139 616h54l38 37v54l-38 38h-54l-37 -38v-54zM737 809h74v-809h-74v662l-110 -111h-74v-551h-74v662l-110 -111h-256l-76 76v106l76 76h106l76 -76v-106l-2 -2h45l141 141v43h74v-184h43l141 141v43z" />
    <glyph glyph-name="uni0E5B" unicode="&#xe5b;" horiz-adv-x="1511" 
d="M424 360v54l-39 37h-53l-37 -37v-54l37 -38h53zM1411 451v-19l-186 -24l-35 34l-100 -102l-103 102l-102 -102l-101 102l-102 -102l-29 29v-148l-110 -110h-369l-111 110v332l111 111h203l110 -111v-219l-75 -76h-107l-76 76v106l76 76h107l2 -2v8l-66 68h-143l-68 -68
v-272l68 -66h307l68 68v283l102 -103l102 103l101 -103l102 103l103 -103l100 103l70 -70z" />
    <glyph glyph-name="zerowidthnonjoiner" unicode="&#x200c;" horiz-adv-x="0" 
d="M37 -631h-72v1123h72v-1123z" />
    <glyph glyph-name="zerowidthjoiner" unicode="&#x200d;" horiz-adv-x="0" 
d="M37 -631h-72v938l-41 -43l-37 35l78 78l-78 80l37 35l76 -78l78 78l37 -35l-78 -80l78 -78l-37 -35l-41 43v-938z" />
    <glyph glyph-name="lefttorightmark" unicode="&#x200e;" horiz-adv-x="0" 
d="M37 -631h-72v1049h275l-35 37l33 34l108 -108l-108 -109l-33 37l35 35h-203v-975z" />
    <glyph glyph-name="righttoleftmark" unicode="&#x200f;" horiz-adv-x="0" 
d="M37 -631h-72v975h-203l35 -35l-33 -37l-108 109l108 108l33 -34l-35 -37h275v-1049z" />
    <glyph glyph-name="endash" unicode="&#x2013;" horiz-adv-x="686" 
d="M582 406h-514v73h514v-73z" />
    <glyph glyph-name="emdash" unicode="&#x2014;" horiz-adv-x="1050" 
d="M946 479v-73h-883v73h883z" />
    <glyph glyph-name="quoteleft" unicode="&#x2018;" horiz-adv-x="311" 
d="M61 707v69l111 146h37l-55 -111h10l45 -43v-61l-45 -43h-60z" />
    <glyph glyph-name="quoteright" unicode="&#x2019;" horiz-adv-x="311" 
d="M209 879v-68l-111 -147h-37l56 110h-13l-43 43v62l43 43h62z" />
    <glyph glyph-name="quotesinglbase" unicode="&#x201a;" horiz-adv-x="309" 
d="M207 102v-67l-111 -146h-37l56 111h-13l-43 43v59l43 45h62z" />
    <glyph glyph-name="quotedblleft" unicode="&#x201c;" horiz-adv-x="530" 
d="M383 809l43 -43v-59l-43 -45h-59l-45 45v67l110 146h37l-55 -111h12zM152 809h10l45 -43v-59l-45 -45h-60l-43 45v67l111 146h37z" />
    <glyph glyph-name="quotedblright" unicode="&#x201d;" horiz-adv-x="530" 
d="M100 922h62l43 -43v-70l-111 -145h-37l56 110h-13l-43 43v62zM383 922l43 -43v-70l-111 -145h-36l55 110h-12l-43 43v62l43 43h61z" />
    <glyph glyph-name="quotedblbase" unicode="&#x201e;" horiz-adv-x="532" 
d="M385 147l43 -45v-67l-111 -146h-36l55 111h-12l-43 43v59l43 45h61zM102 147h62l43 -45v-67l-111 -146h-37l56 111h-13l-43 43v59z" />
    <glyph glyph-name="dagger" unicode="&#x2020;" horiz-adv-x="651" 
d="M346 588h203v-74h-203v-772h-74v772h-202v74h202v221h74v-221z" />
    <glyph glyph-name="daggerdbl" unicode="&#x2021;" horiz-adv-x="651" 
d="M545 514h-201v-221h201v-74h-201v-477h-74v477h-202v74h202v221h-202v74h202v221h74v-221h201v-74z" />
    <glyph glyph-name="bullet" unicode="&#x2022;" horiz-adv-x="460" 
d="M358 502v-121l-86 -86h-122l-87 86v121l87 88h122z" />
    <glyph glyph-name="ellipsis" unicode="&#x2026;" horiz-adv-x="972" 
d="M827 147l43 -45v-59l-43 -43h-61l-43 43v59l43 45h61zM434 147h62l43 -45v-59l-43 -43h-62l-43 43v59zM102 147h62l43 -45v-59l-43 -43h-62l-43 43v59z" />
    <glyph glyph-name="perthousand" unicode="&#x2030;" horiz-adv-x="1204" 
d="M614 885h84l-508 -885h-84zM1036 176v127l-37 39h-90l-39 -39v-127l39 -37h90zM1026 406l76 -76v-180l-76 -76h-143l-76 76v180l76 76h143zM670 176v127l-39 39h-90l-37 -39v-127l37 -37h90zM514 406h143l76 -76v-180l-76 -76h-143l-76 76v180zM135 709v-127l37 -37h90
l39 37v127l-39 39h-90zM289 479h-144l-75 76v180l75 76h144l76 -76v-180z" />
    <glyph glyph-name="minute" unicode="&#x2032;" horiz-adv-x="282" 
d="M68 696l36 185h74l-74 -185h-36z" />
    <glyph glyph-name="second" unicode="&#x2033;" horiz-adv-x="395" 
d="M215 883h74l-74 -185h-37zM68 698l36 185h74l-74 -185h-36z" />
    <glyph glyph-name="guilsinglleft" unicode="&#x2039;" horiz-adv-x="391" 
d="M289 479l-148 -135v-10l148 -135v-99l-221 203v74l221 201v-99z" />
    <glyph glyph-name="guilsinglright" unicode="&#x203a;" horiz-adv-x="391" 
d="M68 578l221 -203v-74l-221 -201v99l147 135v8l-147 137v99z" />
    <glyph glyph-name="fraction" unicode="&#x2044;" 
d="M569 883h86l-508 -883h-84z" />
    <glyph glyph-name="franc" unicode="&#x20a3;" horiz-adv-x="720" 
d="M139 479h443v-73h-443v-148h221v-74h-221v-184h-73v184h-74v74h74v516l110 111h442v-74h-411l-68 -68v-264z" />
    <glyph glyph-name="dong" unicode="&#x20ab;" 
d="M70 -135v74h589v-74h-589zM586 141v246l-166 166h-209l-68 -68v-344l68 -67h307zM659 793h74v-74h-74v-608l-110 -111h-369l-110 111v405l110 111h258l148 -148v240h-111v74h111v92h73v-92z" />
    <glyph glyph-name="Euro" unicode="&#x20ac;" horiz-adv-x="907" 
d="M803 698h-74v43l-67 68h-381l-68 -68v-153h405v-74h-405v-147h405v-74h-405v-154l68 -65h381l67 65v43h74v-71l-111 -111h-442l-111 109v184h-73v74h73v147h-73v74h73v184l111 111h442l111 -111v-74z" />
    <glyph glyph-name="uni2113" unicode="&#x2113;" horiz-adv-x="503" 
d="M215 811v-338l74 74v196l-68 68h-6zM399 74v-74h-147l-111 111v184l-35 -35l-53 51l88 88v486h111l110 -111v-258l-147 -147v-228l68 -67h116z" />
    <glyph glyph-name="trademark" unicode="&#x2122;" horiz-adv-x="1126" 
d="M432 883v-64h-147v-442h-64v442h-147v64h358zM580 377h-64v506h66l8 -20q8 -19 21.5 -49t31.5 -72t127 -283q50 117 80 183t46.5 105t30 69t21.5 48l8 19h66v-506h-64l-2 176v172q-74 -176 -153 -348h-68q-34 74 -48.5 108.5t-29.5 67.5l-77 176v-352z" />
    <glyph glyph-name="Ohm" unicode="&#x2126;" horiz-adv-x="872" 
d="M584 74h184v-74h-258v178l147 148v344l-67 67h-344l-68 -67v-344l148 -148v-178h-258v74h184v73l-148 148v405l111 111h406l110 -111v-405l-147 -148v-73z" />
    <glyph glyph-name="estimated" unicode="&#x212e;" horiz-adv-x="464" 
d="M137 406h148v153l-66 68h-14l-68 -68v-153zM358 332h-221v-191l68 -67h12l68 67v43h73v-73l-110 -111h-74l-108 111l-3 479l111 110h76l108 -110v-258z" />
    <glyph glyph-name="partialdiff" unicode="&#x2202;" horiz-adv-x="462" 
d="M287 369h-80l-68 -68v-160l68 -67h12l68 67v228zM287 442v117l-68 68h-12l-68 -68v-43h-73v74l110 110h74l110 -110v-479l-110 -111h-74l-110 111v221l110 110h111z" />
    <glyph glyph-name="Delta" unicode="&#x2206;" horiz-adv-x="864" 
d="M141 74h535l-256 516h-21zM760 0h-701v74l295 590h111l295 -590v-74z" />
    <glyph glyph-name="product" unicode="&#x220f;" horiz-adv-x="798" 
d="M143 -258h-73v1143h626v-1143h-73v1069h-480v-1069z" />
    <glyph glyph-name="summation" unicode="&#x2211;" 
d="M655 811h-516v-82l273 -287l-273 -286v-82h516v-74h-589v184l243 258l-243 258v185h589v-74z" />
    <glyph glyph-name="minus" unicode="&#x2212;" horiz-adv-x="829" 
d="M725 401h-662v74h662v-74z" />
    <glyph glyph-name="radical" unicode="&#x221a;" horiz-adv-x="802" 
d="M70 295v74h161l97 -258l293 774h77l-331 -885h-76l-111 295h-110z" />
    <glyph glyph-name="infinity" unicode="&#x221e;" horiz-adv-x="1126" 
d="M948 397v88l-121 121h-102l-135 -166l135 -166h100zM360 274l136 166l-136 166h-100l-123 -123v-86l123 -123h100zM856 680l166 -166v-147l-166 -166h-166l-147 182l-148 -182h-166l-166 166v147l166 166h166l148 -180l147 180h166z" />
    <glyph glyph-name="integral" unicode="&#x222b;" horiz-adv-x="690" 
d="M0 0v74h113l82 67l135 633l133 111h127v-74h-113l-80 -68l-135 -632l-135 -111h-127z" />
    <glyph glyph-name="approxequal" unicode="&#x2248;" horiz-adv-x="815" 
d="M543 334l133 78l37 -66l-160 -92l-322 86l-133 -78l-37 64l160 94zM231 543l-133 -76l-37 63l160 93l322 -86l133 77l37 -63l-160 -94z" />
    <glyph glyph-name="notequal" unicode="&#x2260;" horiz-adv-x="610" 
d="M508 461h-178l-37 -166h215v-74h-229l-48 -221h-73l47 221h-139v74h153l37 166h-190v74h204l43 202h74l-43 -202h164v-74z" />
    <glyph glyph-name="lessequal" unicode="&#x2264;" horiz-adv-x="829" 
d="M725 657l-590 -213v-6l590 -213v-78l-664 240v111l664 239v-80zM61 0v74h664v-74h-664z" />
    <glyph glyph-name="greaterequal" unicode="&#x2265;" horiz-adv-x="827" 
d="M61 737l664 -239v-111l-664 -240v78l590 213v6l-590 213v80zM61 0v74h664v-74h-664z" />
    <glyph glyph-name="lozenge" unicode="&#x25ca;" horiz-adv-x="698" 
d="M334 74l174 350l-174 350h-21l-174 -350l174 -350h21zM379 848l211 -424l-211 -424h-111l-211 424l211 424h111z" />
    <glyph glyph-name="dottedcircle" unicode="&#x25cc;" horiz-adv-x="1048" 
d="M213 776h61l43 -43v-61l-43 -43h-61l-43 43v61zM733 256h62l43 -43v-61l-43 -43h-62l-43 43v61zM733 629l-43 43v61l43 43h62l43 -43v-61l-43 -43h-62zM274 256l43 -43v-61l-43 -43h-61l-43 43v61l43 43h61zM903 516l43 -43v-61l-43 -43h-61l-43 43v61l43 43h61zM209 473
v-61l-43 -43h-62l-43 43v61l43 43h62zM473 147h62l43 -43v-61l-43 -43h-62l-43 43v61zM473 885h62l43 -43v-62l-43 -43h-62l-43 43v62z" />
    <glyph glyph-name="uni0E10.alt1" unicode="&#xf700;" 
d="M408 322v53l-39 39h-54l-36 -37v-55l36 -37h54zM655 809v-74h-448l-64 -61l512 -121v-553h-73v201l-111 110v-16l-76 -74h-106l-76 74v108l76 74h106l187 -184v211l-516 121v73l110 111h479z" />
    <glyph glyph-name="uni0E34.alt1" unicode="&#xf701;" horiz-adv-x="0" 
d="M-786 995h460v21l-28 28q-27 27 -45 43h-316l-71 -71v-21zM-262 932h-588v110l109 111h368l111 -111v-110z" />
    <glyph glyph-name="uni0E35.alt1" unicode="&#xf702;" horiz-adv-x="0" 
d="M-788 997h460v19l-71 74h-316q-64 -64 -73 -72v-21zM-328 1264h66v-332h-590v112l111 109h368l45 -45v156z" />
    <glyph glyph-name="uni0E36.alt1" unicode="&#xf703;" horiz-adv-x="0" 
d="M-354 1135q4 -3 28 -27h37l27 27v39l-27 26h-37l-28 -26v-39zM-786 997h460v21l-28 28q-27 27 -45 44h-316l-71 -72v-21zM-262 932h-588v112l109 109h323v47l66 64h90l65 -66v-90l-65 -66v-110z" />
    <glyph glyph-name="uni0E37.alt1" unicode="&#xf704;" horiz-adv-x="0" 
d="M-786 997h460v21l-73 72h-316l-71 -72v-21zM-326 1264h64v-332h-590v112l111 109h268v111h63v-111h37l47 -45v156z" />
    <glyph glyph-name="uni0E48.alt1" unicode="&#xf705;" horiz-adv-x="0" 
d="M-262 1227v-295h-66v295h66z" />
    <glyph glyph-name="uni0E49.alt1" unicode="&#xf706;" horiz-adv-x="0" 
d="M-631 1104l25 -25h35l24 25v35l-24 24h-35l-25 -24v-35zM-694 932v65h43l18 19l-61 61v88l61 60l90 2l60 -62v-88l-78 -80h100l197 197l45 -45l-217 -217h-258z" />
    <glyph glyph-name="uni0E4A.alt1" unicode="&#xf707;" horiz-adv-x="0" 
d="M-608 1042q0 4 24 25v35l-24 24h-35l-25 -24v-35l25 -25h35zM-670 981l-61 57v92l59 62h90l60 -62l61 60l94 -94l105 104l45 -47l-221 -221l-45 47l71 72l-49 49l-121 -119h-88z" />
    <glyph glyph-name="uni0E4B.alt1" unicode="&#xf708;" horiz-adv-x="0" 
d="M-262 1112v-65h-115v-115h-65v115h-115v65h115v115h65v-115h115z" />
    <glyph glyph-name="uni0E4C.alt1" unicode="&#xf709;" horiz-adv-x="0" 
d="M-324 1024v37l-28 26h-37l-27 -26v-37l27 -29h37zM-260 1087v-90l-64 -65h-92l-65 63v92l250 250l45 -45l-45 -45q-20 -20 -46 -44.5t-49 -49.5z" />
    <glyph glyph-name="uni0E48.alt2" unicode="&#xf70a;" horiz-adv-x="0" 
d="M-104 1227v-295h-64v295h64z" />
    <glyph glyph-name="uni0E49.alt2" unicode="&#xf70b;" horiz-adv-x="0" 
d="M-295 1137v-35l25 -25h34l25 25v35l-25 24h-34zM-360 932v63h43l18 21l-61 59v88l61 62h90l62 -60v-90l-80 -80h100l197 199l47 -47l-219 -215h-258z" />
    <glyph glyph-name="uni0E4A.alt2" unicode="&#xf70c;" horiz-adv-x="0" 
d="M-252 1040q0 4 23 25v35l-25 24h-35l-24 -24v-35l24 -25h37zM94 1198l45 -45l-221 -223l-45 47l72 72l-49 49l-121 -119h-90l-60 59v90l60 62h90l59 -62l62 60l94 -94z" />
    <glyph glyph-name="uni0E4B.alt2" unicode="&#xf70d;" horiz-adv-x="0" 
d="M12 1112v-65h-114v-115h-66v115h-115v65h115v115h66v-115h114z" />
    <glyph glyph-name="uni0E4C.alt2" unicode="&#xf70e;" horiz-adv-x="0" 
d="M-168 1022v39l-29 26h-36l-27 -26v-39l27 -27h36zM-104 1087v-92l-64 -63h-92l-66 63v92l250 250l45 -45l-139 -139z" />
    <glyph glyph-name="uni0E0D.alt1" unicode="&#xf70f;" horiz-adv-x="1167" 
d="M205 193l-37 -37v-54l37 -39h53l39 39v54l-39 37h-53zM987 811h74v-700l-111 -111h-332v670l-67 67h-344l-37 -37l117 -118l-111 -111v-215l2 2h107l75 -76v-106l-75 -76h-107l-76 76v426l80 80l-116 118l110 111h406l110 -111v-626h228l67 67v670z" />
    <glyph glyph-name="uni0E31.alt1" unicode="&#xf710;" horiz-adv-x="0" 
d="M-723 995h37l29 29v37l-29 26h-37l-27 -26v-37zM-594 997h211l121 119l45 -45l-141 -139h-392l-65 63v92l65 66h91l65 -66v-90z" />
    <glyph glyph-name="uni0E4D.alt1" unicode="&#xf711;" horiz-adv-x="0" 
d="M-328 1034v53l-37 39h-53l-39 -39v-53l39 -37h53zM-444 1190h106l76 -76v-106l-76 -76h-106l-76 76v106z" />
    <glyph glyph-name="uni0E47.alt1" unicode="&#xf712;" horiz-adv-x="0" 
d="M-330 1022v35l-24 24h-35l-25 -24v-35l25 -25h35zM-328 1145q0 -5 31 -31l33 -29v-90l-62 -63h-196l-56 57l-57 -57h-72v186l109 109h231l76 76l45 -48l-43 -43q-16 -16 -31.5 -30.5t-19.5 -18.5h-229l-74 -73v-74l27 26q10 10 21 21.5t17 15.5l82 -82h17v86l61 62h90z
" />
    <glyph glyph-name="uni0E48.alt3" unicode="&#xf713;" horiz-adv-x="0" 
d="M-262 1606v-295h-66v295h66z" />
    <glyph glyph-name="uni0E49.alt3" unicode="&#xf714;" horiz-adv-x="0" 
d="M-457 1516v-35l25 -25h35l24 25v35l-24 24h-35zM-522 1311v63h43l18 19l-61 61v88l61 62h90l62 -60v-90l-78 -80h98l199 199l45 -47l-219 -215h-258z" />
    <glyph glyph-name="uni0E4A.alt3" unicode="&#xf715;" horiz-adv-x="0" 
d="M-449 1419h37q2 4 6 8l17 17v35l-25 24h-35l-24 -24v-35zM-66 1577l46 -45l-222 -221l-45 45l72 71l-49 50l-121 -119h-90l-60 59v90l60 62h88l61 -62l62 62l94 -96z" />
    <glyph glyph-name="uni0E4B.alt3" unicode="&#xf716;" horiz-adv-x="0" 
d="M-147 1491v-66h-115v-114h-66v114h-114v66h114v115h66v-115h115z" />
    <glyph glyph-name="uni0E4C.alt3" unicode="&#xf717;" horiz-adv-x="0" 
d="M-328 1288v39l-26 27h-39l-27 -27v-39l27 -26h39zM-262 1354v-92l-66 -66h-92l-63 66v92l247 250l46 -45q-23 -25 -46 -48l-94 -94h2z" />
    <glyph glyph-name="uni0E38.alt1" unicode="&#xf718;" horiz-adv-x="0" 
d="M-233 -586h36l29 29v37l-29 26h-36l-27 -26v-37zM-104 -834h-74v185h-82l-66 65v90l66 66h90l66 -66v-340z" />
    <glyph glyph-name="uni0E39.alt1" unicode="&#xf719;" horiz-adv-x="0" 
d="M-418 -582h37l29 27v39l-29 27h-37l-26 -27v-39zM-178 -426h74v-405h-258v184h-82l-66 65v93l66 63h92l63 -66v-266h111v332z" />
    <glyph glyph-name="uni0E3A.alt1" unicode="&#xf71a;" horiz-adv-x="0" 
d="M-104 -469v-59l-43 -45h-60l-43 45v59l43 43h60z" />
    <glyph glyph-name="uni0E0E.alt1" unicode="&#xf71b;" horiz-adv-x="917" 
d="M610 -240l-55 56h-227l-31 -31v-49l31 -31h227zM233 156l-38 37h-54l-37 -37v-54l37 -39h54l38 39v54zM813 -369h-74l-75 78l-78 -78h-289l-74 74v111l74 73h289l153 -153v934l-67 67h-344l-37 -37l117 -116l-111 -111v-397l-76 -76h-106l-76 76v106l76 76h106l2 -2v246
l80 82l-117 116l111 111h405l111 -111v-1069z" />
    <glyph glyph-name="uni0E0F.alt1" unicode="&#xf71c;" horiz-adv-x="915" 
d="M455 -238l-56 56h-71l-31 -31v-49l31 -31h71zM231 156l-36 39h-54l-39 -39v-54l39 -36h54l36 36v54zM813 -367h-76l-75 76l-78 -78l-76 78l-78 -76h-133l-74 74v111l74 71h133l154 -153l78 78l77 -78v934l-67 67h-344l-37 -37l117 -116l-111 -111v-397l-76 -76h-106
l-76 76v106l76 76h106l2 -2v248l80 80l-117 116l111 111h405l111 -111v-1067z" />
    <glyph glyph-name="uni0E2C.alt1" unicode="&#xf71d;" horiz-adv-x="915" 
d="M711 655l37 37v53l-37 39h-54l-39 -39v-53l39 -37h54zM195 618l38 37v54l-38 39h-54l-37 -39v-54l37 -37h54zM813 0h-74l-221 387l-221 -387h-74v555l-2 -2h-106l-76 76v106l76 76h106l76 -76v-604l221 385l221 -385v461l-2 -2h-106l-76 76v106l76 76h106l76 -76v-16
l92 94l47 -45l-139 -139v-666z" />
    <glyph glyph-name="uni0E33.alt1" horiz-adv-x="722" 
d="M-326 1034v53l-36 39h-54l-39 -39v-53l39 -37h54zM-442 1190h106l76 -76v-106l-76 -76h-106l-76 76v106zM618 0h-73v670l-66 67h-272l-66 -67v-43h-73v73l110 111h332l108 -111v-700z" />
    <glyph glyph-name="uni0E4E.alt1" horiz-adv-x="0" 
d="M-297 1264v-74h-117l-12 -14v-115h-117l-12 -14v-115h-74v145l56 58h73v71l56 58h147z" />
  </font>
</defs>
</svg>
